solid OpenSCAD_Model
  facet normal 0.987688 0.156435 0
    outer loop
      vertex 13 3 2.49
      vertex 12.8287 4.08156 0
      vertex 12.8287 4.08156 2.49
    endloop
  endfacet
  facet normal 0.987688 0.156435 0
    outer loop
      vertex 12.8287 4.08156 0
      vertex 13 3 2.49
      vertex 13 3 0
    endloop
  endfacet
  facet normal -0.987688 -0.156434 0
    outer loop
      vertex 6.15838 2 0
      vertex 6 3 2.49
      vertex 6 3 0
    endloop
  endfacet
  facet normal -0.987688 -0.156434 0
    outer loop
      vertex 6 3 2.49
      vertex 6.15838 2 0
      vertex 6.15838 2 2.49
    endloop
  endfacet
  facet normal -0.156435 0.987688 0
    outer loop
      vertex 9.5 6.5 0
      vertex 8.41844 6.3287 2.49
      vertex 9.5 6.5 2.49
    endloop
  endfacet
  facet normal -0.156435 0.987688 0
    outer loop
      vertex 8.41844 6.3287 2.49
      vertex 9.5 6.5 0
      vertex 8.41844 6.3287 0
    endloop
  endfacet
  facet normal 0.707107 0.707107 0
    outer loop
      vertex 12.3316 5.05725 2.49
      vertex 11.5572 5.83156 0
      vertex 11.5572 5.83156 2.49
    endloop
  endfacet
  facet normal 0.707107 0.707107 0
    outer loop
      vertex 11.5572 5.83156 0
      vertex 12.3316 5.05725 2.49
      vertex 12.3316 5.05725 0
    endloop
  endfacet
  facet normal 0.891007 0.45399 0
    outer loop
      vertex 12.8287 4.08156 2.49
      vertex 12.3316 5.05725 0
      vertex 12.3316 5.05725 2.49
    endloop
  endfacet
  facet normal 0.891007 0.45399 0
    outer loop
      vertex 12.3316 5.05725 0
      vertex 12.8287 4.08156 2.49
      vertex 12.8287 4.08156 0
    endloop
  endfacet
  facet normal -0.707107 0.707107 0
    outer loop
      vertex 6.66844 5.05725 0
      vertex 7.44275 5.83156 2.49
      vertex 7.44275 5.83156 0
    endloop
  endfacet
  facet normal -0.707107 0.707107 0
    outer loop
      vertex 7.44275 5.83156 2.49
      vertex 6.66844 5.05725 0
      vertex 6.66844 5.05725 2.49
    endloop
  endfacet
  facet normal -0.891007 0.45399 0
    outer loop
      vertex 6.1713 4.08156 0
      vertex 6.66844 5.05725 2.49
      vertex 6.66844 5.05725 0
    endloop
  endfacet
  facet normal -0.891007 0.45399 0
    outer loop
      vertex 6.66844 5.05725 2.49
      vertex 6.1713 4.08156 0
      vertex 6.1713 4.08156 2.49
    endloop
  endfacet
  facet normal -0.45399 0.891007 0
    outer loop
      vertex 8.41844 6.3287 0
      vertex 7.44275 5.83156 2.49
      vertex 8.41844 6.3287 2.49
    endloop
  endfacet
  facet normal -0.45399 0.891007 0
    outer loop
      vertex 7.44275 5.83156 2.49
      vertex 8.41844 6.3287 0
      vertex 7.44275 5.83156 0
    endloop
  endfacet
  facet normal 0.156435 0.987688 -0
    outer loop
      vertex 10.5816 6.3287 0
      vertex 9.5 6.5 2.49
      vertex 10.5816 6.3287 2.49
    endloop
  endfacet
  facet normal 0.156435 0.987688 0
    outer loop
      vertex 9.5 6.5 2.49
      vertex 10.5816 6.3287 0
      vertex 9.5 6.5 0
    endloop
  endfacet
  facet normal 0.45399 0.891007 -0
    outer loop
      vertex 11.5572 5.83156 0
      vertex 10.5816 6.3287 2.49
      vertex 11.5572 5.83156 2.49
    endloop
  endfacet
  facet normal 0.45399 0.891007 0
    outer loop
      vertex 10.5816 6.3287 2.49
      vertex 11.5572 5.83156 0
      vertex 10.5816 6.3287 0
    endloop
  endfacet
  facet normal -0.987688 0.156434 0
    outer loop
      vertex 6 3 0
      vertex 6.1713 4.08156 2.49
      vertex 6.1713 4.08156 0
    endloop
  endfacet
  facet normal -0.987688 0.156434 0
    outer loop
      vertex 6.1713 4.08156 2.49
      vertex 6 3 0
      vertex 6 3 2.49
    endloop
  endfacet
  facet normal 0.987688 -0.156435 0
    outer loop
      vertex 12.8416 2 2.49
      vertex 13 3 0
      vertex 13 3 2.49
    endloop
  endfacet
  facet normal 0.987688 -0.156435 0
    outer loop
      vertex 13 3 0
      vertex 12.8416 2 2.49
      vertex 12.8416 2 0
    endloop
  endfacet
  facet normal -0.156435 0.987688 0
    outer loop
      vertex 37.5 6.5 0
      vertex 36.4184 6.3287 2.49
      vertex 37.5 6.5 2.49
    endloop
  endfacet
  facet normal -0.156435 0.987688 0
    outer loop
      vertex 36.4184 6.3287 2.49
      vertex 37.5 6.5 0
      vertex 36.4184 6.3287 0
    endloop
  endfacet
  facet normal -0.707109 0.707105 0
    outer loop
      vertex 34.6684 5.05725 0
      vertex 35.4427 5.83156 2.49
      vertex 35.4427 5.83156 0
    endloop
  endfacet
  facet normal -0.707109 0.707105 0
    outer loop
      vertex 35.4427 5.83156 2.49
      vertex 34.6684 5.05725 0
      vertex 34.6684 5.05725 2.49
    endloop
  endfacet
  facet normal -0.891006 0.453991 0
    outer loop
      vertex 34.1713 4.08156 0
      vertex 34.6684 5.05725 2.49
      vertex 34.6684 5.05725 0
    endloop
  endfacet
  facet normal -0.891006 0.453991 0
    outer loop
      vertex 34.6684 5.05725 2.49
      vertex 34.1713 4.08156 0
      vertex 34.1713 4.08156 2.49
    endloop
  endfacet
  facet normal -0.453989 0.891007 0
    outer loop
      vertex 36.4184 6.3287 0
      vertex 35.4427 5.83156 2.49
      vertex 36.4184 6.3287 2.49
    endloop
  endfacet
  facet normal -0.453989 0.891007 0
    outer loop
      vertex 35.4427 5.83156 2.49
      vertex 36.4184 6.3287 0
      vertex 35.4427 5.83156 0
    endloop
  endfacet
  facet normal 0.156435 0.987688 -0
    outer loop
      vertex 38.5816 6.3287 0
      vertex 37.5 6.5 2.49
      vertex 38.5816 6.3287 2.49
    endloop
  endfacet
  facet normal 0.156435 0.987688 0
    outer loop
      vertex 37.5 6.5 2.49
      vertex 38.5816 6.3287 0
      vertex 37.5 6.5 0
    endloop
  endfacet
  facet normal 0.45399 0.891007 -0
    outer loop
      vertex 39 6.11549 0
      vertex 38.5816 6.3287 2.49
      vertex 39 6.11549 2.49
    endloop
  endfacet
  facet normal 0.45399 0.891007 0
    outer loop
      vertex 38.5816 6.3287 2.49
      vertex 39 6.11549 0
      vertex 38.5816 6.3287 0
    endloop
  endfacet
  facet normal -0.987688 0.156435 0
    outer loop
      vertex 34 3 0
      vertex 34.1713 4.08156 2.49
      vertex 34.1713 4.08156 0
    endloop
  endfacet
  facet normal -0.987688 0.156435 0
    outer loop
      vertex 34.1713 4.08156 2.49
      vertex 34 3 0
      vertex 34 3 2.49
    endloop
  endfacet
  facet normal -0.987689 -0.156433 0
    outer loop
      vertex 34.1584 2 0
      vertex 34 3 2.49
      vertex 34 3 0
    endloop
  endfacet
  facet normal -0.987689 -0.156433 0
    outer loop
      vertex 34 3 2.49
      vertex 34.1584 2 0
      vertex 34.1584 2 2.49
    endloop
  endfacet
  facet normal 1 -0 0
    outer loop
      vertex 2.5 2 2.49
      vertex 2.5 2.5 0
      vertex 2.5 2.5 2.49
    endloop
  endfacet
  facet normal 1 0 0
    outer loop
      vertex 2.5 2.5 0
      vertex 2.5 2 2.49
      vertex 2.5 2 0
    endloop
  endfacet
  facet normal -1 0 0
    outer loop
      vertex 39 6.11549 0
      vertex 39 17.5 2.49
      vertex 39 17.5 0
    endloop
  endfacet
  facet normal -1 -0 0
    outer loop
      vertex 39 17.5 2.49
      vertex 39 6.11549 0
      vertex 39 6.11549 2.49
    endloop
  endfacet
  facet normal 0 -1 0
    outer loop
      vertex 2.51 17.5 0
      vertex 39 17.5 2.49
      vertex 2.51 17.5 2.49
    endloop
  endfacet
  facet normal 0 -1 -0
    outer loop
      vertex 39 17.5 2.49
      vertex 2.51 17.5 0
      vertex 39 17.5 0
    endloop
  endfacet
  facet normal 0 0 1
    outer loop
      vertex 39 17.5 0
      vertex 38.5816 6.3287 0
      vertex 39 6.11549 0
    endloop
  endfacet
  facet normal 0 0 1
    outer loop
      vertex 39 17.5 0
      vertex 37.5 6.5 0
      vertex 38.5816 6.3287 0
    endloop
  endfacet
  facet normal 0 0 1
    outer loop
      vertex 39 17.5 0
      vertex 36.4184 6.3287 0
      vertex 37.5 6.5 0
    endloop
  endfacet
  facet normal 0 0 1
    outer loop
      vertex 39 17.5 0
      vertex 35.4427 5.83156 0
      vertex 36.4184 6.3287 0
    endloop
  endfacet
  facet normal 0 0 1
    outer loop
      vertex 39 17.5 0
      vertex 34.6684 5.05725 0
      vertex 35.4427 5.83156 0
    endloop
  endfacet
  facet normal 0 0 1
    outer loop
      vertex 12.3316 5.05725 0
      vertex 34.6684 5.05725 0
      vertex 39 17.5 0
    endloop
  endfacet
  facet normal 0 0 1
    outer loop
      vertex 34.1713 4.08156 0
      vertex 13 3 0
      vertex 34 3 0
    endloop
  endfacet
  facet normal 0 0 1
    outer loop
      vertex 34.6684 5.05725 0
      vertex 12.3316 5.05725 0
      vertex 34.1713 4.08156 0
    endloop
  endfacet
  facet normal 0 0 1
    outer loop
      vertex 34.1713 4.08156 0
      vertex 12.8287 4.08156 0
      vertex 13 3 0
    endloop
  endfacet
  facet normal 0 0 1
    outer loop
      vertex 34.1713 4.08156 0
      vertex 12.3316 5.05725 0
      vertex 12.8287 4.08156 0
    endloop
  endfacet
  facet normal 0 0 1
    outer loop
      vertex 39 17.5 0
      vertex 11.5572 5.83156 0
      vertex 12.3316 5.05725 0
    endloop
  endfacet
  facet normal -0 0 1
    outer loop
      vertex 2.51 17.5 0
      vertex 11.5572 5.83156 0
      vertex 39 17.5 0
    endloop
  endfacet
  facet normal 0 0 1
    outer loop
      vertex 11.5572 5.83156 0
      vertex 2.51 17.5 0
      vertex 10.5816 6.3287 0
    endloop
  endfacet
  facet normal 0 0 1
    outer loop
      vertex 10.5816 6.3287 0
      vertex 2.51 17.5 0
      vertex 9.5 6.5 0
    endloop
  endfacet
  facet normal 0 0 1
    outer loop
      vertex 6.66844 5.05725 0
      vertex 2.51 2.5 0
      vertex 6.1713 4.08156 0
    endloop
  endfacet
  facet normal 0 0 1
    outer loop
      vertex 2.51 2.5 0
      vertex 6.66844 5.05725 0
      vertex 2.51 17.5 0
    endloop
  endfacet
  facet normal 0 0 1
    outer loop
      vertex 7.44275 5.83156 0
      vertex 2.51 17.5 0
      vertex 6.66844 5.05725 0
    endloop
  endfacet
  facet normal 0 0 1
    outer loop
      vertex 8.41844 6.3287 0
      vertex 2.51 17.5 0
      vertex 7.44275 5.83156 0
    endloop
  endfacet
  facet normal 0 0 1
    outer loop
      vertex 9.5 6.5 0
      vertex 2.51 17.5 0
      vertex 8.41844 6.3287 0
    endloop
  endfacet
  facet normal -0 0 1
    outer loop
      vertex 13 3 0
      vertex 34.1584 2 0
      vertex 34 3 0
    endloop
  endfacet
  facet normal 0 0 1
    outer loop
      vertex 34.1584 2 0
      vertex 13 3 0
      vertex 12.8416 2 0
    endloop
  endfacet
  facet normal 0 0 1
    outer loop
      vertex 6.1713 4.08156 0
      vertex 2.51 2.5 0
      vertex 6 3 0
    endloop
  endfacet
  facet normal 0 0 1
    outer loop
      vertex 6 3 0
      vertex 2.51 2.5 0
      vertex 6.15838 2 0
    endloop
  endfacet
  facet normal 0 0 1
    outer loop
      vertex 2.5 2 0
      vertex 2.51 2.5 0
      vertex 2.5 2.5 0
    endloop
  endfacet
  facet normal 0 0 1
    outer loop
      vertex 2.51 2.5 0
      vertex 2.5 2 0
      vertex 6.15838 2 0
    endloop
  endfacet
  facet normal 0 1 -0
    outer loop
      vertex 6.15838 2 0
      vertex 2.5 2 2.49
      vertex 6.15838 2 2.49
    endloop
  endfacet
  facet normal 0 1 0
    outer loop
      vertex 2.5 2 2.49
      vertex 6.15838 2 0
      vertex 2.5 2 0
    endloop
  endfacet
  facet normal 0 1 -0
    outer loop
      vertex 34.1584 2 0
      vertex 12.8416 2 2.49
      vertex 34.1584 2 2.49
    endloop
  endfacet
  facet normal 0 1 0
    outer loop
      vertex 12.8416 2 2.49
      vertex 34.1584 2 0
      vertex 12.8416 2 0
    endloop
  endfacet
  facet normal -0.987688 -0.156435 0
    outer loop
      vertex 10.5 3 -1
      vertex 10.4511 3.30902 2.49
      vertex 10.4511 3.30902 -1
    endloop
  endfacet
  facet normal -0.987688 -0.156435 0
    outer loop
      vertex 10.4511 3.30902 2.49
      vertex 10.5 3 -1
      vertex 10.5 3 2.49
    endloop
  endfacet
  facet normal 0.156434 -0.987688 0
    outer loop
      vertex 9.19098 3.95106 -1
      vertex 9.5 4 2.49
      vertex 9.19098 3.95106 2.49
    endloop
  endfacet
  facet normal 0.156434 -0.987688 0
    outer loop
      vertex 9.5 4 2.49
      vertex 9.19098 3.95106 -1
      vertex 9.5 4 -1
    endloop
  endfacet
  facet normal -0.453992 -0.891006 0
    outer loop
      vertex 9.80902 3.95106 -1
      vertex 10.0878 3.80902 2.49
      vertex 9.80902 3.95106 2.49
    endloop
  endfacet
  facet normal -0.453992 -0.891006 -0
    outer loop
      vertex 10.0878 3.80902 2.49
      vertex 9.80902 3.95106 -1
      vertex 10.0878 3.80902 -1
    endloop
  endfacet
  facet normal -0.891006 -0.453992 0
    outer loop
      vertex 10.4511 3.30902 -1
      vertex 10.309 3.58778 2.49
      vertex 10.309 3.58778 -1
    endloop
  endfacet
  facet normal -0.891006 -0.453992 0
    outer loop
      vertex 10.309 3.58778 2.49
      vertex 10.4511 3.30902 -1
      vertex 10.4511 3.30902 2.49
    endloop
  endfacet
  facet normal -0.156435 -0.987688 0
    outer loop
      vertex 9.5 4 -1
      vertex 9.80902 3.95106 2.49
      vertex 9.5 4 2.49
    endloop
  endfacet
  facet normal -0.156435 -0.987688 -0
    outer loop
      vertex 9.80902 3.95106 2.49
      vertex 9.5 4 -1
      vertex 9.80902 3.95106 -1
    endloop
  endfacet
  facet normal 0.891006 -0.453992 0
    outer loop
      vertex 8.54894 3.30902 2.49
      vertex 8.69098 3.58778 -1
      vertex 8.69098 3.58778 2.49
    endloop
  endfacet
  facet normal 0.891006 -0.453992 0
    outer loop
      vertex 8.69098 3.58778 -1
      vertex 8.54894 3.30902 2.49
      vertex 8.54894 3.30902 -1
    endloop
  endfacet
  facet normal 0.987689 -0.156432 0
    outer loop
      vertex 8.5 3 2.49
      vertex 8.54894 3.30902 -1
      vertex 8.54894 3.30902 2.49
    endloop
  endfacet
  facet normal 0.987689 -0.156432 0
    outer loop
      vertex 8.54894 3.30902 -1
      vertex 8.5 3 2.49
      vertex 8.5 3 -1
    endloop
  endfacet
  facet normal 0.453992 -0.891006 0
    outer loop
      vertex 8.91221 3.80902 -1
      vertex 9.19098 3.95106 2.49
      vertex 8.91221 3.80902 2.49
    endloop
  endfacet
  facet normal 0.453992 -0.891006 0
    outer loop
      vertex 9.19098 3.95106 2.49
      vertex 8.91221 3.80902 -1
      vertex 9.19098 3.95106 -1
    endloop
  endfacet
  facet normal -0.453992 0.891006 0
    outer loop
      vertex 10.0878 2.19098 -1
      vertex 9.80902 2.04894 2.49
      vertex 10.0878 2.19098 2.49
    endloop
  endfacet
  facet normal -0.453992 0.891006 0
    outer loop
      vertex 9.80902 2.04894 2.49
      vertex 10.0878 2.19098 -1
      vertex 9.80902 2.04894 -1
    endloop
  endfacet
  facet normal -0.891006 0.453992 0
    outer loop
      vertex 10.309 2.41221 -1
      vertex 10.4511 2.69098 2.49
      vertex 10.4511 2.69098 -1
    endloop
  endfacet
  facet normal -0.891006 0.453992 0
    outer loop
      vertex 10.4511 2.69098 2.49
      vertex 10.309 2.41221 -1
      vertex 10.309 2.41221 2.49
    endloop
  endfacet
  facet normal -0.987688 0.156434 0
    outer loop
      vertex 10.4511 2.69098 -1
      vertex 10.5 3 2.49
      vertex 10.5 3 -1
    endloop
  endfacet
  facet normal -0.987688 0.156434 0
    outer loop
      vertex 10.5 3 2.49
      vertex 10.4511 2.69098 -1
      vertex 10.4511 2.69098 2.49
    endloop
  endfacet
  facet normal 0.156432 0.987689 -0
    outer loop
      vertex 9.5 2 -1
      vertex 9.19098 2.04894 2.49
      vertex 9.5 2 2.49
    endloop
  endfacet
  facet normal 0.156432 0.987689 0
    outer loop
      vertex 9.19098 2.04894 2.49
      vertex 9.5 2 -1
      vertex 9.19098 2.04894 -1
    endloop
  endfacet
  facet normal 0.891006 0.453992 0
    outer loop
      vertex 8.69098 2.41221 2.49
      vertex 8.54894 2.69098 -1
      vertex 8.54894 2.69098 2.49
    endloop
  endfacet
  facet normal 0.891006 0.453992 0
    outer loop
      vertex 8.54894 2.69098 -1
      vertex 8.69098 2.41221 2.49
      vertex 8.69098 2.41221 -1
    endloop
  endfacet
  facet normal -0.707107 -0.707107 0
    outer loop
      vertex 10.309 3.58778 -1
      vertex 10.0878 3.80902 2.49
      vertex 10.0878 3.80902 -1
    endloop
  endfacet
  facet normal -0.707107 -0.707107 0
    outer loop
      vertex 10.0878 3.80902 2.49
      vertex 10.309 3.58778 -1
      vertex 10.309 3.58778 2.49
    endloop
  endfacet
  facet normal 0.987689 0.156432 0
    outer loop
      vertex 8.54894 2.69098 2.49
      vertex 8.5 3 -1
      vertex 8.5 3 2.49
    endloop
  endfacet
  facet normal 0.987689 0.156432 0
    outer loop
      vertex 8.5 3 -1
      vertex 8.54894 2.69098 2.49
      vertex 8.54894 2.69098 -1
    endloop
  endfacet
  facet normal 0.707107 -0.707107 0
    outer loop
      vertex 8.69098 3.58778 2.49
      vertex 8.91221 3.80902 -1
      vertex 8.91221 3.80902 2.49
    endloop
  endfacet
  facet normal 0.707107 -0.707107 0
    outer loop
      vertex 8.91221 3.80902 -1
      vertex 8.69098 3.58778 2.49
      vertex 8.69098 3.58778 -1
    endloop
  endfacet
  facet normal -0.707107 0.707107 0
    outer loop
      vertex 10.0878 2.19098 -1
      vertex 10.309 2.41221 2.49
      vertex 10.309 2.41221 -1
    endloop
  endfacet
  facet normal -0.707107 0.707107 0
    outer loop
      vertex 10.309 2.41221 2.49
      vertex 10.0878 2.19098 -1
      vertex 10.0878 2.19098 2.49
    endloop
  endfacet
  facet normal -0.156432 0.987689 0
    outer loop
      vertex 9.80902 2.04894 -1
      vertex 9.5 2 2.49
      vertex 9.80902 2.04894 2.49
    endloop
  endfacet
  facet normal -0.156432 0.987689 0
    outer loop
      vertex 9.5 2 2.49
      vertex 9.80902 2.04894 -1
      vertex 9.5 2 -1
    endloop
  endfacet
  facet normal 0.707107 0.707107 0
    outer loop
      vertex 8.91221 2.19098 2.49
      vertex 8.69098 2.41221 -1
      vertex 8.69098 2.41221 2.49
    endloop
  endfacet
  facet normal 0.707107 0.707107 0
    outer loop
      vertex 8.69098 2.41221 -1
      vertex 8.91221 2.19098 2.49
      vertex 8.91221 2.19098 -1
    endloop
  endfacet
  facet normal 0.453992 0.891006 -0
    outer loop
      vertex 9.19098 2.04894 -1
      vertex 8.91221 2.19098 2.49
      vertex 9.19098 2.04894 2.49
    endloop
  endfacet
  facet normal 0.453992 0.891006 0
    outer loop
      vertex 8.91221 2.19098 2.49
      vertex 9.19098 2.04894 -1
      vertex 8.91221 2.19098 -1
    endloop
  endfacet
  facet normal -0.987689 -0.156432 0
    outer loop
      vertex 38.5 3 -1
      vertex 38.4511 3.30902 2.49
      vertex 38.4511 3.30902 -1
    endloop
  endfacet
  facet normal -0.987689 -0.156432 0
    outer loop
      vertex 38.4511 3.30902 2.49
      vertex 38.5 3 -1
      vertex 38.5 3 2.49
    endloop
  endfacet
  facet normal 0.156434 -0.987688 0
    outer loop
      vertex 37.191 3.95106 -1
      vertex 37.5 4 2.49
      vertex 37.191 3.95106 2.49
    endloop
  endfacet
  facet normal 0.156434 -0.987688 0
    outer loop
      vertex 37.5 4 2.49
      vertex 37.191 3.95106 -1
      vertex 37.5 4 -1
    endloop
  endfacet
  facet normal -0.156432 0.987689 0
    outer loop
      vertex 37.809 2.04894 -1
      vertex 37.5 2 2.49
      vertex 37.809 2.04894 2.49
    endloop
  endfacet
  facet normal -0.156432 0.987689 0
    outer loop
      vertex 37.5 2 2.49
      vertex 37.809 2.04894 -1
      vertex 37.5 2 -1
    endloop
  endfacet
  facet normal 0.453994 0.891005 -0
    outer loop
      vertex 37.191 2.04894 -1
      vertex 36.9122 2.19098 2.49
      vertex 37.191 2.04894 2.49
    endloop
  endfacet
  facet normal 0.453994 0.891005 0
    outer loop
      vertex 36.9122 2.19098 2.49
      vertex 37.191 2.04894 -1
      vertex 36.9122 2.19098 -1
    endloop
  endfacet
  facet normal -0.453994 -0.891005 0
    outer loop
      vertex 37.809 3.95106 -1
      vertex 38.0878 3.80902 2.49
      vertex 37.809 3.95106 2.49
    endloop
  endfacet
  facet normal -0.453994 -0.891005 -0
    outer loop
      vertex 38.0878 3.80902 2.49
      vertex 37.809 3.95106 -1
      vertex 38.0878 3.80902 -1
    endloop
  endfacet
  facet normal -0.891006 -0.453992 0
    outer loop
      vertex 38.4511 3.30902 -1
      vertex 38.309 3.58778 2.49
      vertex 38.309 3.58778 -1
    endloop
  endfacet
  facet normal -0.891006 -0.453992 0
    outer loop
      vertex 38.309 3.58778 2.49
      vertex 38.4511 3.30902 -1
      vertex 38.4511 3.30902 2.49
    endloop
  endfacet
  facet normal -0.156434 -0.987688 0
    outer loop
      vertex 37.5 4 -1
      vertex 37.809 3.95106 2.49
      vertex 37.5 4 2.49
    endloop
  endfacet
  facet normal -0.156434 -0.987688 -0
    outer loop
      vertex 37.809 3.95106 2.49
      vertex 37.5 4 -1
      vertex 37.809 3.95106 -1
    endloop
  endfacet
  facet normal 0.891006 -0.453992 0
    outer loop
      vertex 36.5489 3.30902 2.49
      vertex 36.691 3.58778 -1
      vertex 36.691 3.58778 2.49
    endloop
  endfacet
  facet normal 0.891006 -0.453992 0
    outer loop
      vertex 36.691 3.58778 -1
      vertex 36.5489 3.30902 2.49
      vertex 36.5489 3.30902 -1
    endloop
  endfacet
  facet normal 0.987689 -0.156432 0
    outer loop
      vertex 36.5 3 2.49
      vertex 36.5489 3.30902 -1
      vertex 36.5489 3.30902 2.49
    endloop
  endfacet
  facet normal 0.987689 -0.156432 0
    outer loop
      vertex 36.5489 3.30902 -1
      vertex 36.5 3 2.49
      vertex 36.5 3 -1
    endloop
  endfacet
  facet normal 0.453994 -0.891005 0
    outer loop
      vertex 36.9122 3.80902 -1
      vertex 37.191 3.95106 2.49
      vertex 36.9122 3.80902 2.49
    endloop
  endfacet
  facet normal 0.453994 -0.891005 0
    outer loop
      vertex 37.191 3.95106 2.49
      vertex 36.9122 3.80902 -1
      vertex 37.191 3.95106 -1
    endloop
  endfacet
  facet normal -0.453994 0.891005 0
    outer loop
      vertex 38.0878 2.19098 -1
      vertex 37.809 2.04894 2.49
      vertex 38.0878 2.19098 2.49
    endloop
  endfacet
  facet normal -0.453994 0.891005 0
    outer loop
      vertex 37.809 2.04894 2.49
      vertex 38.0878 2.19098 -1
      vertex 37.809 2.04894 -1
    endloop
  endfacet
  facet normal -0.987689 0.156432 0
    outer loop
      vertex 38.4511 2.69098 -1
      vertex 38.5 3 2.49
      vertex 38.5 3 -1
    endloop
  endfacet
  facet normal -0.987689 0.156432 0
    outer loop
      vertex 38.5 3 2.49
      vertex 38.4511 2.69098 -1
      vertex 38.4511 2.69098 2.49
    endloop
  endfacet
  facet normal 0.156432 0.987689 -0
    outer loop
      vertex 37.5 2 -1
      vertex 37.191 2.04894 2.49
      vertex 37.5 2 2.49
    endloop
  endfacet
  facet normal 0.156432 0.987689 0
    outer loop
      vertex 37.191 2.04894 2.49
      vertex 37.5 2 -1
      vertex 37.191 2.04894 -1
    endloop
  endfacet
  facet normal 0.891006 0.453992 0
    outer loop
      vertex 36.691 2.41221 2.49
      vertex 36.5489 2.69098 -1
      vertex 36.5489 2.69098 2.49
    endloop
  endfacet
  facet normal 0.891006 0.453992 0
    outer loop
      vertex 36.5489 2.69098 -1
      vertex 36.691 2.41221 2.49
      vertex 36.691 2.41221 -1
    endloop
  endfacet
  facet normal -0.707104 -0.70711 0
    outer loop
      vertex 38.0878 3.80902 -1
      vertex 38.309 3.58778 2.49
      vertex 38.0878 3.80902 2.49
    endloop
  endfacet
  facet normal -0.707104 -0.70711 -0
    outer loop
      vertex 38.309 3.58778 2.49
      vertex 38.0878 3.80902 -1
      vertex 38.309 3.58778 -1
    endloop
  endfacet
  facet normal 0.987689 0.156432 0
    outer loop
      vertex 36.5489 2.69098 2.49
      vertex 36.5 3 -1
      vertex 36.5 3 2.49
    endloop
  endfacet
  facet normal 0.987689 0.156432 0
    outer loop
      vertex 36.5 3 -1
      vertex 36.5489 2.69098 2.49
      vertex 36.5489 2.69098 -1
    endloop
  endfacet
  facet normal 0.707104 -0.70711 0
    outer loop
      vertex 36.691 3.58778 -1
      vertex 36.9122 3.80902 2.49
      vertex 36.691 3.58778 2.49
    endloop
  endfacet
  facet normal 0.707104 -0.70711 0
    outer loop
      vertex 36.9122 3.80902 2.49
      vertex 36.691 3.58778 -1
      vertex 36.9122 3.80902 -1
    endloop
  endfacet
  facet normal -0.707104 0.70711 0
    outer loop
      vertex 38.309 2.41221 -1
      vertex 38.0878 2.19098 2.49
      vertex 38.309 2.41221 2.49
    endloop
  endfacet
  facet normal -0.707104 0.70711 0
    outer loop
      vertex 38.0878 2.19098 2.49
      vertex 38.309 2.41221 -1
      vertex 38.0878 2.19098 -1
    endloop
  endfacet
  facet normal 0.707104 0.70711 -0
    outer loop
      vertex 36.9122 2.19098 -1
      vertex 36.691 2.41221 2.49
      vertex 36.9122 2.19098 2.49
    endloop
  endfacet
  facet normal 0.707104 0.70711 0
    outer loop
      vertex 36.691 2.41221 2.49
      vertex 36.9122 2.19098 -1
      vertex 36.691 2.41221 -1
    endloop
  endfacet
  facet normal -0.891006 0.453992 0
    outer loop
      vertex 38.309 2.41221 -1
      vertex 38.4511 2.69098 2.49
      vertex 38.4511 2.69098 -1
    endloop
  endfacet
  facet normal -0.891006 0.453992 0
    outer loop
      vertex 38.4511 2.69098 2.49
      vertex 38.309 2.41221 -1
      vertex 38.309 2.41221 2.49
    endloop
  endfacet
  facet normal 1 -0 0
    outer loop
      vertex 2 -0.5 4.5
      vertex 2 2.5 2.49
      vertex 2 2.5 4.5
    endloop
  endfacet
  facet normal 1 0 0
    outer loop
      vertex 2 2.5 2.49
      vertex 2 -0.5 4.5
      vertex 2 -0.5 2.49
    endloop
  endfacet
  facet normal -1 0 0
    outer loop
      vertex 41 -0.5 2.49
      vertex 41 19.5 4.5
      vertex 41 19.5 2.49
    endloop
  endfacet
  facet normal -1 -0 0
    outer loop
      vertex 41 19.5 4.5
      vertex 41 -0.5 2.49
      vertex 41 -0.5 4.5
    endloop
  endfacet
  facet normal 0 -1 0
    outer loop
      vertex 1 19.5 4.5
      vertex 2.51 19.5 2.49
      vertex 41 19.5 4.5
    endloop
  endfacet
  facet normal 0 -1 0
    outer loop
      vertex 1 19.5 -1
      vertex 2.51 19.5 2.49
      vertex 1 19.5 4.5
    endloop
  endfacet
  facet normal 0 -1 -0
    outer loop
      vertex 2.51 19.5 2.49
      vertex 1 19.5 -1
      vertex 2.51 19.5 -1
    endloop
  endfacet
  facet normal 0 -1 -0
    outer loop
      vertex 41 19.5 4.5
      vertex 2.51 19.5 2.49
      vertex 41 19.5 2.49
    endloop
  endfacet
  facet normal 0 0 1
    outer loop
      vertex 2.5 2.5 2.49
      vertex 2 2.5 2.49
      vertex 2.5 2 2.49
    endloop
  endfacet
  facet normal 0 0 1
    outer loop
      vertex 8.5 3 2.49
      vertex 6 3 2.49
      vertex 6.15838 2 2.49
    endloop
  endfacet
  facet normal 0 0 1
    outer loop
      vertex 10.5 3 2.49
      vertex 13 3 2.49
      vertex 12.8287 4.08156 2.49
    endloop
  endfacet
  facet normal 0 0 1
    outer loop
      vertex 36.5 3 2.49
      vertex 34 3 2.49
      vertex 34.1584 2 2.49
    endloop
  endfacet
  facet normal 0 0 1
    outer loop
      vertex 12.8287 4.08156 2.49
      vertex 10.4511 3.30902 2.49
      vertex 10.5 3 2.49
    endloop
  endfacet
  facet normal 0 0 1
    outer loop
      vertex 11.5572 5.83156 2.49
      vertex 10.309 3.58778 2.49
      vertex 10.4511 3.30902 2.49
    endloop
  endfacet
  facet normal 0 0 1
    outer loop
      vertex 11.5572 5.83156 2.49
      vertex 10.0878 3.80902 2.49
      vertex 10.309 3.58778 2.49
    endloop
  endfacet
  facet normal 0 0 1
    outer loop
      vertex 10.5816 6.3287 2.49
      vertex 9.80902 3.95106 2.49
      vertex 10.0878 3.80902 2.49
    endloop
  endfacet
  facet normal 0 0 1
    outer loop
      vertex 9.5 6.5 2.49
      vertex 9.80902 3.95106 2.49
      vertex 10.5816 6.3287 2.49
    endloop
  endfacet
  facet normal 0 0 1
    outer loop
      vertex 9.5 6.5 2.49
      vertex 9.5 4 2.49
      vertex 9.80902 3.95106 2.49
    endloop
  endfacet
  facet normal 0 0 1
    outer loop
      vertex 9.5 6.5 2.49
      vertex 9.19098 3.95106 2.49
      vertex 9.5 4 2.49
    endloop
  endfacet
  facet normal -0 0 1
    outer loop
      vertex 8.41844 6.3287 2.49
      vertex 9.19098 3.95106 2.49
      vertex 9.5 6.5 2.49
    endloop
  endfacet
  facet normal 0 0 1
    outer loop
      vertex 9.19098 3.95106 2.49
      vertex 8.41844 6.3287 2.49
      vertex 8.91221 3.80902 2.49
    endloop
  endfacet
  facet normal -0 0 1
    outer loop
      vertex 7.44275 5.83156 2.49
      vertex 8.91221 3.80902 2.49
      vertex 8.41844 6.3287 2.49
    endloop
  endfacet
  facet normal -0 0 1
    outer loop
      vertex 6.66844 5.05725 2.49
      vertex 8.69098 3.58778 2.49
      vertex 7.44275 5.83156 2.49
    endloop
  endfacet
  facet normal 0 0 1
    outer loop
      vertex 8.91221 3.80902 2.49
      vertex 7.44275 5.83156 2.49
      vertex 8.69098 3.58778 2.49
    endloop
  endfacet
  facet normal 0 0 1
    outer loop
      vertex 39 6.11549 2.49
      vertex 38.4511 3.30902 2.49
      vertex 38.5 3 2.49
    endloop
  endfacet
  facet normal 0 0 1
    outer loop
      vertex 39 6.11549 2.49
      vertex 38.309 3.58778 2.49
      vertex 38.4511 3.30902 2.49
    endloop
  endfacet
  facet normal 0 0 1
    outer loop
      vertex 39 6.11549 2.49
      vertex 38.0878 3.80902 2.49
      vertex 38.309 3.58778 2.49
    endloop
  endfacet
  facet normal 0 0 1
    outer loop
      vertex 39 6.11549 2.49
      vertex 37.809 3.95106 2.49
      vertex 38.0878 3.80902 2.49
    endloop
  endfacet
  facet normal 0 0 1
    outer loop
      vertex 37.5 6.5 2.49
      vertex 37.809 3.95106 2.49
      vertex 38.5816 6.3287 2.49
    endloop
  endfacet
  facet normal 0 0 1
    outer loop
      vertex 37.5 6.5 2.49
      vertex 37.5 4 2.49
      vertex 37.809 3.95106 2.49
    endloop
  endfacet
  facet normal 0 0 1
    outer loop
      vertex 37.5 6.5 2.49
      vertex 37.191 3.95106 2.49
      vertex 37.5 4 2.49
    endloop
  endfacet
  facet normal -0 0 1
    outer loop
      vertex 36.4184 6.3287 2.49
      vertex 37.191 3.95106 2.49
      vertex 37.5 6.5 2.49
    endloop
  endfacet
  facet normal 0 0 1
    outer loop
      vertex 37.191 3.95106 2.49
      vertex 36.4184 6.3287 2.49
      vertex 36.9122 3.80902 2.49
    endloop
  endfacet
  facet normal -0 0 1
    outer loop
      vertex 35.4427 5.83156 2.49
      vertex 36.9122 3.80902 2.49
      vertex 36.4184 6.3287 2.49
    endloop
  endfacet
  facet normal -0 0 1
    outer loop
      vertex 34.6684 5.05725 2.49
      vertex 36.691 3.58778 2.49
      vertex 35.4427 5.83156 2.49
    endloop
  endfacet
  facet normal 0 0 1
    outer loop
      vertex 36.9122 3.80902 2.49
      vertex 35.4427 5.83156 2.49
      vertex 36.691 3.58778 2.49
    endloop
  endfacet
  facet normal 0 0 1
    outer loop
      vertex 39 6.11549 2.49
      vertex 41 19.5 2.49
      vertex 39 17.5 2.49
    endloop
  endfacet
  facet normal -0 0 1
    outer loop
      vertex 2.51 19.5 2.49
      vertex 39 17.5 2.49
      vertex 41 19.5 2.49
    endloop
  endfacet
  facet normal 0 0 1
    outer loop
      vertex 39 17.5 2.49
      vertex 2.51 19.5 2.49
      vertex 2.51 17.5 2.49
    endloop
  endfacet
  facet normal 0 0 1
    outer loop
      vertex 41 19.5 2.49
      vertex 39 6.11549 2.49
      vertex 41 -0.5 2.49
    endloop
  endfacet
  facet normal 0 0 1
    outer loop
      vertex 37.809 3.95106 2.49
      vertex 39 6.11549 2.49
      vertex 38.5816 6.3287 2.49
    endloop
  endfacet
  facet normal 0 0 1
    outer loop
      vertex 39 6.11549 2.49
      vertex 38.5 3 2.49
      vertex 41 -0.5 2.49
    endloop
  endfacet
  facet normal -0 0 1
    outer loop
      vertex 38.4511 2.69098 2.49
      vertex 41 -0.5 2.49
      vertex 38.5 3 2.49
    endloop
  endfacet
  facet normal -0 0 1
    outer loop
      vertex 38.309 2.41221 2.49
      vertex 41 -0.5 2.49
      vertex 38.4511 2.69098 2.49
    endloop
  endfacet
  facet normal -0 0 1
    outer loop
      vertex 38.0878 2.19098 2.49
      vertex 41 -0.5 2.49
      vertex 38.309 2.41221 2.49
    endloop
  endfacet
  facet normal -0 0 1
    outer loop
      vertex 37.809 2.04894 2.49
      vertex 41 -0.5 2.49
      vertex 38.0878 2.19098 2.49
    endloop
  endfacet
  facet normal -0 0 1
    outer loop
      vertex 37.5 2 2.49
      vertex 41 -0.5 2.49
      vertex 37.809 2.04894 2.49
    endloop
  endfacet
  facet normal 0 0 1
    outer loop
      vertex 37.191 2.04894 2.49
      vertex 41 -0.5 2.49
      vertex 37.5 2 2.49
    endloop
  endfacet
  facet normal 0 0 1
    outer loop
      vertex 34.1584 2 2.49
      vertex 37.191 2.04894 2.49
      vertex 36.9122 2.19098 2.49
    endloop
  endfacet
  facet normal 0 0 1
    outer loop
      vertex 36.691 3.58778 2.49
      vertex 34.6684 5.05725 2.49
      vertex 36.5489 3.30902 2.49
    endloop
  endfacet
  facet normal -0 0 1
    outer loop
      vertex 34.1713 4.08156 2.49
      vertex 36.5489 3.30902 2.49
      vertex 34.6684 5.05725 2.49
    endloop
  endfacet
  facet normal 0 0 1
    outer loop
      vertex 36.5489 3.30902 2.49
      vertex 34.1713 4.08156 2.49
      vertex 36.5 3 2.49
    endloop
  endfacet
  facet normal 0 0 1
    outer loop
      vertex 34 3 2.49
      vertex 36.5 3 2.49
      vertex 34.1713 4.08156 2.49
    endloop
  endfacet
  facet normal 0 0 1
    outer loop
      vertex 36.5 3 2.49
      vertex 34.1584 2 2.49
      vertex 36.5489 2.69098 2.49
    endloop
  endfacet
  facet normal 0 0 1
    outer loop
      vertex 36.5489 2.69098 2.49
      vertex 34.1584 2 2.49
      vertex 36.691 2.41221 2.49
    endloop
  endfacet
  facet normal 0 0 1
    outer loop
      vertex 36.691 2.41221 2.49
      vertex 34.1584 2 2.49
      vertex 36.9122 2.19098 2.49
    endloop
  endfacet
  facet normal 0 0 1
    outer loop
      vertex 37.191 2.04894 2.49
      vertex 34.1584 2 2.49
      vertex 41 -0.5 2.49
    endloop
  endfacet
  facet normal -0 0 1
    outer loop
      vertex 12.8416 2 2.49
      vertex 41 -0.5 2.49
      vertex 34.1584 2 2.49
    endloop
  endfacet
  facet normal 0 0 1
    outer loop
      vertex 10.4511 3.30902 2.49
      vertex 12.8287 4.08156 2.49
      vertex 12.3316 5.05725 2.49
    endloop
  endfacet
  facet normal 0 0 1
    outer loop
      vertex 10.4511 3.30902 2.49
      vertex 12.3316 5.05725 2.49
      vertex 11.5572 5.83156 2.49
    endloop
  endfacet
  facet normal 0 0 1
    outer loop
      vertex 10.0878 3.80902 2.49
      vertex 11.5572 5.83156 2.49
      vertex 10.5816 6.3287 2.49
    endloop
  endfacet
  facet normal 0 0 1
    outer loop
      vertex 13 3 2.49
      vertex 10.5 3 2.49
      vertex 12.8416 2 2.49
    endloop
  endfacet
  facet normal -0 0 1
    outer loop
      vertex 10.4511 2.69098 2.49
      vertex 12.8416 2 2.49
      vertex 10.5 3 2.49
    endloop
  endfacet
  facet normal -0 0 1
    outer loop
      vertex 10.309 2.41221 2.49
      vertex 12.8416 2 2.49
      vertex 10.4511 2.69098 2.49
    endloop
  endfacet
  facet normal -0 0 1
    outer loop
      vertex 10.0878 2.19098 2.49
      vertex 12.8416 2 2.49
      vertex 10.309 2.41221 2.49
    endloop
  endfacet
  facet normal -0 0 1
    outer loop
      vertex 9.80902 2.04894 2.49
      vertex 12.8416 2 2.49
      vertex 10.0878 2.19098 2.49
    endloop
  endfacet
  facet normal 0 0 1
    outer loop
      vertex 9.5 2 2.49
      vertex 12.8416 2 2.49
      vertex 9.80902 2.04894 2.49
    endloop
  endfacet
  facet normal 0 0 1
    outer loop
      vertex 12.8416 2 2.49
      vertex 9.5 2 2.49
      vertex 2 -0.5 2.49
    endloop
  endfacet
  facet normal 0 0 1
    outer loop
      vertex 8.69098 3.58778 2.49
      vertex 6.66844 5.05725 2.49
      vertex 8.54894 3.30902 2.49
    endloop
  endfacet
  facet normal -0 0 1
    outer loop
      vertex 6.1713 4.08156 2.49
      vertex 8.54894 3.30902 2.49
      vertex 6.66844 5.05725 2.49
    endloop
  endfacet
  facet normal 0 0 1
    outer loop
      vertex 8.54894 3.30902 2.49
      vertex 6.1713 4.08156 2.49
      vertex 8.5 3 2.49
    endloop
  endfacet
  facet normal 0 0 1
    outer loop
      vertex 6 3 2.49
      vertex 8.5 3 2.49
      vertex 6.1713 4.08156 2.49
    endloop
  endfacet
  facet normal 0 0 1
    outer loop
      vertex 8.5 3 2.49
      vertex 6.15838 2 2.49
      vertex 8.54894 2.69098 2.49
    endloop
  endfacet
  facet normal 0 0 1
    outer loop
      vertex 8.54894 2.69098 2.49
      vertex 6.15838 2 2.49
      vertex 8.69098 2.41221 2.49
    endloop
  endfacet
  facet normal 0 0 1
    outer loop
      vertex 8.69098 2.41221 2.49
      vertex 6.15838 2 2.49
      vertex 8.91221 2.19098 2.49
    endloop
  endfacet
  facet normal 0 0 1
    outer loop
      vertex 6.15838 2 2.49
      vertex 9.19098 2.04894 2.49
      vertex 8.91221 2.19098 2.49
    endloop
  endfacet
  facet normal 0 0 1
    outer loop
      vertex 2 -0.5 2.49
      vertex 9.19098 2.04894 2.49
      vertex 6.15838 2 2.49
    endloop
  endfacet
  facet normal 0 0 1
    outer loop
      vertex 9.19098 2.04894 2.49
      vertex 2 -0.5 2.49
      vertex 9.5 2 2.49
    endloop
  endfacet
  facet normal 0 0 1
    outer loop
      vertex 2 -0.5 2.49
      vertex 6.15838 2 2.49
      vertex 2.5 2 2.49
    endloop
  endfacet
  facet normal 0 0 1
    outer loop
      vertex 12.8416 2 2.49
      vertex 2 -0.5 2.49
      vertex 41 -0.5 2.49
    endloop
  endfacet
  facet normal 0 0 1
    outer loop
      vertex 2 -0.5 2.49
      vertex 2.5 2 2.49
      vertex 2 2.5 2.49
    endloop
  endfacet
  facet normal 0 1 -0
    outer loop
      vertex 41 -0.5 2.49
      vertex 2 -0.5 4.5
      vertex 41 -0.5 4.5
    endloop
  endfacet
  facet normal 0 1 0
    outer loop
      vertex 2 -0.5 4.5
      vertex 41 -0.5 2.49
      vertex 2 -0.5 2.49
    endloop
  endfacet
  facet normal -1 0 0
    outer loop
      vertex 2.51 19.5 -1
      vertex 2.51 17.5 0
      vertex 2.51 19.5 2.49
    endloop
  endfacet
  facet normal -1 0 0
    outer loop
      vertex 2.51 2.5 -1
      vertex 2.51 17.5 0
      vertex 2.51 19.5 -1
    endloop
  endfacet
  facet normal -1 -0 0
    outer loop
      vertex 2.51 17.5 0
      vertex 2.51 2.5 -1
      vertex 2.51 2.5 0
    endloop
  endfacet
  facet normal -1 -0 0
    outer loop
      vertex 2.51 19.5 2.49
      vertex 2.51 17.5 0
      vertex 2.51 17.5 2.49
    endloop
  endfacet
  facet normal 0 1 0
    outer loop
      vertex 2.51 2.5 0
      vertex 2.51 2.5 -1
      vertex 2.5 2.5 0
    endloop
  endfacet
  facet normal 0 1 0
    outer loop
      vertex 2.5 2.5 2.49
      vertex 2.5 2.5 0
      vertex 2 2.5 2.49
    endloop
  endfacet
  facet normal 0 1 -0
    outer loop
      vertex 2 2.5 2.49
      vertex 1 2.5 4.5
      vertex 2 2.5 4.5
    endloop
  endfacet
  facet normal 0 1 0
    outer loop
      vertex 1 2.5 -1
      vertex 2 2.5 2.49
      vertex 2.5 2.5 0
    endloop
  endfacet
  facet normal 0 1 0
    outer loop
      vertex 1 2.5 -1
      vertex 2.5 2.5 0
      vertex 2.51 2.5 -1
    endloop
  endfacet
  facet normal 0 1 0
    outer loop
      vertex 2 2.5 2.49
      vertex 1 2.5 -1
      vertex 1 2.5 4.5
    endloop
  endfacet
  facet normal -1 0 0
    outer loop
      vertex 1 -1.5 -1
      vertex 1 2.5 4.5
      vertex 1 2.5 -1
    endloop
  endfacet
  facet normal -1 -0 0
    outer loop
      vertex 1 2.5 4.5
      vertex 1 -1.5 -1
      vertex 1 -1.5 4.5
    endloop
  endfacet
  facet normal -1 0 0
    outer loop
      vertex 1 19.5 -1
      vertex 1 20.5 4.5
      vertex 1 20.5 -1
    endloop
  endfacet
  facet normal -1 -0 0
    outer loop
      vertex 1 20.5 4.5
      vertex 1 19.5 -1
      vertex 1 19.5 4.5
    endloop
  endfacet
  facet normal 0 0 1
    outer loop
      vertex 2 2.5 4.5
      vertex 1 2.5 4.5
      vertex 2 -0.5 4.5
    endloop
  endfacet
  facet normal 0 0 1
    outer loop
      vertex 42 20.5 4.5
      vertex 41 19.5 4.5
      vertex 42 -1.5 4.5
    endloop
  endfacet
  facet normal -0 0 1
    outer loop
      vertex 1 20.5 4.5
      vertex 41 19.5 4.5
      vertex 42 20.5 4.5
    endloop
  endfacet
  facet normal 0 0 1
    outer loop
      vertex 41 19.5 4.5
      vertex 1 20.5 4.5
      vertex 1 19.5 4.5
    endloop
  endfacet
  facet normal -0 0 1
    outer loop
      vertex 41 -0.5 4.5
      vertex 42 -1.5 4.5
      vertex 41 19.5 4.5
    endloop
  endfacet
  facet normal -0 0 1
    outer loop
      vertex 2 -0.5 4.5
      vertex 42 -1.5 4.5
      vertex 41 -0.5 4.5
    endloop
  endfacet
  facet normal 0 0 1
    outer loop
      vertex 2 -0.5 4.5
      vertex 1 -1.5 4.5
      vertex 42 -1.5 4.5
    endloop
  endfacet
  facet normal 0 0 1
    outer loop
      vertex 1 -1.5 4.5
      vertex 2 -0.5 4.5
      vertex 1 2.5 4.5
    endloop
  endfacet
  facet normal 1 -0 0
    outer loop
      vertex 42 -1.5 4.5
      vertex 42 20.5 -1
      vertex 42 20.5 4.5
    endloop
  endfacet
  facet normal 1 0 0
    outer loop
      vertex 42 20.5 -1
      vertex 42 -1.5 4.5
      vertex 42 -1.5 -1
    endloop
  endfacet
  facet normal 0 0 -1
    outer loop
      vertex 38.4511 3.30902 -1
      vertex 42 -1.5 -1
      vertex 38.5 3 -1
    endloop
  endfacet
  facet normal 0 0 -1
    outer loop
      vertex 42 -1.5 -1
      vertex 38.4511 2.69098 -1
      vertex 38.5 3 -1
    endloop
  endfacet
  facet normal 0 0 -1
    outer loop
      vertex 42 -1.5 -1
      vertex 38.309 2.41221 -1
      vertex 38.4511 2.69098 -1
    endloop
  endfacet
  facet normal 0 0 -1
    outer loop
      vertex 42 -1.5 -1
      vertex 38.0878 2.19098 -1
      vertex 38.309 2.41221 -1
    endloop
  endfacet
  facet normal 0 0 -1
    outer loop
      vertex 42 -1.5 -1
      vertex 37.809 2.04894 -1
      vertex 38.0878 2.19098 -1
    endloop
  endfacet
  facet normal 0 0 -1
    outer loop
      vertex 42 -1.5 -1
      vertex 37.5 2 -1
      vertex 37.809 2.04894 -1
    endloop
  endfacet
  facet normal 0 0 -1
    outer loop
      vertex 42 -1.5 -1
      vertex 37.191 2.04894 -1
      vertex 37.5 2 -1
    endloop
  endfacet
  facet normal 0 0 -1
    outer loop
      vertex 42 -1.5 -1
      vertex 36.9122 2.19098 -1
      vertex 37.191 2.04894 -1
    endloop
  endfacet
  facet normal 0 0 -1
    outer loop
      vertex 36.5489 2.69098 -1
      vertex 10.5 3 -1
      vertex 36.5 3 -1
    endloop
  endfacet
  facet normal 0 0 -1
    outer loop
      vertex 10.4511 2.69098 -1
      vertex 36.5489 2.69098 -1
      vertex 36.691 2.41221 -1
    endloop
  endfacet
  facet normal 0 0 -1
    outer loop
      vertex 10.309 2.41221 -1
      vertex 36.691 2.41221 -1
      vertex 36.9122 2.19098 -1
    endloop
  endfacet
  facet normal 0 0 -1
    outer loop
      vertex 10.0878 2.19098 -1
      vertex 36.9122 2.19098 -1
      vertex 42 -1.5 -1
    endloop
  endfacet
  facet normal 0 0 -1
    outer loop
      vertex 36.5489 2.69098 -1
      vertex 10.4511 2.69098 -1
      vertex 10.5 3 -1
    endloop
  endfacet
  facet normal 0 0 -1
    outer loop
      vertex 36.691 2.41221 -1
      vertex 10.309 2.41221 -1
      vertex 10.4511 2.69098 -1
    endloop
  endfacet
  facet normal 0 0 -1
    outer loop
      vertex 36.9122 2.19098 -1
      vertex 10.0878 2.19098 -1
      vertex 10.309 2.41221 -1
    endloop
  endfacet
  facet normal 0 0 -1
    outer loop
      vertex 42 -1.5 -1
      vertex 9.80902 2.04894 -1
      vertex 10.0878 2.19098 -1
    endloop
  endfacet
  facet normal 0 0 -1
    outer loop
      vertex 1 -1.5 -1
      vertex 9.80902 2.04894 -1
      vertex 42 -1.5 -1
    endloop
  endfacet
  facet normal -0 0 -1
    outer loop
      vertex 8.54894 2.69098 -1
      vertex 2.51 2.5 -1
      vertex 8.5 3 -1
    endloop
  endfacet
  facet normal 0 0 -1
    outer loop
      vertex 8.69098 2.41221 -1
      vertex 2.51 2.5 -1
      vertex 8.54894 2.69098 -1
    endloop
  endfacet
  facet normal 0 0 -1
    outer loop
      vertex 8.91221 2.19098 -1
      vertex 2.51 2.5 -1
      vertex 8.69098 2.41221 -1
    endloop
  endfacet
  facet normal 0 0 -1
    outer loop
      vertex 1 -1.5 -1
      vertex 8.91221 2.19098 -1
      vertex 9.19098 2.04894 -1
    endloop
  endfacet
  facet normal 0 0 -1
    outer loop
      vertex 1 -1.5 -1
      vertex 9.19098 2.04894 -1
      vertex 9.5 2 -1
    endloop
  endfacet
  facet normal 0 0 -1
    outer loop
      vertex 9.80902 2.04894 -1
      vertex 1 -1.5 -1
      vertex 9.5 2 -1
    endloop
  endfacet
  facet normal -0 0 -1
    outer loop
      vertex 8.91221 2.19098 -1
      vertex 1 -1.5 -1
      vertex 2.51 2.5 -1
    endloop
  endfacet
  facet normal -0 0 -1
    outer loop
      vertex 2.51 2.5 -1
      vertex 1 -1.5 -1
      vertex 1 2.5 -1
    endloop
  endfacet
  facet normal 0 0 -1
    outer loop
      vertex 42 -1.5 -1
      vertex 38.4511 3.30902 -1
      vertex 42 20.5 -1
    endloop
  endfacet
  facet normal 0 0 -1
    outer loop
      vertex 38.309 3.58778 -1
      vertex 42 20.5 -1
      vertex 38.4511 3.30902 -1
    endloop
  endfacet
  facet normal 0 0 -1
    outer loop
      vertex 38.0878 3.80902 -1
      vertex 42 20.5 -1
      vertex 38.309 3.58778 -1
    endloop
  endfacet
  facet normal 0 0 -1
    outer loop
      vertex 37.809 3.95106 -1
      vertex 42 20.5 -1
      vertex 38.0878 3.80902 -1
    endloop
  endfacet
  facet normal 0 0 -1
    outer loop
      vertex 37.5 4 -1
      vertex 42 20.5 -1
      vertex 37.809 3.95106 -1
    endloop
  endfacet
  facet normal 0 0 -1
    outer loop
      vertex 37.191 3.95106 -1
      vertex 42 20.5 -1
      vertex 37.5 4 -1
    endloop
  endfacet
  facet normal 0 0 -1
    outer loop
      vertex 36.9122 3.80902 -1
      vertex 42 20.5 -1
      vertex 37.191 3.95106 -1
    endloop
  endfacet
  facet normal 0 0 -1
    outer loop
      vertex 36.691 3.58778 -1
      vertex 42 20.5 -1
      vertex 36.9122 3.80902 -1
    endloop
  endfacet
  facet normal 0 0 -1
    outer loop
      vertex 10.309 3.58778 -1
      vertex 36.691 3.58778 -1
      vertex 36.5489 3.30902 -1
    endloop
  endfacet
  facet normal 0 0 -1
    outer loop
      vertex 10.5 3 -1
      vertex 36.5489 3.30902 -1
      vertex 36.5 3 -1
    endloop
  endfacet
  facet normal 0 0 -1
    outer loop
      vertex 10.4511 3.30902 -1
      vertex 36.5489 3.30902 -1
      vertex 10.5 3 -1
    endloop
  endfacet
  facet normal 0 0 -1
    outer loop
      vertex 10.309 3.58778 -1
      vertex 36.5489 3.30902 -1
      vertex 10.4511 3.30902 -1
    endloop
  endfacet
  facet normal 0 0 -1
    outer loop
      vertex 36.691 3.58778 -1
      vertex 10.309 3.58778 -1
      vertex 42 20.5 -1
    endloop
  endfacet
  facet normal 0 0 -1
    outer loop
      vertex 10.0878 3.80902 -1
      vertex 42 20.5 -1
      vertex 10.309 3.58778 -1
    endloop
  endfacet
  facet normal 0 0 -1
    outer loop
      vertex 2.51 19.5 -1
      vertex 10.0878 3.80902 -1
      vertex 9.80902 3.95106 -1
    endloop
  endfacet
  facet normal 0 0 -1
    outer loop
      vertex 2.51 19.5 -1
      vertex 9.80902 3.95106 -1
      vertex 9.5 4 -1
    endloop
  endfacet
  facet normal 0 0 -1
    outer loop
      vertex 2.51 19.5 -1
      vertex 9.5 4 -1
      vertex 9.19098 3.95106 -1
    endloop
  endfacet
  facet normal 0 0 -1
    outer loop
      vertex 2.51 2.5 -1
      vertex 8.54894 3.30902 -1
      vertex 8.5 3 -1
    endloop
  endfacet
  facet normal 0 0 -1
    outer loop
      vertex 2.51 2.5 -1
      vertex 8.69098 3.58778 -1
      vertex 8.54894 3.30902 -1
    endloop
  endfacet
  facet normal 0 0 -1
    outer loop
      vertex 2.51 2.5 -1
      vertex 8.91221 3.80902 -1
      vertex 8.69098 3.58778 -1
    endloop
  endfacet
  facet normal 0 0 -1
    outer loop
      vertex 2.51 19.5 -1
      vertex 8.91221 3.80902 -1
      vertex 2.51 2.5 -1
    endloop
  endfacet
  facet normal 0 0 -1
    outer loop
      vertex 8.91221 3.80902 -1
      vertex 2.51 19.5 -1
      vertex 9.19098 3.95106 -1
    endloop
  endfacet
  facet normal 0 0 -1
    outer loop
      vertex 10.0878 3.80902 -1
      vertex 2.51 19.5 -1
      vertex 42 20.5 -1
    endloop
  endfacet
  facet normal 0 0 -1
    outer loop
      vertex 1 20.5 -1
      vertex 2.51 19.5 -1
      vertex 1 19.5 -1
    endloop
  endfacet
  facet normal 0 0 -1
    outer loop
      vertex 2.51 19.5 -1
      vertex 1 20.5 -1
      vertex 42 20.5 -1
    endloop
  endfacet
  facet normal 0 -1 0
    outer loop
      vertex 1 -1.5 -1
      vertex 42 -1.5 4.5
      vertex 1 -1.5 4.5
    endloop
  endfacet
  facet normal 0 -1 -0
    outer loop
      vertex 42 -1.5 4.5
      vertex 1 -1.5 -1
      vertex 42 -1.5 -1
    endloop
  endfacet
  facet normal 0 1 -0
    outer loop
      vertex 42 20.5 -1
      vertex 1 20.5 4.5
      vertex 42 20.5 4.5
    endloop
  endfacet
  facet normal 0 1 0
    outer loop
      vertex 1 20.5 4.5
      vertex 42 20.5 -1
      vertex 1 20.5 -1
    endloop
  endfacet
endsolid OpenSCAD_Model
