G04 #@! TF.GenerationSoftware,KiCad,Pcbnew,(5.1.5)-3*
G04 #@! TF.CreationDate,2020-09-06T00:36:18+02:00*
G04 #@! TF.ProjectId,2S_serial_charging_board,32535f73-6572-4696-916c-5f6368617267,1*
G04 #@! TF.SameCoordinates,Original*
G04 #@! TF.FileFunction,Soldermask,Bot*
G04 #@! TF.FilePolarity,Negative*
%FSLAX46Y46*%
G04 Gerber Fmt 4.6, Leading zero omitted, Abs format (unit mm)*
G04 Created by KiCad (PCBNEW (5.1.5)-3) date 2020-09-06 00:36:18*
%MOMM*%
%LPD*%
G04 APERTURE LIST*
%ADD10C,0.100000*%
G04 APERTURE END LIST*
D10*
G36*
X127375256Y-115391298D02*
G01*
X127481579Y-115412447D01*
X127694037Y-115500450D01*
X127735965Y-115517817D01*
X127782042Y-115536903D01*
X128052451Y-115717585D01*
X128282415Y-115947549D01*
X128463097Y-116217958D01*
X128463098Y-116217960D01*
X128471813Y-116239000D01*
X128587553Y-116518421D01*
X128608702Y-116624744D01*
X128651000Y-116837389D01*
X128651000Y-117162611D01*
X128649677Y-117169260D01*
X128587553Y-117481579D01*
X128526907Y-117627991D01*
X128470080Y-117765185D01*
X128463097Y-117782042D01*
X128282415Y-118052451D01*
X128052451Y-118282415D01*
X127782042Y-118463097D01*
X127481579Y-118587553D01*
X127375256Y-118608702D01*
X127162611Y-118651000D01*
X126837389Y-118651000D01*
X126624744Y-118608702D01*
X126518421Y-118587553D01*
X126217958Y-118463097D01*
X125947549Y-118282415D01*
X125717585Y-118052451D01*
X125536903Y-117782042D01*
X125529921Y-117765185D01*
X125473093Y-117627991D01*
X125412447Y-117481579D01*
X125350323Y-117169260D01*
X125349000Y-117162611D01*
X125349000Y-116837389D01*
X125391298Y-116624744D01*
X125412447Y-116518421D01*
X125528187Y-116239000D01*
X125536902Y-116217960D01*
X125536903Y-116217958D01*
X125717585Y-115947549D01*
X125947549Y-115717585D01*
X126217958Y-115536903D01*
X126264036Y-115517817D01*
X126305963Y-115500450D01*
X126518421Y-115412447D01*
X126624744Y-115391298D01*
X126837389Y-115349000D01*
X127162611Y-115349000D01*
X127375256Y-115391298D01*
G37*
G36*
X99375256Y-115391298D02*
G01*
X99481579Y-115412447D01*
X99694037Y-115500450D01*
X99735965Y-115517817D01*
X99782042Y-115536903D01*
X100052451Y-115717585D01*
X100282415Y-115947549D01*
X100463097Y-116217958D01*
X100463098Y-116217960D01*
X100471813Y-116239000D01*
X100587553Y-116518421D01*
X100608702Y-116624744D01*
X100651000Y-116837389D01*
X100651000Y-117162611D01*
X100649677Y-117169260D01*
X100587553Y-117481579D01*
X100526907Y-117627991D01*
X100470080Y-117765185D01*
X100463097Y-117782042D01*
X100282415Y-118052451D01*
X100052451Y-118282415D01*
X99782042Y-118463097D01*
X99481579Y-118587553D01*
X99375256Y-118608702D01*
X99162611Y-118651000D01*
X98837389Y-118651000D01*
X98624744Y-118608702D01*
X98518421Y-118587553D01*
X98217958Y-118463097D01*
X97947549Y-118282415D01*
X97717585Y-118052451D01*
X97536903Y-117782042D01*
X97529921Y-117765185D01*
X97473093Y-117627991D01*
X97412447Y-117481579D01*
X97350323Y-117169260D01*
X97349000Y-117162611D01*
X97349000Y-116837389D01*
X97391298Y-116624744D01*
X97412447Y-116518421D01*
X97528187Y-116239000D01*
X97536902Y-116217960D01*
X97536903Y-116217958D01*
X97717585Y-115947549D01*
X97947549Y-115717585D01*
X98217958Y-115536903D01*
X98264036Y-115517817D01*
X98305963Y-115500450D01*
X98518421Y-115412447D01*
X98624744Y-115391298D01*
X98837389Y-115349000D01*
X99162611Y-115349000D01*
X99375256Y-115391298D01*
G37*
G36*
X115676627Y-115987037D02*
G01*
X115846466Y-116038557D01*
X116002991Y-116122222D01*
X116038729Y-116151552D01*
X116140186Y-116234814D01*
X116223448Y-116336271D01*
X116252778Y-116372009D01*
X116336443Y-116528534D01*
X116387963Y-116698374D01*
X116401000Y-116830743D01*
X116401000Y-117169258D01*
X116387963Y-117301627D01*
X116336443Y-117471465D01*
X116336442Y-117471468D01*
X116294611Y-117549728D01*
X116252778Y-117627991D01*
X116223448Y-117663729D01*
X116140186Y-117765186D01*
X116002989Y-117877779D01*
X115846467Y-117961442D01*
X115846465Y-117961443D01*
X115676626Y-118012963D01*
X115500000Y-118030359D01*
X115323373Y-118012963D01*
X115153534Y-117961443D01*
X114997009Y-117877778D01*
X114954750Y-117843097D01*
X114859814Y-117765186D01*
X114747221Y-117627989D01*
X114663558Y-117471467D01*
X114663557Y-117471465D01*
X114612037Y-117301626D01*
X114599000Y-117169257D01*
X114599000Y-116830742D01*
X114612037Y-116698373D01*
X114663557Y-116528534D01*
X114668963Y-116518421D01*
X114747221Y-116372011D01*
X114747222Y-116372009D01*
X114859815Y-116234815D01*
X114997010Y-116122222D01*
X115153535Y-116038557D01*
X115323374Y-115987037D01*
X115500000Y-115969641D01*
X115676627Y-115987037D01*
G37*
G36*
X118176627Y-115987037D02*
G01*
X118346466Y-116038557D01*
X118502991Y-116122222D01*
X118538729Y-116151552D01*
X118640186Y-116234814D01*
X118723448Y-116336271D01*
X118752778Y-116372009D01*
X118836443Y-116528534D01*
X118887963Y-116698374D01*
X118901000Y-116830743D01*
X118901000Y-117169258D01*
X118887963Y-117301627D01*
X118836443Y-117471465D01*
X118836442Y-117471468D01*
X118794611Y-117549728D01*
X118752778Y-117627991D01*
X118723448Y-117663729D01*
X118640186Y-117765186D01*
X118502989Y-117877779D01*
X118346467Y-117961442D01*
X118346465Y-117961443D01*
X118176626Y-118012963D01*
X118000000Y-118030359D01*
X117823373Y-118012963D01*
X117653534Y-117961443D01*
X117497009Y-117877778D01*
X117454750Y-117843097D01*
X117359814Y-117765186D01*
X117247221Y-117627989D01*
X117163558Y-117471467D01*
X117163557Y-117471465D01*
X117112037Y-117301626D01*
X117099000Y-117169257D01*
X117099000Y-116830742D01*
X117112037Y-116698373D01*
X117163557Y-116528534D01*
X117168963Y-116518421D01*
X117247221Y-116372011D01*
X117247222Y-116372009D01*
X117359815Y-116234815D01*
X117497010Y-116122222D01*
X117653535Y-116038557D01*
X117823374Y-115987037D01*
X118000000Y-115969641D01*
X118176627Y-115987037D01*
G37*
G36*
X110676627Y-115987037D02*
G01*
X110846466Y-116038557D01*
X111002991Y-116122222D01*
X111038729Y-116151552D01*
X111140186Y-116234814D01*
X111223448Y-116336271D01*
X111252778Y-116372009D01*
X111336443Y-116528534D01*
X111387963Y-116698374D01*
X111401000Y-116830743D01*
X111401000Y-117169258D01*
X111387963Y-117301627D01*
X111336443Y-117471465D01*
X111336442Y-117471468D01*
X111294611Y-117549728D01*
X111252778Y-117627991D01*
X111223448Y-117663729D01*
X111140186Y-117765186D01*
X111002989Y-117877779D01*
X110846467Y-117961442D01*
X110846465Y-117961443D01*
X110676626Y-118012963D01*
X110500000Y-118030359D01*
X110323373Y-118012963D01*
X110153534Y-117961443D01*
X109997009Y-117877778D01*
X109954750Y-117843097D01*
X109859814Y-117765186D01*
X109747221Y-117627989D01*
X109663558Y-117471467D01*
X109663557Y-117471465D01*
X109612037Y-117301626D01*
X109599000Y-117169257D01*
X109599000Y-116830742D01*
X109612037Y-116698373D01*
X109663557Y-116528534D01*
X109668963Y-116518421D01*
X109747221Y-116372011D01*
X109747222Y-116372009D01*
X109859815Y-116234815D01*
X109997010Y-116122222D01*
X110153535Y-116038557D01*
X110323374Y-115987037D01*
X110500000Y-115969641D01*
X110676627Y-115987037D01*
G37*
G36*
X105676627Y-115987037D02*
G01*
X105846466Y-116038557D01*
X106002991Y-116122222D01*
X106038729Y-116151552D01*
X106140186Y-116234814D01*
X106223448Y-116336271D01*
X106252778Y-116372009D01*
X106336443Y-116528534D01*
X106387963Y-116698374D01*
X106401000Y-116830743D01*
X106401000Y-117169258D01*
X106387963Y-117301627D01*
X106336443Y-117471465D01*
X106336442Y-117471468D01*
X106294611Y-117549728D01*
X106252778Y-117627991D01*
X106223448Y-117663729D01*
X106140186Y-117765186D01*
X106002989Y-117877779D01*
X105846467Y-117961442D01*
X105846465Y-117961443D01*
X105676626Y-118012963D01*
X105500000Y-118030359D01*
X105323373Y-118012963D01*
X105153534Y-117961443D01*
X104997009Y-117877778D01*
X104954750Y-117843097D01*
X104859814Y-117765186D01*
X104747221Y-117627989D01*
X104663558Y-117471467D01*
X104663557Y-117471465D01*
X104612037Y-117301626D01*
X104599000Y-117169257D01*
X104599000Y-116830742D01*
X104612037Y-116698373D01*
X104663557Y-116528534D01*
X104668963Y-116518421D01*
X104747221Y-116372011D01*
X104747222Y-116372009D01*
X104859815Y-116234815D01*
X104997010Y-116122222D01*
X105153535Y-116038557D01*
X105323374Y-115987037D01*
X105500000Y-115969641D01*
X105676627Y-115987037D01*
G37*
G36*
X108176627Y-115987037D02*
G01*
X108346466Y-116038557D01*
X108502991Y-116122222D01*
X108538729Y-116151552D01*
X108640186Y-116234814D01*
X108723448Y-116336271D01*
X108752778Y-116372009D01*
X108836443Y-116528534D01*
X108887963Y-116698374D01*
X108901000Y-116830743D01*
X108901000Y-117169258D01*
X108887963Y-117301627D01*
X108836443Y-117471465D01*
X108836442Y-117471468D01*
X108794611Y-117549728D01*
X108752778Y-117627991D01*
X108723448Y-117663729D01*
X108640186Y-117765186D01*
X108502989Y-117877779D01*
X108346467Y-117961442D01*
X108346465Y-117961443D01*
X108176626Y-118012963D01*
X108000000Y-118030359D01*
X107823373Y-118012963D01*
X107653534Y-117961443D01*
X107497009Y-117877778D01*
X107454750Y-117843097D01*
X107359814Y-117765186D01*
X107247221Y-117627989D01*
X107163558Y-117471467D01*
X107163557Y-117471465D01*
X107112037Y-117301626D01*
X107099000Y-117169257D01*
X107099000Y-116830742D01*
X107112037Y-116698373D01*
X107163557Y-116528534D01*
X107168963Y-116518421D01*
X107247221Y-116372011D01*
X107247222Y-116372009D01*
X107359815Y-116234815D01*
X107497010Y-116122222D01*
X107653535Y-116038557D01*
X107823374Y-115987037D01*
X108000000Y-115969641D01*
X108176627Y-115987037D01*
G37*
G36*
X113176627Y-115987037D02*
G01*
X113346466Y-116038557D01*
X113502991Y-116122222D01*
X113538729Y-116151552D01*
X113640186Y-116234814D01*
X113723448Y-116336271D01*
X113752778Y-116372009D01*
X113836443Y-116528534D01*
X113887963Y-116698374D01*
X113901000Y-116830743D01*
X113901000Y-117169258D01*
X113887963Y-117301627D01*
X113836443Y-117471465D01*
X113836442Y-117471468D01*
X113794611Y-117549728D01*
X113752778Y-117627991D01*
X113723448Y-117663729D01*
X113640186Y-117765186D01*
X113502989Y-117877779D01*
X113346467Y-117961442D01*
X113346465Y-117961443D01*
X113176626Y-118012963D01*
X113000000Y-118030359D01*
X112823373Y-118012963D01*
X112653534Y-117961443D01*
X112497009Y-117877778D01*
X112454750Y-117843097D01*
X112359814Y-117765186D01*
X112247221Y-117627989D01*
X112163558Y-117471467D01*
X112163557Y-117471465D01*
X112112037Y-117301626D01*
X112099000Y-117169257D01*
X112099000Y-116830742D01*
X112112037Y-116698373D01*
X112163557Y-116528534D01*
X112168963Y-116518421D01*
X112247221Y-116372011D01*
X112247222Y-116372009D01*
X112359815Y-116234815D01*
X112497010Y-116122222D01*
X112653535Y-116038557D01*
X112823374Y-115987037D01*
X113000000Y-115969641D01*
X113176627Y-115987037D01*
G37*
G36*
X121258600Y-115977989D02*
G01*
X121291652Y-115988015D01*
X121322103Y-116004292D01*
X121348799Y-116026201D01*
X121370708Y-116052897D01*
X121386985Y-116083348D01*
X121397011Y-116116400D01*
X121401000Y-116156903D01*
X121401000Y-117843097D01*
X121397011Y-117883600D01*
X121386985Y-117916652D01*
X121370708Y-117947103D01*
X121348799Y-117973799D01*
X121322103Y-117995708D01*
X121291652Y-118011985D01*
X121258600Y-118022011D01*
X121218097Y-118026000D01*
X119781903Y-118026000D01*
X119741400Y-118022011D01*
X119708348Y-118011985D01*
X119677897Y-117995708D01*
X119651201Y-117973799D01*
X119629292Y-117947103D01*
X119613015Y-117916652D01*
X119602989Y-117883600D01*
X119599000Y-117843097D01*
X119599000Y-116156903D01*
X119602989Y-116116400D01*
X119613015Y-116083348D01*
X119629292Y-116052897D01*
X119651201Y-116026201D01*
X119677897Y-116004292D01*
X119708348Y-115988015D01*
X119741400Y-115977989D01*
X119781903Y-115974000D01*
X121218097Y-115974000D01*
X121258600Y-115977989D01*
G37*
G36*
X95169271Y-109360103D02*
G01*
X95225635Y-109365654D01*
X95442600Y-109431470D01*
X95442602Y-109431471D01*
X95642555Y-109538347D01*
X95817818Y-109682182D01*
X95961653Y-109857445D01*
X96053100Y-110028532D01*
X96068530Y-110057400D01*
X96134346Y-110274365D01*
X96156569Y-110500000D01*
X96134346Y-110725635D01*
X96094362Y-110857445D01*
X96068529Y-110942602D01*
X95961653Y-111142555D01*
X95817818Y-111317818D01*
X95642555Y-111461653D01*
X95442603Y-111568529D01*
X95442600Y-111568530D01*
X95228568Y-111633456D01*
X95205937Y-111642831D01*
X95185563Y-111656444D01*
X95168236Y-111673771D01*
X95154622Y-111694146D01*
X95145244Y-111716785D01*
X95140464Y-111740818D01*
X95140464Y-111765322D01*
X95145244Y-111789355D01*
X95154622Y-111811994D01*
X95168235Y-111832368D01*
X95185562Y-111849695D01*
X95205937Y-111863309D01*
X95217026Y-111868554D01*
X95266259Y-111888947D01*
X95266261Y-111888948D01*
X95295200Y-111908285D01*
X95323748Y-111927360D01*
X95372640Y-111976252D01*
X95411054Y-112033742D01*
X95423779Y-112064464D01*
X95437511Y-112097617D01*
X95451000Y-112165430D01*
X95451000Y-112234570D01*
X95437511Y-112302383D01*
X95437510Y-112302385D01*
X95411054Y-112366258D01*
X95372640Y-112423748D01*
X95323748Y-112472640D01*
X95266258Y-112511054D01*
X95209614Y-112534516D01*
X95188003Y-112546067D01*
X95169061Y-112561612D01*
X95153516Y-112580553D01*
X95141964Y-112602164D01*
X95134851Y-112625613D01*
X95132449Y-112649999D01*
X95134851Y-112674385D01*
X95141964Y-112697834D01*
X95153515Y-112719445D01*
X95169060Y-112738387D01*
X95188001Y-112753932D01*
X95209614Y-112765484D01*
X95266258Y-112788946D01*
X95323748Y-112827360D01*
X95372640Y-112876252D01*
X95411054Y-112933742D01*
X95423779Y-112964464D01*
X95437511Y-112997617D01*
X95451000Y-113065430D01*
X95451000Y-113134570D01*
X95437511Y-113202383D01*
X95437510Y-113202385D01*
X95411054Y-113266258D01*
X95372640Y-113323748D01*
X95323748Y-113372640D01*
X95266258Y-113411054D01*
X95209614Y-113434516D01*
X95188003Y-113446067D01*
X95169061Y-113461612D01*
X95153516Y-113480553D01*
X95141964Y-113502164D01*
X95134851Y-113525613D01*
X95132449Y-113549999D01*
X95134851Y-113574385D01*
X95141964Y-113597834D01*
X95153515Y-113619445D01*
X95169060Y-113638387D01*
X95188001Y-113653932D01*
X95209614Y-113665484D01*
X95266258Y-113688946D01*
X95323748Y-113727360D01*
X95372640Y-113776252D01*
X95411054Y-113833742D01*
X95423779Y-113864464D01*
X95437511Y-113897617D01*
X95451000Y-113965430D01*
X95451000Y-114034570D01*
X95437511Y-114102383D01*
X95437510Y-114102385D01*
X95411054Y-114166258D01*
X95372640Y-114223748D01*
X95323748Y-114272640D01*
X95266258Y-114311054D01*
X95214182Y-114332624D01*
X95202383Y-114337511D01*
X95134570Y-114351000D01*
X95065430Y-114351000D01*
X94997617Y-114337511D01*
X94985818Y-114332624D01*
X94933742Y-114311054D01*
X94876252Y-114272640D01*
X94827360Y-114223748D01*
X94803933Y-114188687D01*
X94788387Y-114169745D01*
X94769445Y-114154200D01*
X94747835Y-114142649D01*
X94724386Y-114135536D01*
X94700000Y-114133134D01*
X94675614Y-114135536D01*
X94652165Y-114142649D01*
X94630554Y-114154200D01*
X94611612Y-114169746D01*
X94596067Y-114188687D01*
X94572640Y-114223748D01*
X94523748Y-114272640D01*
X94466258Y-114311054D01*
X94414182Y-114332624D01*
X94402383Y-114337511D01*
X94334570Y-114351000D01*
X94265430Y-114351000D01*
X94197617Y-114337511D01*
X94185818Y-114332624D01*
X94133742Y-114311054D01*
X94076252Y-114272640D01*
X94027360Y-114223748D01*
X94003933Y-114188687D01*
X93988387Y-114169745D01*
X93969445Y-114154200D01*
X93947835Y-114142649D01*
X93924386Y-114135536D01*
X93900000Y-114133134D01*
X93875614Y-114135536D01*
X93852165Y-114142649D01*
X93830554Y-114154200D01*
X93811612Y-114169746D01*
X93796067Y-114188687D01*
X93772640Y-114223748D01*
X93723748Y-114272640D01*
X93666258Y-114311054D01*
X93614182Y-114332624D01*
X93602383Y-114337511D01*
X93534570Y-114351000D01*
X93465430Y-114351000D01*
X93397617Y-114337511D01*
X93385818Y-114332624D01*
X93333742Y-114311054D01*
X93276252Y-114272640D01*
X93227360Y-114223748D01*
X93203933Y-114188687D01*
X93188387Y-114169745D01*
X93169445Y-114154200D01*
X93147835Y-114142649D01*
X93124386Y-114135536D01*
X93100000Y-114133134D01*
X93075614Y-114135536D01*
X93052165Y-114142649D01*
X93030554Y-114154200D01*
X93011612Y-114169746D01*
X92996067Y-114188687D01*
X92972640Y-114223748D01*
X92923748Y-114272640D01*
X92866258Y-114311054D01*
X92814182Y-114332624D01*
X92802383Y-114337511D01*
X92734570Y-114351000D01*
X92665430Y-114351000D01*
X92597617Y-114337511D01*
X92585818Y-114332624D01*
X92533742Y-114311054D01*
X92476252Y-114272640D01*
X92427360Y-114223748D01*
X92385264Y-114160748D01*
X92379930Y-114150769D01*
X92364385Y-114131827D01*
X92345442Y-114116283D01*
X92323831Y-114104732D01*
X92300382Y-114097619D01*
X92275996Y-114095218D01*
X92251610Y-114097620D01*
X92228161Y-114104734D01*
X92206551Y-114116286D01*
X92187609Y-114131831D01*
X92172065Y-114150774D01*
X92160514Y-114172385D01*
X92153401Y-114195834D01*
X92151000Y-114220217D01*
X92151000Y-114756545D01*
X92134346Y-114925634D01*
X92068529Y-115142602D01*
X91961653Y-115342555D01*
X91882652Y-115438817D01*
X91817818Y-115517818D01*
X91669204Y-115639781D01*
X91642553Y-115661653D01*
X91537911Y-115717585D01*
X91442599Y-115768530D01*
X91225634Y-115834346D01*
X91000000Y-115856569D01*
X90774365Y-115834346D01*
X90557400Y-115768530D01*
X90557398Y-115768529D01*
X90357445Y-115661653D01*
X90261183Y-115582652D01*
X90182182Y-115517818D01*
X90038348Y-115342554D01*
X89931470Y-115142599D01*
X89865654Y-114925634D01*
X89849000Y-114756542D01*
X89849000Y-113320217D01*
X92151000Y-113320217D01*
X92151000Y-113779783D01*
X92153402Y-113804169D01*
X92160515Y-113827618D01*
X92172066Y-113849229D01*
X92187611Y-113868171D01*
X92206553Y-113883716D01*
X92228164Y-113895267D01*
X92251613Y-113902380D01*
X92275999Y-113904782D01*
X92300385Y-113902380D01*
X92323834Y-113895267D01*
X92345445Y-113883716D01*
X92364387Y-113868171D01*
X92379932Y-113849229D01*
X92385267Y-113839249D01*
X92388947Y-113833742D01*
X92388948Y-113833739D01*
X92427361Y-113776251D01*
X92476251Y-113727361D01*
X92533739Y-113688948D01*
X92533742Y-113688946D01*
X92590386Y-113665484D01*
X92611997Y-113653933D01*
X92630939Y-113638388D01*
X92646484Y-113619447D01*
X92658036Y-113597836D01*
X92665149Y-113574387D01*
X92667551Y-113550001D01*
X92667551Y-113549999D01*
X92732449Y-113549999D01*
X92734851Y-113574385D01*
X92741964Y-113597834D01*
X92753515Y-113619445D01*
X92769060Y-113638387D01*
X92788001Y-113653932D01*
X92809614Y-113665484D01*
X92866258Y-113688946D01*
X92923748Y-113727360D01*
X92972640Y-113776252D01*
X92996067Y-113811313D01*
X93011613Y-113830255D01*
X93030555Y-113845800D01*
X93052165Y-113857351D01*
X93075614Y-113864464D01*
X93100000Y-113866866D01*
X93124386Y-113864464D01*
X93147835Y-113857351D01*
X93169446Y-113845800D01*
X93188388Y-113830254D01*
X93203933Y-113811313D01*
X93227360Y-113776252D01*
X93276252Y-113727360D01*
X93333742Y-113688946D01*
X93390386Y-113665484D01*
X93411997Y-113653933D01*
X93430939Y-113638388D01*
X93446484Y-113619447D01*
X93458036Y-113597836D01*
X93465149Y-113574387D01*
X93467551Y-113550001D01*
X93467551Y-113549999D01*
X93532449Y-113549999D01*
X93534851Y-113574385D01*
X93541964Y-113597834D01*
X93553515Y-113619445D01*
X93569060Y-113638387D01*
X93588001Y-113653932D01*
X93609614Y-113665484D01*
X93666258Y-113688946D01*
X93723748Y-113727360D01*
X93772640Y-113776252D01*
X93796067Y-113811313D01*
X93811613Y-113830255D01*
X93830555Y-113845800D01*
X93852165Y-113857351D01*
X93875614Y-113864464D01*
X93900000Y-113866866D01*
X93924386Y-113864464D01*
X93947835Y-113857351D01*
X93969446Y-113845800D01*
X93988388Y-113830254D01*
X94003933Y-113811313D01*
X94027360Y-113776252D01*
X94076252Y-113727360D01*
X94133742Y-113688946D01*
X94190386Y-113665484D01*
X94211997Y-113653933D01*
X94230939Y-113638388D01*
X94246484Y-113619447D01*
X94258036Y-113597836D01*
X94265149Y-113574387D01*
X94267551Y-113550001D01*
X94267551Y-113549999D01*
X94332449Y-113549999D01*
X94334851Y-113574385D01*
X94341964Y-113597834D01*
X94353515Y-113619445D01*
X94369060Y-113638387D01*
X94388001Y-113653932D01*
X94409614Y-113665484D01*
X94466258Y-113688946D01*
X94523748Y-113727360D01*
X94572640Y-113776252D01*
X94596067Y-113811313D01*
X94611613Y-113830255D01*
X94630555Y-113845800D01*
X94652165Y-113857351D01*
X94675614Y-113864464D01*
X94700000Y-113866866D01*
X94724386Y-113864464D01*
X94747835Y-113857351D01*
X94769446Y-113845800D01*
X94788388Y-113830254D01*
X94803933Y-113811313D01*
X94827360Y-113776252D01*
X94876252Y-113727360D01*
X94933742Y-113688946D01*
X94990386Y-113665484D01*
X95011997Y-113653933D01*
X95030939Y-113638388D01*
X95046484Y-113619447D01*
X95058036Y-113597836D01*
X95065149Y-113574387D01*
X95067551Y-113550001D01*
X95065149Y-113525615D01*
X95058036Y-113502166D01*
X95046485Y-113480555D01*
X95030940Y-113461613D01*
X95011999Y-113446068D01*
X94990386Y-113434516D01*
X94933742Y-113411054D01*
X94876252Y-113372640D01*
X94827360Y-113323748D01*
X94803933Y-113288687D01*
X94788387Y-113269745D01*
X94769445Y-113254200D01*
X94747835Y-113242649D01*
X94724386Y-113235536D01*
X94700000Y-113233134D01*
X94675614Y-113235536D01*
X94652165Y-113242649D01*
X94630554Y-113254200D01*
X94611612Y-113269746D01*
X94596067Y-113288687D01*
X94572640Y-113323748D01*
X94523748Y-113372640D01*
X94466258Y-113411054D01*
X94409614Y-113434516D01*
X94388003Y-113446067D01*
X94369061Y-113461612D01*
X94353516Y-113480553D01*
X94341964Y-113502164D01*
X94334851Y-113525613D01*
X94332449Y-113549999D01*
X94267551Y-113549999D01*
X94265149Y-113525615D01*
X94258036Y-113502166D01*
X94246485Y-113480555D01*
X94230940Y-113461613D01*
X94211999Y-113446068D01*
X94190386Y-113434516D01*
X94133742Y-113411054D01*
X94076252Y-113372640D01*
X94027360Y-113323748D01*
X94003933Y-113288687D01*
X93988387Y-113269745D01*
X93969445Y-113254200D01*
X93947835Y-113242649D01*
X93924386Y-113235536D01*
X93900000Y-113233134D01*
X93875614Y-113235536D01*
X93852165Y-113242649D01*
X93830554Y-113254200D01*
X93811612Y-113269746D01*
X93796067Y-113288687D01*
X93772640Y-113323748D01*
X93723748Y-113372640D01*
X93666258Y-113411054D01*
X93609614Y-113434516D01*
X93588003Y-113446067D01*
X93569061Y-113461612D01*
X93553516Y-113480553D01*
X93541964Y-113502164D01*
X93534851Y-113525613D01*
X93532449Y-113549999D01*
X93467551Y-113549999D01*
X93465149Y-113525615D01*
X93458036Y-113502166D01*
X93446485Y-113480555D01*
X93430940Y-113461613D01*
X93411999Y-113446068D01*
X93390386Y-113434516D01*
X93333742Y-113411054D01*
X93276252Y-113372640D01*
X93227360Y-113323748D01*
X93203933Y-113288687D01*
X93188387Y-113269745D01*
X93169445Y-113254200D01*
X93147835Y-113242649D01*
X93124386Y-113235536D01*
X93100000Y-113233134D01*
X93075614Y-113235536D01*
X93052165Y-113242649D01*
X93030554Y-113254200D01*
X93011612Y-113269746D01*
X92996067Y-113288687D01*
X92972640Y-113323748D01*
X92923748Y-113372640D01*
X92866258Y-113411054D01*
X92809614Y-113434516D01*
X92788003Y-113446067D01*
X92769061Y-113461612D01*
X92753516Y-113480553D01*
X92741964Y-113502164D01*
X92734851Y-113525613D01*
X92732449Y-113549999D01*
X92667551Y-113549999D01*
X92665149Y-113525615D01*
X92658036Y-113502166D01*
X92646485Y-113480555D01*
X92630940Y-113461613D01*
X92611999Y-113446068D01*
X92590386Y-113434516D01*
X92533742Y-113411054D01*
X92476252Y-113372640D01*
X92427360Y-113323748D01*
X92385264Y-113260748D01*
X92379930Y-113250769D01*
X92364385Y-113231827D01*
X92345442Y-113216283D01*
X92323831Y-113204732D01*
X92300382Y-113197619D01*
X92275996Y-113195218D01*
X92251610Y-113197620D01*
X92228161Y-113204734D01*
X92206551Y-113216286D01*
X92187609Y-113231831D01*
X92172065Y-113250774D01*
X92160514Y-113272385D01*
X92153401Y-113295834D01*
X92151000Y-113320217D01*
X89849000Y-113320217D01*
X89849000Y-112420217D01*
X92151000Y-112420217D01*
X92151000Y-112879783D01*
X92153402Y-112904169D01*
X92160515Y-112927618D01*
X92172066Y-112949229D01*
X92187611Y-112968171D01*
X92206553Y-112983716D01*
X92228164Y-112995267D01*
X92251613Y-113002380D01*
X92275999Y-113004782D01*
X92300385Y-113002380D01*
X92323834Y-112995267D01*
X92345445Y-112983716D01*
X92364387Y-112968171D01*
X92379932Y-112949229D01*
X92385267Y-112939249D01*
X92388947Y-112933742D01*
X92388948Y-112933739D01*
X92427361Y-112876251D01*
X92476251Y-112827361D01*
X92533739Y-112788948D01*
X92533742Y-112788946D01*
X92590386Y-112765484D01*
X92611997Y-112753933D01*
X92630939Y-112738388D01*
X92646484Y-112719447D01*
X92658036Y-112697836D01*
X92665149Y-112674387D01*
X92667551Y-112650001D01*
X92667551Y-112649999D01*
X92732449Y-112649999D01*
X92734851Y-112674385D01*
X92741964Y-112697834D01*
X92753515Y-112719445D01*
X92769060Y-112738387D01*
X92788001Y-112753932D01*
X92809614Y-112765484D01*
X92866258Y-112788946D01*
X92923748Y-112827360D01*
X92972640Y-112876252D01*
X92996067Y-112911313D01*
X93011613Y-112930255D01*
X93030555Y-112945800D01*
X93052165Y-112957351D01*
X93075614Y-112964464D01*
X93100000Y-112966866D01*
X93124386Y-112964464D01*
X93147835Y-112957351D01*
X93169446Y-112945800D01*
X93188388Y-112930254D01*
X93203933Y-112911313D01*
X93227360Y-112876252D01*
X93276252Y-112827360D01*
X93333742Y-112788946D01*
X93390386Y-112765484D01*
X93411997Y-112753933D01*
X93430939Y-112738388D01*
X93446484Y-112719447D01*
X93458036Y-112697836D01*
X93465149Y-112674387D01*
X93467551Y-112650001D01*
X93467551Y-112649999D01*
X93532449Y-112649999D01*
X93534851Y-112674385D01*
X93541964Y-112697834D01*
X93553515Y-112719445D01*
X93569060Y-112738387D01*
X93588001Y-112753932D01*
X93609614Y-112765484D01*
X93666258Y-112788946D01*
X93723748Y-112827360D01*
X93772640Y-112876252D01*
X93796067Y-112911313D01*
X93811613Y-112930255D01*
X93830555Y-112945800D01*
X93852165Y-112957351D01*
X93875614Y-112964464D01*
X93900000Y-112966866D01*
X93924386Y-112964464D01*
X93947835Y-112957351D01*
X93969446Y-112945800D01*
X93988388Y-112930254D01*
X94003933Y-112911313D01*
X94027360Y-112876252D01*
X94076252Y-112827360D01*
X94133742Y-112788946D01*
X94190386Y-112765484D01*
X94211997Y-112753933D01*
X94230939Y-112738388D01*
X94246484Y-112719447D01*
X94258036Y-112697836D01*
X94265149Y-112674387D01*
X94267551Y-112650001D01*
X94267551Y-112649999D01*
X94332449Y-112649999D01*
X94334851Y-112674385D01*
X94341964Y-112697834D01*
X94353515Y-112719445D01*
X94369060Y-112738387D01*
X94388001Y-112753932D01*
X94409614Y-112765484D01*
X94466258Y-112788946D01*
X94523748Y-112827360D01*
X94572640Y-112876252D01*
X94596067Y-112911313D01*
X94611613Y-112930255D01*
X94630555Y-112945800D01*
X94652165Y-112957351D01*
X94675614Y-112964464D01*
X94700000Y-112966866D01*
X94724386Y-112964464D01*
X94747835Y-112957351D01*
X94769446Y-112945800D01*
X94788388Y-112930254D01*
X94803933Y-112911313D01*
X94827360Y-112876252D01*
X94876252Y-112827360D01*
X94933742Y-112788946D01*
X94990386Y-112765484D01*
X95011997Y-112753933D01*
X95030939Y-112738388D01*
X95046484Y-112719447D01*
X95058036Y-112697836D01*
X95065149Y-112674387D01*
X95067551Y-112650001D01*
X95065149Y-112625615D01*
X95058036Y-112602166D01*
X95046485Y-112580555D01*
X95030940Y-112561613D01*
X95011999Y-112546068D01*
X94990386Y-112534516D01*
X94933742Y-112511054D01*
X94876252Y-112472640D01*
X94827360Y-112423748D01*
X94803933Y-112388687D01*
X94788387Y-112369745D01*
X94769445Y-112354200D01*
X94747835Y-112342649D01*
X94724386Y-112335536D01*
X94700000Y-112333134D01*
X94675614Y-112335536D01*
X94652165Y-112342649D01*
X94630554Y-112354200D01*
X94611612Y-112369746D01*
X94596067Y-112388687D01*
X94572640Y-112423748D01*
X94523748Y-112472640D01*
X94466258Y-112511054D01*
X94409614Y-112534516D01*
X94388003Y-112546067D01*
X94369061Y-112561612D01*
X94353516Y-112580553D01*
X94341964Y-112602164D01*
X94334851Y-112625613D01*
X94332449Y-112649999D01*
X94267551Y-112649999D01*
X94265149Y-112625615D01*
X94258036Y-112602166D01*
X94246485Y-112580555D01*
X94230940Y-112561613D01*
X94211999Y-112546068D01*
X94190386Y-112534516D01*
X94133742Y-112511054D01*
X94076252Y-112472640D01*
X94027360Y-112423748D01*
X94003933Y-112388687D01*
X93988387Y-112369745D01*
X93969445Y-112354200D01*
X93947835Y-112342649D01*
X93924386Y-112335536D01*
X93900000Y-112333134D01*
X93875614Y-112335536D01*
X93852165Y-112342649D01*
X93830554Y-112354200D01*
X93811612Y-112369746D01*
X93796067Y-112388687D01*
X93772640Y-112423748D01*
X93723748Y-112472640D01*
X93666258Y-112511054D01*
X93609614Y-112534516D01*
X93588003Y-112546067D01*
X93569061Y-112561612D01*
X93553516Y-112580553D01*
X93541964Y-112602164D01*
X93534851Y-112625613D01*
X93532449Y-112649999D01*
X93467551Y-112649999D01*
X93465149Y-112625615D01*
X93458036Y-112602166D01*
X93446485Y-112580555D01*
X93430940Y-112561613D01*
X93411999Y-112546068D01*
X93390386Y-112534516D01*
X93333742Y-112511054D01*
X93276252Y-112472640D01*
X93227360Y-112423748D01*
X93203933Y-112388687D01*
X93188387Y-112369745D01*
X93169445Y-112354200D01*
X93147835Y-112342649D01*
X93124386Y-112335536D01*
X93100000Y-112333134D01*
X93075614Y-112335536D01*
X93052165Y-112342649D01*
X93030554Y-112354200D01*
X93011612Y-112369746D01*
X92996067Y-112388687D01*
X92972640Y-112423748D01*
X92923748Y-112472640D01*
X92866258Y-112511054D01*
X92809614Y-112534516D01*
X92788003Y-112546067D01*
X92769061Y-112561612D01*
X92753516Y-112580553D01*
X92741964Y-112602164D01*
X92734851Y-112625613D01*
X92732449Y-112649999D01*
X92667551Y-112649999D01*
X92665149Y-112625615D01*
X92658036Y-112602166D01*
X92646485Y-112580555D01*
X92630940Y-112561613D01*
X92611999Y-112546068D01*
X92590386Y-112534516D01*
X92533742Y-112511054D01*
X92476252Y-112472640D01*
X92427360Y-112423748D01*
X92385264Y-112360748D01*
X92379930Y-112350769D01*
X92364385Y-112331827D01*
X92345442Y-112316283D01*
X92323831Y-112304732D01*
X92300382Y-112297619D01*
X92275996Y-112295218D01*
X92251610Y-112297620D01*
X92228161Y-112304734D01*
X92206551Y-112316286D01*
X92187609Y-112331831D01*
X92172065Y-112350774D01*
X92160514Y-112372385D01*
X92153401Y-112395834D01*
X92151000Y-112420217D01*
X89849000Y-112420217D01*
X89849000Y-111775999D01*
X92151000Y-111775999D01*
X92151000Y-111979783D01*
X92153402Y-112004169D01*
X92160515Y-112027618D01*
X92172066Y-112049229D01*
X92187611Y-112068171D01*
X92206553Y-112083716D01*
X92228164Y-112095267D01*
X92251613Y-112102380D01*
X92275999Y-112104782D01*
X92300385Y-112102380D01*
X92323834Y-112095267D01*
X92345445Y-112083716D01*
X92364387Y-112068171D01*
X92379932Y-112049229D01*
X92385267Y-112039249D01*
X92388947Y-112033742D01*
X92388948Y-112033739D01*
X92427361Y-111976251D01*
X92476251Y-111927361D01*
X92533739Y-111888948D01*
X92533738Y-111888948D01*
X92539252Y-111885264D01*
X92549231Y-111879930D01*
X92568173Y-111864385D01*
X92583717Y-111845442D01*
X92595268Y-111823831D01*
X92602381Y-111800382D01*
X92604781Y-111775999D01*
X92795218Y-111775999D01*
X92797620Y-111800385D01*
X92804733Y-111823834D01*
X92816284Y-111845445D01*
X92831829Y-111864387D01*
X92850771Y-111879932D01*
X92860751Y-111885267D01*
X92866258Y-111888947D01*
X92866261Y-111888948D01*
X92904170Y-111914278D01*
X92923748Y-111927360D01*
X92972640Y-111976252D01*
X92996067Y-112011313D01*
X93011613Y-112030255D01*
X93030555Y-112045800D01*
X93052165Y-112057351D01*
X93075614Y-112064464D01*
X93100000Y-112066866D01*
X93124386Y-112064464D01*
X93147835Y-112057351D01*
X93169446Y-112045800D01*
X93188388Y-112030254D01*
X93203933Y-112011313D01*
X93227360Y-111976252D01*
X93276252Y-111927360D01*
X93339252Y-111885264D01*
X93349231Y-111879930D01*
X93368173Y-111864385D01*
X93383717Y-111845442D01*
X93395268Y-111823831D01*
X93402381Y-111800382D01*
X93404781Y-111775999D01*
X93595218Y-111775999D01*
X93597620Y-111800385D01*
X93604733Y-111823834D01*
X93616284Y-111845445D01*
X93631829Y-111864387D01*
X93650771Y-111879932D01*
X93660751Y-111885267D01*
X93666258Y-111888947D01*
X93666261Y-111888948D01*
X93704170Y-111914278D01*
X93723748Y-111927360D01*
X93772640Y-111976252D01*
X93796067Y-112011313D01*
X93811613Y-112030255D01*
X93830555Y-112045800D01*
X93852165Y-112057351D01*
X93875614Y-112064464D01*
X93900000Y-112066866D01*
X93924386Y-112064464D01*
X93947835Y-112057351D01*
X93969446Y-112045800D01*
X93988388Y-112030254D01*
X94003933Y-112011313D01*
X94027360Y-111976252D01*
X94076252Y-111927360D01*
X94139252Y-111885264D01*
X94149231Y-111879930D01*
X94168173Y-111864385D01*
X94183717Y-111845442D01*
X94195268Y-111823831D01*
X94202381Y-111800382D01*
X94204781Y-111775999D01*
X94395218Y-111775999D01*
X94397620Y-111800385D01*
X94404733Y-111823834D01*
X94416284Y-111845445D01*
X94431829Y-111864387D01*
X94450771Y-111879932D01*
X94460751Y-111885267D01*
X94466258Y-111888947D01*
X94466261Y-111888948D01*
X94504170Y-111914278D01*
X94523748Y-111927360D01*
X94572640Y-111976252D01*
X94596067Y-112011313D01*
X94611613Y-112030255D01*
X94630555Y-112045800D01*
X94652165Y-112057351D01*
X94675614Y-112064464D01*
X94700000Y-112066866D01*
X94724386Y-112064464D01*
X94747835Y-112057351D01*
X94769446Y-112045800D01*
X94788388Y-112030254D01*
X94803933Y-112011313D01*
X94827360Y-111976252D01*
X94876252Y-111927360D01*
X94939252Y-111885264D01*
X94949231Y-111879930D01*
X94968173Y-111864385D01*
X94983717Y-111845442D01*
X94995268Y-111823831D01*
X95002381Y-111800382D01*
X95004782Y-111775996D01*
X95002380Y-111751610D01*
X94995266Y-111728161D01*
X94983714Y-111706551D01*
X94968169Y-111687609D01*
X94949226Y-111672065D01*
X94927615Y-111660514D01*
X94904166Y-111653401D01*
X94879783Y-111651000D01*
X94520217Y-111651000D01*
X94495831Y-111653402D01*
X94472382Y-111660515D01*
X94450771Y-111672066D01*
X94431829Y-111687611D01*
X94416284Y-111706553D01*
X94404733Y-111728164D01*
X94397620Y-111751613D01*
X94395218Y-111775999D01*
X94204781Y-111775999D01*
X94204782Y-111775996D01*
X94202380Y-111751610D01*
X94195266Y-111728161D01*
X94183714Y-111706551D01*
X94168169Y-111687609D01*
X94149226Y-111672065D01*
X94127615Y-111660514D01*
X94104166Y-111653401D01*
X94079783Y-111651000D01*
X93720217Y-111651000D01*
X93695831Y-111653402D01*
X93672382Y-111660515D01*
X93650771Y-111672066D01*
X93631829Y-111687611D01*
X93616284Y-111706553D01*
X93604733Y-111728164D01*
X93597620Y-111751613D01*
X93595218Y-111775999D01*
X93404781Y-111775999D01*
X93404782Y-111775996D01*
X93402380Y-111751610D01*
X93395266Y-111728161D01*
X93383714Y-111706551D01*
X93368169Y-111687609D01*
X93349226Y-111672065D01*
X93327615Y-111660514D01*
X93304166Y-111653401D01*
X93279783Y-111651000D01*
X92920217Y-111651000D01*
X92895831Y-111653402D01*
X92872382Y-111660515D01*
X92850771Y-111672066D01*
X92831829Y-111687611D01*
X92816284Y-111706553D01*
X92804733Y-111728164D01*
X92797620Y-111751613D01*
X92795218Y-111775999D01*
X92604781Y-111775999D01*
X92604782Y-111775996D01*
X92602380Y-111751610D01*
X92595266Y-111728161D01*
X92583714Y-111706551D01*
X92568169Y-111687609D01*
X92549226Y-111672065D01*
X92527615Y-111660514D01*
X92504166Y-111653401D01*
X92479783Y-111651000D01*
X92275999Y-111651000D01*
X92251613Y-111653402D01*
X92228164Y-111660515D01*
X92206553Y-111672066D01*
X92187611Y-111687611D01*
X92172066Y-111706553D01*
X92160515Y-111728164D01*
X92153402Y-111751613D01*
X92151000Y-111775999D01*
X89849000Y-111775999D01*
X89849001Y-111443457D01*
X89865655Y-111274365D01*
X89931471Y-111057400D01*
X89931472Y-111057398D01*
X90038348Y-110857445D01*
X90182183Y-110682182D01*
X90357446Y-110538347D01*
X90557398Y-110431471D01*
X90557401Y-110431470D01*
X90774366Y-110365654D01*
X90774369Y-110365654D01*
X90780470Y-110363803D01*
X90803109Y-110354425D01*
X90823484Y-110340812D01*
X90840811Y-110323485D01*
X90854424Y-110303110D01*
X90863802Y-110280471D01*
X90888705Y-110198376D01*
X90931470Y-110057400D01*
X90946900Y-110028532D01*
X91038347Y-109857445D01*
X91182182Y-109682182D01*
X91357445Y-109538347D01*
X91557398Y-109431471D01*
X91557400Y-109431470D01*
X91774365Y-109365654D01*
X91830729Y-109360103D01*
X91943455Y-109349000D01*
X95056545Y-109349000D01*
X95169271Y-109360103D01*
G37*
G36*
X124176627Y-109487037D02*
G01*
X124346466Y-109538557D01*
X124502991Y-109622222D01*
X124538729Y-109651552D01*
X124640186Y-109734814D01*
X124723448Y-109836271D01*
X124752778Y-109872009D01*
X124836443Y-110028534D01*
X124887963Y-110198374D01*
X124887963Y-110198376D01*
X124898279Y-110303110D01*
X124901000Y-110330743D01*
X124901000Y-110669258D01*
X124887963Y-110801627D01*
X124836443Y-110971466D01*
X124752778Y-111127991D01*
X124723448Y-111163729D01*
X124640186Y-111265186D01*
X124502989Y-111377779D01*
X124346467Y-111461442D01*
X124346465Y-111461443D01*
X124176626Y-111512963D01*
X124000000Y-111530359D01*
X123823373Y-111512963D01*
X123653534Y-111461443D01*
X123497009Y-111377778D01*
X123454750Y-111343097D01*
X123359814Y-111265186D01*
X123247221Y-111127989D01*
X123163558Y-110971467D01*
X123154801Y-110942600D01*
X123112037Y-110801626D01*
X123099000Y-110669257D01*
X123099000Y-110330742D01*
X123112037Y-110198373D01*
X123163557Y-110028534D01*
X123247222Y-109872009D01*
X123359815Y-109734815D01*
X123497010Y-109622222D01*
X123653535Y-109538557D01*
X123823374Y-109487037D01*
X124000000Y-109469641D01*
X124176627Y-109487037D01*
G37*
G36*
X121676627Y-109487037D02*
G01*
X121846466Y-109538557D01*
X122002991Y-109622222D01*
X122038729Y-109651552D01*
X122140186Y-109734814D01*
X122223448Y-109836271D01*
X122252778Y-109872009D01*
X122336443Y-110028534D01*
X122387963Y-110198374D01*
X122387963Y-110198376D01*
X122398279Y-110303110D01*
X122401000Y-110330743D01*
X122401000Y-110669258D01*
X122387963Y-110801627D01*
X122336443Y-110971466D01*
X122252778Y-111127991D01*
X122223448Y-111163729D01*
X122140186Y-111265186D01*
X122002989Y-111377779D01*
X121846467Y-111461442D01*
X121846465Y-111461443D01*
X121676626Y-111512963D01*
X121500000Y-111530359D01*
X121323373Y-111512963D01*
X121153534Y-111461443D01*
X120997009Y-111377778D01*
X120954750Y-111343097D01*
X120859814Y-111265186D01*
X120747221Y-111127989D01*
X120663558Y-110971467D01*
X120654801Y-110942600D01*
X120612037Y-110801626D01*
X120599000Y-110669257D01*
X120599000Y-110330742D01*
X120612037Y-110198373D01*
X120663557Y-110028534D01*
X120747222Y-109872009D01*
X120859815Y-109734815D01*
X120997010Y-109622222D01*
X121153535Y-109538557D01*
X121323374Y-109487037D01*
X121500000Y-109469641D01*
X121676627Y-109487037D01*
G37*
G36*
X113176627Y-109487037D02*
G01*
X113346466Y-109538557D01*
X113502991Y-109622222D01*
X113538729Y-109651552D01*
X113640186Y-109734814D01*
X113723448Y-109836271D01*
X113752778Y-109872009D01*
X113836443Y-110028534D01*
X113887963Y-110198374D01*
X113887963Y-110198376D01*
X113898279Y-110303110D01*
X113901000Y-110330743D01*
X113901000Y-110669258D01*
X113887963Y-110801627D01*
X113836443Y-110971466D01*
X113752778Y-111127991D01*
X113723448Y-111163729D01*
X113640186Y-111265186D01*
X113502989Y-111377779D01*
X113346467Y-111461442D01*
X113346465Y-111461443D01*
X113176626Y-111512963D01*
X113000000Y-111530359D01*
X112823373Y-111512963D01*
X112653534Y-111461443D01*
X112497009Y-111377778D01*
X112454750Y-111343097D01*
X112359814Y-111265186D01*
X112247221Y-111127989D01*
X112163558Y-110971467D01*
X112154801Y-110942600D01*
X112112037Y-110801626D01*
X112099000Y-110669257D01*
X112099000Y-110330742D01*
X112112037Y-110198373D01*
X112163557Y-110028534D01*
X112247222Y-109872009D01*
X112359815Y-109734815D01*
X112497010Y-109622222D01*
X112653535Y-109538557D01*
X112823374Y-109487037D01*
X113000000Y-109469641D01*
X113176627Y-109487037D01*
G37*
G36*
X102176627Y-109487037D02*
G01*
X102346466Y-109538557D01*
X102502991Y-109622222D01*
X102538729Y-109651552D01*
X102640186Y-109734814D01*
X102723448Y-109836271D01*
X102752778Y-109872009D01*
X102836443Y-110028534D01*
X102887963Y-110198374D01*
X102887963Y-110198376D01*
X102898279Y-110303110D01*
X102901000Y-110330743D01*
X102901000Y-110669258D01*
X102887963Y-110801627D01*
X102836443Y-110971466D01*
X102752778Y-111127991D01*
X102723448Y-111163729D01*
X102640186Y-111265186D01*
X102502989Y-111377779D01*
X102346467Y-111461442D01*
X102346465Y-111461443D01*
X102176626Y-111512963D01*
X102000000Y-111530359D01*
X101823373Y-111512963D01*
X101653534Y-111461443D01*
X101497009Y-111377778D01*
X101454750Y-111343097D01*
X101359814Y-111265186D01*
X101247221Y-111127989D01*
X101163558Y-110971467D01*
X101154801Y-110942600D01*
X101112037Y-110801626D01*
X101099000Y-110669257D01*
X101099000Y-110330742D01*
X101112037Y-110198373D01*
X101163557Y-110028534D01*
X101247222Y-109872009D01*
X101359815Y-109734815D01*
X101497010Y-109622222D01*
X101653535Y-109538557D01*
X101823374Y-109487037D01*
X102000000Y-109469641D01*
X102176627Y-109487037D01*
G37*
G36*
X99676627Y-109487037D02*
G01*
X99846466Y-109538557D01*
X100002991Y-109622222D01*
X100038729Y-109651552D01*
X100140186Y-109734814D01*
X100223448Y-109836271D01*
X100252778Y-109872009D01*
X100336443Y-110028534D01*
X100387963Y-110198374D01*
X100387963Y-110198376D01*
X100398279Y-110303110D01*
X100401000Y-110330743D01*
X100401000Y-110669258D01*
X100387963Y-110801627D01*
X100336443Y-110971466D01*
X100252778Y-111127991D01*
X100223448Y-111163729D01*
X100140186Y-111265186D01*
X100002989Y-111377779D01*
X99846467Y-111461442D01*
X99846465Y-111461443D01*
X99676626Y-111512963D01*
X99500000Y-111530359D01*
X99323373Y-111512963D01*
X99153534Y-111461443D01*
X98997009Y-111377778D01*
X98954750Y-111343097D01*
X98859814Y-111265186D01*
X98747221Y-111127989D01*
X98663558Y-110971467D01*
X98654801Y-110942600D01*
X98612037Y-110801626D01*
X98599000Y-110669257D01*
X98599000Y-110330742D01*
X98612037Y-110198373D01*
X98663557Y-110028534D01*
X98747222Y-109872009D01*
X98859815Y-109734815D01*
X98997010Y-109622222D01*
X99153535Y-109538557D01*
X99323374Y-109487037D01*
X99500000Y-109469641D01*
X99676627Y-109487037D01*
G37*
G36*
X110676627Y-109487037D02*
G01*
X110846466Y-109538557D01*
X111002991Y-109622222D01*
X111038729Y-109651552D01*
X111140186Y-109734814D01*
X111223448Y-109836271D01*
X111252778Y-109872009D01*
X111336443Y-110028534D01*
X111387963Y-110198374D01*
X111387963Y-110198376D01*
X111398279Y-110303110D01*
X111401000Y-110330743D01*
X111401000Y-110669258D01*
X111387963Y-110801627D01*
X111336443Y-110971466D01*
X111252778Y-111127991D01*
X111223448Y-111163729D01*
X111140186Y-111265186D01*
X111002989Y-111377779D01*
X110846467Y-111461442D01*
X110846465Y-111461443D01*
X110676626Y-111512963D01*
X110500000Y-111530359D01*
X110323373Y-111512963D01*
X110153534Y-111461443D01*
X109997009Y-111377778D01*
X109954750Y-111343097D01*
X109859814Y-111265186D01*
X109747221Y-111127989D01*
X109663558Y-110971467D01*
X109654801Y-110942600D01*
X109612037Y-110801626D01*
X109599000Y-110669257D01*
X109599000Y-110330742D01*
X109612037Y-110198373D01*
X109663557Y-110028534D01*
X109747222Y-109872009D01*
X109859815Y-109734815D01*
X109997010Y-109622222D01*
X110153535Y-109538557D01*
X110323374Y-109487037D01*
X110500000Y-109469641D01*
X110676627Y-109487037D01*
G37*
G36*
X127258600Y-109477989D02*
G01*
X127291652Y-109488015D01*
X127322103Y-109504292D01*
X127348799Y-109526201D01*
X127370708Y-109552897D01*
X127386985Y-109583348D01*
X127397011Y-109616400D01*
X127401000Y-109656903D01*
X127401000Y-111343097D01*
X127397011Y-111383600D01*
X127386985Y-111416652D01*
X127370708Y-111447103D01*
X127348799Y-111473799D01*
X127322103Y-111495708D01*
X127291652Y-111511985D01*
X127258600Y-111522011D01*
X127218097Y-111526000D01*
X125781903Y-111526000D01*
X125741400Y-111522011D01*
X125708348Y-111511985D01*
X125677897Y-111495708D01*
X125651201Y-111473799D01*
X125629292Y-111447103D01*
X125613015Y-111416652D01*
X125602989Y-111383600D01*
X125599000Y-111343097D01*
X125599000Y-109656903D01*
X125602989Y-109616400D01*
X125613015Y-109583348D01*
X125629292Y-109552897D01*
X125651201Y-109526201D01*
X125677897Y-109504292D01*
X125708348Y-109488015D01*
X125741400Y-109477989D01*
X125781903Y-109474000D01*
X127218097Y-109474000D01*
X127258600Y-109477989D01*
G37*
G36*
X105258600Y-109477989D02*
G01*
X105291652Y-109488015D01*
X105322103Y-109504292D01*
X105348799Y-109526201D01*
X105370708Y-109552897D01*
X105386985Y-109583348D01*
X105397011Y-109616400D01*
X105401000Y-109656903D01*
X105401000Y-111343097D01*
X105397011Y-111383600D01*
X105386985Y-111416652D01*
X105370708Y-111447103D01*
X105348799Y-111473799D01*
X105322103Y-111495708D01*
X105291652Y-111511985D01*
X105258600Y-111522011D01*
X105218097Y-111526000D01*
X103781903Y-111526000D01*
X103741400Y-111522011D01*
X103708348Y-111511985D01*
X103677897Y-111495708D01*
X103651201Y-111473799D01*
X103629292Y-111447103D01*
X103613015Y-111416652D01*
X103602989Y-111383600D01*
X103599000Y-111343097D01*
X103599000Y-109656903D01*
X103602989Y-109616400D01*
X103613015Y-109583348D01*
X103629292Y-109552897D01*
X103651201Y-109526201D01*
X103677897Y-109504292D01*
X103708348Y-109488015D01*
X103741400Y-109477989D01*
X103781903Y-109474000D01*
X105218097Y-109474000D01*
X105258600Y-109477989D01*
G37*
G36*
X116258600Y-109477989D02*
G01*
X116291652Y-109488015D01*
X116322103Y-109504292D01*
X116348799Y-109526201D01*
X116370708Y-109552897D01*
X116386985Y-109583348D01*
X116397011Y-109616400D01*
X116401000Y-109656903D01*
X116401000Y-111343097D01*
X116397011Y-111383600D01*
X116386985Y-111416652D01*
X116370708Y-111447103D01*
X116348799Y-111473799D01*
X116322103Y-111495708D01*
X116291652Y-111511985D01*
X116258600Y-111522011D01*
X116218097Y-111526000D01*
X114781903Y-111526000D01*
X114741400Y-111522011D01*
X114708348Y-111511985D01*
X114677897Y-111495708D01*
X114651201Y-111473799D01*
X114629292Y-111447103D01*
X114613015Y-111416652D01*
X114602989Y-111383600D01*
X114599000Y-111343097D01*
X114599000Y-109656903D01*
X114602989Y-109616400D01*
X114613015Y-109583348D01*
X114629292Y-109552897D01*
X114651201Y-109526201D01*
X114677897Y-109504292D01*
X114708348Y-109488015D01*
X114741400Y-109477989D01*
X114781903Y-109474000D01*
X116218097Y-109474000D01*
X116258600Y-109477989D01*
G37*
G36*
X91225635Y-102165654D02*
G01*
X91442600Y-102231470D01*
X91442602Y-102231471D01*
X91642555Y-102338347D01*
X91817818Y-102482182D01*
X91961653Y-102657445D01*
X92033750Y-102792331D01*
X92068530Y-102857400D01*
X92104102Y-102974664D01*
X92134346Y-103074366D01*
X92151000Y-103243455D01*
X92151000Y-103779783D01*
X92153402Y-103804169D01*
X92160515Y-103827618D01*
X92172066Y-103849229D01*
X92187611Y-103868171D01*
X92206553Y-103883716D01*
X92228164Y-103895267D01*
X92251613Y-103902380D01*
X92275999Y-103904782D01*
X92300385Y-103902380D01*
X92323834Y-103895267D01*
X92345445Y-103883716D01*
X92364387Y-103868171D01*
X92379932Y-103849229D01*
X92385267Y-103839249D01*
X92388947Y-103833742D01*
X92388948Y-103833739D01*
X92427361Y-103776251D01*
X92476251Y-103727361D01*
X92533739Y-103688948D01*
X92533742Y-103688946D01*
X92597615Y-103662490D01*
X92597614Y-103662490D01*
X92597617Y-103662489D01*
X92665430Y-103649000D01*
X92734570Y-103649000D01*
X92802383Y-103662489D01*
X92802386Y-103662490D01*
X92802385Y-103662490D01*
X92866258Y-103688946D01*
X92923748Y-103727360D01*
X92972640Y-103776252D01*
X92996067Y-103811313D01*
X93011613Y-103830255D01*
X93030555Y-103845800D01*
X93052165Y-103857351D01*
X93075614Y-103864464D01*
X93100000Y-103866866D01*
X93124386Y-103864464D01*
X93147835Y-103857351D01*
X93169446Y-103845800D01*
X93188388Y-103830254D01*
X93203933Y-103811313D01*
X93227360Y-103776252D01*
X93276252Y-103727360D01*
X93333742Y-103688946D01*
X93397615Y-103662490D01*
X93397614Y-103662490D01*
X93397617Y-103662489D01*
X93465430Y-103649000D01*
X93534570Y-103649000D01*
X93602383Y-103662489D01*
X93602386Y-103662490D01*
X93602385Y-103662490D01*
X93666258Y-103688946D01*
X93723748Y-103727360D01*
X93772640Y-103776252D01*
X93796067Y-103811313D01*
X93811613Y-103830255D01*
X93830555Y-103845800D01*
X93852165Y-103857351D01*
X93875614Y-103864464D01*
X93900000Y-103866866D01*
X93924386Y-103864464D01*
X93947835Y-103857351D01*
X93969446Y-103845800D01*
X93988388Y-103830254D01*
X94003933Y-103811313D01*
X94027360Y-103776252D01*
X94076252Y-103727360D01*
X94133742Y-103688946D01*
X94197615Y-103662490D01*
X94197614Y-103662490D01*
X94197617Y-103662489D01*
X94265430Y-103649000D01*
X94334570Y-103649000D01*
X94402383Y-103662489D01*
X94402386Y-103662490D01*
X94402385Y-103662490D01*
X94466258Y-103688946D01*
X94523748Y-103727360D01*
X94572640Y-103776252D01*
X94596067Y-103811313D01*
X94611613Y-103830255D01*
X94630555Y-103845800D01*
X94652165Y-103857351D01*
X94675614Y-103864464D01*
X94700000Y-103866866D01*
X94724386Y-103864464D01*
X94747835Y-103857351D01*
X94769446Y-103845800D01*
X94788388Y-103830254D01*
X94803933Y-103811313D01*
X94827360Y-103776252D01*
X94876252Y-103727360D01*
X94933742Y-103688946D01*
X94997615Y-103662490D01*
X94997614Y-103662490D01*
X94997617Y-103662489D01*
X95065430Y-103649000D01*
X95134570Y-103649000D01*
X95202383Y-103662489D01*
X95202386Y-103662490D01*
X95202385Y-103662490D01*
X95266258Y-103688946D01*
X95323748Y-103727360D01*
X95372640Y-103776252D01*
X95411054Y-103833742D01*
X95423779Y-103864464D01*
X95437511Y-103897617D01*
X95451000Y-103965430D01*
X95451000Y-104034570D01*
X95437511Y-104102383D01*
X95437510Y-104102385D01*
X95411054Y-104166258D01*
X95372640Y-104223748D01*
X95323748Y-104272640D01*
X95266258Y-104311054D01*
X95209614Y-104334516D01*
X95188003Y-104346067D01*
X95169061Y-104361612D01*
X95153516Y-104380553D01*
X95141964Y-104402164D01*
X95134851Y-104425613D01*
X95132449Y-104449999D01*
X95134851Y-104474385D01*
X95141964Y-104497834D01*
X95153515Y-104519445D01*
X95169060Y-104538387D01*
X95188001Y-104553932D01*
X95209614Y-104565484D01*
X95266258Y-104588946D01*
X95323748Y-104627360D01*
X95372640Y-104676252D01*
X95411054Y-104733742D01*
X95423779Y-104764464D01*
X95437511Y-104797617D01*
X95451000Y-104865430D01*
X95451000Y-104934570D01*
X95437511Y-105002383D01*
X95437510Y-105002385D01*
X95411054Y-105066258D01*
X95372640Y-105123748D01*
X95323748Y-105172640D01*
X95266258Y-105211054D01*
X95209614Y-105234516D01*
X95188003Y-105246067D01*
X95169061Y-105261612D01*
X95153516Y-105280553D01*
X95141964Y-105302164D01*
X95134851Y-105325613D01*
X95132449Y-105349999D01*
X95134851Y-105374385D01*
X95141964Y-105397834D01*
X95153515Y-105419445D01*
X95169060Y-105438387D01*
X95188001Y-105453932D01*
X95209614Y-105465484D01*
X95266258Y-105488946D01*
X95323748Y-105527360D01*
X95372640Y-105576252D01*
X95411054Y-105633742D01*
X95423779Y-105664464D01*
X95437511Y-105697617D01*
X95451000Y-105765430D01*
X95451000Y-105834570D01*
X95437511Y-105902383D01*
X95437510Y-105902385D01*
X95411054Y-105966258D01*
X95411052Y-105966261D01*
X95372639Y-106023749D01*
X95323749Y-106072639D01*
X95266261Y-106111052D01*
X95266260Y-106111053D01*
X95266259Y-106111053D01*
X95217026Y-106131446D01*
X95195415Y-106142997D01*
X95176473Y-106158542D01*
X95160928Y-106177484D01*
X95149377Y-106199095D01*
X95142264Y-106222544D01*
X95139862Y-106246930D01*
X95142264Y-106271316D01*
X95149377Y-106294765D01*
X95160928Y-106316376D01*
X95176473Y-106335318D01*
X95195415Y-106350863D01*
X95217026Y-106362414D01*
X95228560Y-106366541D01*
X95442600Y-106431470D01*
X95442603Y-106431471D01*
X95642555Y-106538347D01*
X95817818Y-106682182D01*
X95961653Y-106857445D01*
X96007169Y-106942601D01*
X96068530Y-107057400D01*
X96134346Y-107274365D01*
X96134346Y-107274366D01*
X96156569Y-107500000D01*
X96134346Y-107725634D01*
X96068529Y-107942602D01*
X95961653Y-108142555D01*
X95817818Y-108317818D01*
X95642555Y-108461653D01*
X95442602Y-108568529D01*
X95442600Y-108568530D01*
X95225635Y-108634346D01*
X95169271Y-108639897D01*
X95056545Y-108651000D01*
X91943455Y-108651000D01*
X91830729Y-108639897D01*
X91774365Y-108634346D01*
X91557400Y-108568530D01*
X91557398Y-108568529D01*
X91357445Y-108461653D01*
X91182182Y-108317818D01*
X91038347Y-108142555D01*
X90931469Y-107942599D01*
X90863801Y-107719529D01*
X90854424Y-107696891D01*
X90840810Y-107676516D01*
X90823483Y-107659189D01*
X90803109Y-107645576D01*
X90780471Y-107636199D01*
X90557401Y-107568531D01*
X90357445Y-107461653D01*
X90261183Y-107382652D01*
X90182182Y-107317818D01*
X90038348Y-107142554D01*
X89931470Y-106942599D01*
X89865654Y-106725634D01*
X89849000Y-106556542D01*
X89849000Y-106020217D01*
X92151000Y-106020217D01*
X92151000Y-106224001D01*
X92153402Y-106248387D01*
X92160515Y-106271836D01*
X92172066Y-106293447D01*
X92187611Y-106312389D01*
X92206553Y-106327934D01*
X92228164Y-106339485D01*
X92251613Y-106346598D01*
X92275999Y-106349000D01*
X92479783Y-106349000D01*
X92504169Y-106346598D01*
X92527618Y-106339485D01*
X92549229Y-106327934D01*
X92568171Y-106312389D01*
X92583716Y-106293447D01*
X92595267Y-106271836D01*
X92602380Y-106248387D01*
X92604781Y-106224004D01*
X92795218Y-106224004D01*
X92797620Y-106248390D01*
X92804734Y-106271839D01*
X92816286Y-106293449D01*
X92831831Y-106312391D01*
X92850774Y-106327935D01*
X92872385Y-106339486D01*
X92895834Y-106346599D01*
X92920217Y-106349000D01*
X93279783Y-106349000D01*
X93304169Y-106346598D01*
X93327618Y-106339485D01*
X93349229Y-106327934D01*
X93368171Y-106312389D01*
X93383716Y-106293447D01*
X93395267Y-106271836D01*
X93402380Y-106248387D01*
X93404781Y-106224004D01*
X93595218Y-106224004D01*
X93597620Y-106248390D01*
X93604734Y-106271839D01*
X93616286Y-106293449D01*
X93631831Y-106312391D01*
X93650774Y-106327935D01*
X93672385Y-106339486D01*
X93695834Y-106346599D01*
X93720217Y-106349000D01*
X94079783Y-106349000D01*
X94104169Y-106346598D01*
X94127618Y-106339485D01*
X94149229Y-106327934D01*
X94168171Y-106312389D01*
X94183716Y-106293447D01*
X94195267Y-106271836D01*
X94202380Y-106248387D01*
X94204781Y-106224004D01*
X94395218Y-106224004D01*
X94397620Y-106248390D01*
X94404734Y-106271839D01*
X94416286Y-106293449D01*
X94431831Y-106312391D01*
X94450774Y-106327935D01*
X94472385Y-106339486D01*
X94495834Y-106346599D01*
X94520217Y-106349000D01*
X94879783Y-106349000D01*
X94904169Y-106346598D01*
X94927618Y-106339485D01*
X94949229Y-106327934D01*
X94968171Y-106312389D01*
X94983716Y-106293447D01*
X94995267Y-106271836D01*
X95002380Y-106248387D01*
X95004782Y-106224001D01*
X95002380Y-106199615D01*
X94995267Y-106176166D01*
X94983716Y-106154555D01*
X94968171Y-106135613D01*
X94949229Y-106120068D01*
X94939249Y-106114733D01*
X94933742Y-106111053D01*
X94933739Y-106111052D01*
X94876251Y-106072639D01*
X94827361Y-106023749D01*
X94803932Y-105988686D01*
X94788387Y-105969745D01*
X94769445Y-105954200D01*
X94747835Y-105942649D01*
X94724386Y-105935536D01*
X94700000Y-105933134D01*
X94675614Y-105935536D01*
X94652165Y-105942649D01*
X94630554Y-105954200D01*
X94611612Y-105969746D01*
X94596067Y-105988687D01*
X94572640Y-106023748D01*
X94523748Y-106072640D01*
X94460748Y-106114736D01*
X94450769Y-106120070D01*
X94431827Y-106135615D01*
X94416283Y-106154558D01*
X94404732Y-106176169D01*
X94397619Y-106199618D01*
X94395218Y-106224004D01*
X94204781Y-106224004D01*
X94204782Y-106224001D01*
X94202380Y-106199615D01*
X94195267Y-106176166D01*
X94183716Y-106154555D01*
X94168171Y-106135613D01*
X94149229Y-106120068D01*
X94139249Y-106114733D01*
X94133742Y-106111053D01*
X94133739Y-106111052D01*
X94076251Y-106072639D01*
X94027361Y-106023749D01*
X94003932Y-105988686D01*
X93988387Y-105969745D01*
X93969445Y-105954200D01*
X93947835Y-105942649D01*
X93924386Y-105935536D01*
X93900000Y-105933134D01*
X93875614Y-105935536D01*
X93852165Y-105942649D01*
X93830554Y-105954200D01*
X93811612Y-105969746D01*
X93796067Y-105988687D01*
X93772640Y-106023748D01*
X93723748Y-106072640D01*
X93660748Y-106114736D01*
X93650769Y-106120070D01*
X93631827Y-106135615D01*
X93616283Y-106154558D01*
X93604732Y-106176169D01*
X93597619Y-106199618D01*
X93595218Y-106224004D01*
X93404781Y-106224004D01*
X93404782Y-106224001D01*
X93402380Y-106199615D01*
X93395267Y-106176166D01*
X93383716Y-106154555D01*
X93368171Y-106135613D01*
X93349229Y-106120068D01*
X93339249Y-106114733D01*
X93333742Y-106111053D01*
X93333739Y-106111052D01*
X93276251Y-106072639D01*
X93227361Y-106023749D01*
X93203932Y-105988686D01*
X93188387Y-105969745D01*
X93169445Y-105954200D01*
X93147835Y-105942649D01*
X93124386Y-105935536D01*
X93100000Y-105933134D01*
X93075614Y-105935536D01*
X93052165Y-105942649D01*
X93030554Y-105954200D01*
X93011612Y-105969746D01*
X92996067Y-105988687D01*
X92972640Y-106023748D01*
X92923748Y-106072640D01*
X92860748Y-106114736D01*
X92850769Y-106120070D01*
X92831827Y-106135615D01*
X92816283Y-106154558D01*
X92804732Y-106176169D01*
X92797619Y-106199618D01*
X92795218Y-106224004D01*
X92604781Y-106224004D01*
X92604782Y-106224001D01*
X92602380Y-106199615D01*
X92595267Y-106176166D01*
X92583716Y-106154555D01*
X92568171Y-106135613D01*
X92549229Y-106120068D01*
X92539249Y-106114733D01*
X92533742Y-106111053D01*
X92533739Y-106111052D01*
X92476251Y-106072639D01*
X92427361Y-106023749D01*
X92391277Y-105969746D01*
X92385264Y-105960748D01*
X92379930Y-105950769D01*
X92364385Y-105931827D01*
X92345442Y-105916283D01*
X92323831Y-105904732D01*
X92300382Y-105897619D01*
X92275996Y-105895218D01*
X92251610Y-105897620D01*
X92228161Y-105904734D01*
X92206551Y-105916286D01*
X92187609Y-105931831D01*
X92172065Y-105950774D01*
X92160514Y-105972385D01*
X92153401Y-105995834D01*
X92151000Y-106020217D01*
X89849000Y-106020217D01*
X89849000Y-105120217D01*
X92151000Y-105120217D01*
X92151000Y-105579783D01*
X92153402Y-105604169D01*
X92160515Y-105627618D01*
X92172066Y-105649229D01*
X92187611Y-105668171D01*
X92206553Y-105683716D01*
X92228164Y-105695267D01*
X92251613Y-105702380D01*
X92275999Y-105704782D01*
X92300385Y-105702380D01*
X92323834Y-105695267D01*
X92345445Y-105683716D01*
X92364387Y-105668171D01*
X92379932Y-105649229D01*
X92385267Y-105639249D01*
X92388947Y-105633742D01*
X92388948Y-105633739D01*
X92427361Y-105576251D01*
X92476251Y-105527361D01*
X92533739Y-105488948D01*
X92533742Y-105488946D01*
X92590386Y-105465484D01*
X92611997Y-105453933D01*
X92630939Y-105438388D01*
X92646484Y-105419447D01*
X92658036Y-105397836D01*
X92665149Y-105374387D01*
X92667551Y-105350001D01*
X92667551Y-105349999D01*
X92732449Y-105349999D01*
X92734851Y-105374385D01*
X92741964Y-105397834D01*
X92753515Y-105419445D01*
X92769060Y-105438387D01*
X92788001Y-105453932D01*
X92809614Y-105465484D01*
X92866258Y-105488946D01*
X92923748Y-105527360D01*
X92972640Y-105576252D01*
X92996067Y-105611313D01*
X93011613Y-105630255D01*
X93030555Y-105645800D01*
X93052165Y-105657351D01*
X93075614Y-105664464D01*
X93100000Y-105666866D01*
X93124386Y-105664464D01*
X93147835Y-105657351D01*
X93169446Y-105645800D01*
X93188388Y-105630254D01*
X93203933Y-105611313D01*
X93227360Y-105576252D01*
X93276252Y-105527360D01*
X93333742Y-105488946D01*
X93390386Y-105465484D01*
X93411997Y-105453933D01*
X93430939Y-105438388D01*
X93446484Y-105419447D01*
X93458036Y-105397836D01*
X93465149Y-105374387D01*
X93467551Y-105350001D01*
X93467551Y-105349999D01*
X93532449Y-105349999D01*
X93534851Y-105374385D01*
X93541964Y-105397834D01*
X93553515Y-105419445D01*
X93569060Y-105438387D01*
X93588001Y-105453932D01*
X93609614Y-105465484D01*
X93666258Y-105488946D01*
X93723748Y-105527360D01*
X93772640Y-105576252D01*
X93796067Y-105611313D01*
X93811613Y-105630255D01*
X93830555Y-105645800D01*
X93852165Y-105657351D01*
X93875614Y-105664464D01*
X93900000Y-105666866D01*
X93924386Y-105664464D01*
X93947835Y-105657351D01*
X93969446Y-105645800D01*
X93988388Y-105630254D01*
X94003933Y-105611313D01*
X94027360Y-105576252D01*
X94076252Y-105527360D01*
X94133742Y-105488946D01*
X94190386Y-105465484D01*
X94211997Y-105453933D01*
X94230939Y-105438388D01*
X94246484Y-105419447D01*
X94258036Y-105397836D01*
X94265149Y-105374387D01*
X94267551Y-105350001D01*
X94267551Y-105349999D01*
X94332449Y-105349999D01*
X94334851Y-105374385D01*
X94341964Y-105397834D01*
X94353515Y-105419445D01*
X94369060Y-105438387D01*
X94388001Y-105453932D01*
X94409614Y-105465484D01*
X94466258Y-105488946D01*
X94523748Y-105527360D01*
X94572640Y-105576252D01*
X94596067Y-105611313D01*
X94611613Y-105630255D01*
X94630555Y-105645800D01*
X94652165Y-105657351D01*
X94675614Y-105664464D01*
X94700000Y-105666866D01*
X94724386Y-105664464D01*
X94747835Y-105657351D01*
X94769446Y-105645800D01*
X94788388Y-105630254D01*
X94803933Y-105611313D01*
X94827360Y-105576252D01*
X94876252Y-105527360D01*
X94933742Y-105488946D01*
X94990386Y-105465484D01*
X95011997Y-105453933D01*
X95030939Y-105438388D01*
X95046484Y-105419447D01*
X95058036Y-105397836D01*
X95065149Y-105374387D01*
X95067551Y-105350001D01*
X95065149Y-105325615D01*
X95058036Y-105302166D01*
X95046485Y-105280555D01*
X95030940Y-105261613D01*
X95011999Y-105246068D01*
X94990386Y-105234516D01*
X94933742Y-105211054D01*
X94876252Y-105172640D01*
X94827360Y-105123748D01*
X94803933Y-105088687D01*
X94788387Y-105069745D01*
X94769445Y-105054200D01*
X94747835Y-105042649D01*
X94724386Y-105035536D01*
X94700000Y-105033134D01*
X94675614Y-105035536D01*
X94652165Y-105042649D01*
X94630554Y-105054200D01*
X94611612Y-105069746D01*
X94596067Y-105088687D01*
X94572640Y-105123748D01*
X94523748Y-105172640D01*
X94466258Y-105211054D01*
X94409614Y-105234516D01*
X94388003Y-105246067D01*
X94369061Y-105261612D01*
X94353516Y-105280553D01*
X94341964Y-105302164D01*
X94334851Y-105325613D01*
X94332449Y-105349999D01*
X94267551Y-105349999D01*
X94265149Y-105325615D01*
X94258036Y-105302166D01*
X94246485Y-105280555D01*
X94230940Y-105261613D01*
X94211999Y-105246068D01*
X94190386Y-105234516D01*
X94133742Y-105211054D01*
X94076252Y-105172640D01*
X94027360Y-105123748D01*
X94003933Y-105088687D01*
X93988387Y-105069745D01*
X93969445Y-105054200D01*
X93947835Y-105042649D01*
X93924386Y-105035536D01*
X93900000Y-105033134D01*
X93875614Y-105035536D01*
X93852165Y-105042649D01*
X93830554Y-105054200D01*
X93811612Y-105069746D01*
X93796067Y-105088687D01*
X93772640Y-105123748D01*
X93723748Y-105172640D01*
X93666258Y-105211054D01*
X93609614Y-105234516D01*
X93588003Y-105246067D01*
X93569061Y-105261612D01*
X93553516Y-105280553D01*
X93541964Y-105302164D01*
X93534851Y-105325613D01*
X93532449Y-105349999D01*
X93467551Y-105349999D01*
X93465149Y-105325615D01*
X93458036Y-105302166D01*
X93446485Y-105280555D01*
X93430940Y-105261613D01*
X93411999Y-105246068D01*
X93390386Y-105234516D01*
X93333742Y-105211054D01*
X93276252Y-105172640D01*
X93227360Y-105123748D01*
X93203933Y-105088687D01*
X93188387Y-105069745D01*
X93169445Y-105054200D01*
X93147835Y-105042649D01*
X93124386Y-105035536D01*
X93100000Y-105033134D01*
X93075614Y-105035536D01*
X93052165Y-105042649D01*
X93030554Y-105054200D01*
X93011612Y-105069746D01*
X92996067Y-105088687D01*
X92972640Y-105123748D01*
X92923748Y-105172640D01*
X92866258Y-105211054D01*
X92809614Y-105234516D01*
X92788003Y-105246067D01*
X92769061Y-105261612D01*
X92753516Y-105280553D01*
X92741964Y-105302164D01*
X92734851Y-105325613D01*
X92732449Y-105349999D01*
X92667551Y-105349999D01*
X92665149Y-105325615D01*
X92658036Y-105302166D01*
X92646485Y-105280555D01*
X92630940Y-105261613D01*
X92611999Y-105246068D01*
X92590386Y-105234516D01*
X92533742Y-105211054D01*
X92476252Y-105172640D01*
X92427360Y-105123748D01*
X92385264Y-105060748D01*
X92379930Y-105050769D01*
X92364385Y-105031827D01*
X92345442Y-105016283D01*
X92323831Y-105004732D01*
X92300382Y-104997619D01*
X92275996Y-104995218D01*
X92251610Y-104997620D01*
X92228161Y-105004734D01*
X92206551Y-105016286D01*
X92187609Y-105031831D01*
X92172065Y-105050774D01*
X92160514Y-105072385D01*
X92153401Y-105095834D01*
X92151000Y-105120217D01*
X89849000Y-105120217D01*
X89849000Y-104220217D01*
X92151000Y-104220217D01*
X92151000Y-104679783D01*
X92153402Y-104704169D01*
X92160515Y-104727618D01*
X92172066Y-104749229D01*
X92187611Y-104768171D01*
X92206553Y-104783716D01*
X92228164Y-104795267D01*
X92251613Y-104802380D01*
X92275999Y-104804782D01*
X92300385Y-104802380D01*
X92323834Y-104795267D01*
X92345445Y-104783716D01*
X92364387Y-104768171D01*
X92379932Y-104749229D01*
X92385267Y-104739249D01*
X92388947Y-104733742D01*
X92388948Y-104733739D01*
X92427361Y-104676251D01*
X92476251Y-104627361D01*
X92533739Y-104588948D01*
X92533742Y-104588946D01*
X92590386Y-104565484D01*
X92611997Y-104553933D01*
X92630939Y-104538388D01*
X92646484Y-104519447D01*
X92658036Y-104497836D01*
X92665149Y-104474387D01*
X92667551Y-104450001D01*
X92667551Y-104449999D01*
X92732449Y-104449999D01*
X92734851Y-104474385D01*
X92741964Y-104497834D01*
X92753515Y-104519445D01*
X92769060Y-104538387D01*
X92788001Y-104553932D01*
X92809614Y-104565484D01*
X92866258Y-104588946D01*
X92923748Y-104627360D01*
X92972640Y-104676252D01*
X92996067Y-104711313D01*
X93011613Y-104730255D01*
X93030555Y-104745800D01*
X93052165Y-104757351D01*
X93075614Y-104764464D01*
X93100000Y-104766866D01*
X93124386Y-104764464D01*
X93147835Y-104757351D01*
X93169446Y-104745800D01*
X93188388Y-104730254D01*
X93203933Y-104711313D01*
X93227360Y-104676252D01*
X93276252Y-104627360D01*
X93333742Y-104588946D01*
X93390386Y-104565484D01*
X93411997Y-104553933D01*
X93430939Y-104538388D01*
X93446484Y-104519447D01*
X93458036Y-104497836D01*
X93465149Y-104474387D01*
X93467551Y-104450001D01*
X93467551Y-104449999D01*
X93532449Y-104449999D01*
X93534851Y-104474385D01*
X93541964Y-104497834D01*
X93553515Y-104519445D01*
X93569060Y-104538387D01*
X93588001Y-104553932D01*
X93609614Y-104565484D01*
X93666258Y-104588946D01*
X93723748Y-104627360D01*
X93772640Y-104676252D01*
X93796067Y-104711313D01*
X93811613Y-104730255D01*
X93830555Y-104745800D01*
X93852165Y-104757351D01*
X93875614Y-104764464D01*
X93900000Y-104766866D01*
X93924386Y-104764464D01*
X93947835Y-104757351D01*
X93969446Y-104745800D01*
X93988388Y-104730254D01*
X94003933Y-104711313D01*
X94027360Y-104676252D01*
X94076252Y-104627360D01*
X94133742Y-104588946D01*
X94190386Y-104565484D01*
X94211997Y-104553933D01*
X94230939Y-104538388D01*
X94246484Y-104519447D01*
X94258036Y-104497836D01*
X94265149Y-104474387D01*
X94267551Y-104450001D01*
X94267551Y-104449999D01*
X94332449Y-104449999D01*
X94334851Y-104474385D01*
X94341964Y-104497834D01*
X94353515Y-104519445D01*
X94369060Y-104538387D01*
X94388001Y-104553932D01*
X94409614Y-104565484D01*
X94466258Y-104588946D01*
X94523748Y-104627360D01*
X94572640Y-104676252D01*
X94596067Y-104711313D01*
X94611613Y-104730255D01*
X94630555Y-104745800D01*
X94652165Y-104757351D01*
X94675614Y-104764464D01*
X94700000Y-104766866D01*
X94724386Y-104764464D01*
X94747835Y-104757351D01*
X94769446Y-104745800D01*
X94788388Y-104730254D01*
X94803933Y-104711313D01*
X94827360Y-104676252D01*
X94876252Y-104627360D01*
X94933742Y-104588946D01*
X94990386Y-104565484D01*
X95011997Y-104553933D01*
X95030939Y-104538388D01*
X95046484Y-104519447D01*
X95058036Y-104497836D01*
X95065149Y-104474387D01*
X95067551Y-104450001D01*
X95065149Y-104425615D01*
X95058036Y-104402166D01*
X95046485Y-104380555D01*
X95030940Y-104361613D01*
X95011999Y-104346068D01*
X94990386Y-104334516D01*
X94933742Y-104311054D01*
X94876252Y-104272640D01*
X94827360Y-104223748D01*
X94803933Y-104188687D01*
X94788387Y-104169745D01*
X94769445Y-104154200D01*
X94747835Y-104142649D01*
X94724386Y-104135536D01*
X94700000Y-104133134D01*
X94675614Y-104135536D01*
X94652165Y-104142649D01*
X94630554Y-104154200D01*
X94611612Y-104169746D01*
X94596067Y-104188687D01*
X94572640Y-104223748D01*
X94523748Y-104272640D01*
X94466258Y-104311054D01*
X94409614Y-104334516D01*
X94388003Y-104346067D01*
X94369061Y-104361612D01*
X94353516Y-104380553D01*
X94341964Y-104402164D01*
X94334851Y-104425613D01*
X94332449Y-104449999D01*
X94267551Y-104449999D01*
X94265149Y-104425615D01*
X94258036Y-104402166D01*
X94246485Y-104380555D01*
X94230940Y-104361613D01*
X94211999Y-104346068D01*
X94190386Y-104334516D01*
X94133742Y-104311054D01*
X94076252Y-104272640D01*
X94027360Y-104223748D01*
X94003933Y-104188687D01*
X93988387Y-104169745D01*
X93969445Y-104154200D01*
X93947835Y-104142649D01*
X93924386Y-104135536D01*
X93900000Y-104133134D01*
X93875614Y-104135536D01*
X93852165Y-104142649D01*
X93830554Y-104154200D01*
X93811612Y-104169746D01*
X93796067Y-104188687D01*
X93772640Y-104223748D01*
X93723748Y-104272640D01*
X93666258Y-104311054D01*
X93609614Y-104334516D01*
X93588003Y-104346067D01*
X93569061Y-104361612D01*
X93553516Y-104380553D01*
X93541964Y-104402164D01*
X93534851Y-104425613D01*
X93532449Y-104449999D01*
X93467551Y-104449999D01*
X93465149Y-104425615D01*
X93458036Y-104402166D01*
X93446485Y-104380555D01*
X93430940Y-104361613D01*
X93411999Y-104346068D01*
X93390386Y-104334516D01*
X93333742Y-104311054D01*
X93276252Y-104272640D01*
X93227360Y-104223748D01*
X93203933Y-104188687D01*
X93188387Y-104169745D01*
X93169445Y-104154200D01*
X93147835Y-104142649D01*
X93124386Y-104135536D01*
X93100000Y-104133134D01*
X93075614Y-104135536D01*
X93052165Y-104142649D01*
X93030554Y-104154200D01*
X93011612Y-104169746D01*
X92996067Y-104188687D01*
X92972640Y-104223748D01*
X92923748Y-104272640D01*
X92866258Y-104311054D01*
X92809614Y-104334516D01*
X92788003Y-104346067D01*
X92769061Y-104361612D01*
X92753516Y-104380553D01*
X92741964Y-104402164D01*
X92734851Y-104425613D01*
X92732449Y-104449999D01*
X92667551Y-104449999D01*
X92665149Y-104425615D01*
X92658036Y-104402166D01*
X92646485Y-104380555D01*
X92630940Y-104361613D01*
X92611999Y-104346068D01*
X92590386Y-104334516D01*
X92533742Y-104311054D01*
X92476252Y-104272640D01*
X92427360Y-104223748D01*
X92385264Y-104160748D01*
X92379930Y-104150769D01*
X92364385Y-104131827D01*
X92345442Y-104116283D01*
X92323831Y-104104732D01*
X92300382Y-104097619D01*
X92275996Y-104095218D01*
X92251610Y-104097620D01*
X92228161Y-104104734D01*
X92206551Y-104116286D01*
X92187609Y-104131831D01*
X92172065Y-104150774D01*
X92160514Y-104172385D01*
X92153401Y-104195834D01*
X92151000Y-104220217D01*
X89849000Y-104220217D01*
X89849001Y-103243457D01*
X89865655Y-103074365D01*
X89931471Y-102857400D01*
X89966251Y-102792331D01*
X90038348Y-102657445D01*
X90182183Y-102482182D01*
X90357446Y-102338347D01*
X90557399Y-102231471D01*
X90557401Y-102231470D01*
X90774366Y-102165654D01*
X91000000Y-102143431D01*
X91225635Y-102165654D01*
G37*
G36*
X103127617Y-102583420D02*
G01*
X103208399Y-102607925D01*
X103250335Y-102620646D01*
X103363424Y-102681094D01*
X103462554Y-102762447D01*
X103543906Y-102861575D01*
X103604354Y-102974664D01*
X103614040Y-103006596D01*
X103641580Y-103097382D01*
X103651000Y-103193027D01*
X103651000Y-103806973D01*
X103641580Y-103902618D01*
X103622526Y-103965430D01*
X103604354Y-104025336D01*
X103543906Y-104138425D01*
X103462554Y-104237554D01*
X103363425Y-104318906D01*
X103250336Y-104379354D01*
X103218404Y-104389040D01*
X103127618Y-104416580D01*
X103000000Y-104429149D01*
X102872383Y-104416580D01*
X102781597Y-104389040D01*
X102749665Y-104379354D01*
X102636576Y-104318906D01*
X102537447Y-104237554D01*
X102456096Y-104138427D01*
X102456095Y-104138425D01*
X102427957Y-104085783D01*
X102395645Y-104025333D01*
X102377474Y-103965430D01*
X102358420Y-103902618D01*
X102349000Y-103806973D01*
X102349000Y-103193028D01*
X102358420Y-103097383D01*
X102395645Y-102974669D01*
X102395646Y-102974665D01*
X102456094Y-102861576D01*
X102537447Y-102762446D01*
X102636575Y-102681094D01*
X102749664Y-102620646D01*
X102791600Y-102607925D01*
X102872382Y-102583420D01*
X103000000Y-102570851D01*
X103127617Y-102583420D01*
G37*
G36*
X125127617Y-102583420D02*
G01*
X125208399Y-102607925D01*
X125250335Y-102620646D01*
X125363424Y-102681094D01*
X125462554Y-102762447D01*
X125543906Y-102861575D01*
X125604354Y-102974664D01*
X125614040Y-103006596D01*
X125641580Y-103097382D01*
X125651000Y-103193027D01*
X125651000Y-103806973D01*
X125641580Y-103902618D01*
X125622526Y-103965430D01*
X125604354Y-104025336D01*
X125543906Y-104138425D01*
X125462554Y-104237554D01*
X125363425Y-104318906D01*
X125250336Y-104379354D01*
X125218404Y-104389040D01*
X125127618Y-104416580D01*
X125000000Y-104429149D01*
X124872383Y-104416580D01*
X124781597Y-104389040D01*
X124749665Y-104379354D01*
X124636576Y-104318906D01*
X124537447Y-104237554D01*
X124456096Y-104138427D01*
X124456095Y-104138425D01*
X124427957Y-104085783D01*
X124395645Y-104025333D01*
X124377474Y-103965430D01*
X124358420Y-103902618D01*
X124349000Y-103806973D01*
X124349000Y-103193028D01*
X124358420Y-103097383D01*
X124395645Y-102974669D01*
X124395646Y-102974665D01*
X124456094Y-102861576D01*
X124537447Y-102762446D01*
X124636575Y-102681094D01*
X124749664Y-102620646D01*
X124791600Y-102607925D01*
X124872382Y-102583420D01*
X125000000Y-102570851D01*
X125127617Y-102583420D01*
G37*
G36*
X114127617Y-102583420D02*
G01*
X114208399Y-102607925D01*
X114250335Y-102620646D01*
X114363424Y-102681094D01*
X114462554Y-102762447D01*
X114543906Y-102861575D01*
X114604354Y-102974664D01*
X114614040Y-103006596D01*
X114641580Y-103097382D01*
X114651000Y-103193027D01*
X114651000Y-103806973D01*
X114641580Y-103902618D01*
X114622526Y-103965430D01*
X114604354Y-104025336D01*
X114543906Y-104138425D01*
X114462554Y-104237554D01*
X114363425Y-104318906D01*
X114250336Y-104379354D01*
X114218404Y-104389040D01*
X114127618Y-104416580D01*
X114000000Y-104429149D01*
X113872383Y-104416580D01*
X113781597Y-104389040D01*
X113749665Y-104379354D01*
X113636576Y-104318906D01*
X113537447Y-104237554D01*
X113456096Y-104138427D01*
X113456095Y-104138425D01*
X113427957Y-104085783D01*
X113395645Y-104025333D01*
X113377474Y-103965430D01*
X113358420Y-103902618D01*
X113349000Y-103806973D01*
X113349000Y-103193028D01*
X113358420Y-103097383D01*
X113395645Y-102974669D01*
X113395646Y-102974665D01*
X113456094Y-102861576D01*
X113537447Y-102762446D01*
X113636575Y-102681094D01*
X113749664Y-102620646D01*
X113791600Y-102607925D01*
X113872382Y-102583420D01*
X114000000Y-102570851D01*
X114127617Y-102583420D01*
G37*
G36*
X112491242Y-102578404D02*
G01*
X112528337Y-102589657D01*
X112562515Y-102607925D01*
X112592481Y-102632519D01*
X112617075Y-102662485D01*
X112635343Y-102696663D01*
X112646596Y-102733758D01*
X112651000Y-102778474D01*
X112651000Y-104221526D01*
X112646596Y-104266242D01*
X112635343Y-104303337D01*
X112617075Y-104337515D01*
X112592481Y-104367481D01*
X112562515Y-104392075D01*
X112528337Y-104410343D01*
X112491242Y-104421596D01*
X112446526Y-104426000D01*
X111553474Y-104426000D01*
X111508758Y-104421596D01*
X111471663Y-104410343D01*
X111437485Y-104392075D01*
X111407519Y-104367481D01*
X111382925Y-104337515D01*
X111364657Y-104303337D01*
X111353404Y-104266242D01*
X111349000Y-104221526D01*
X111349000Y-102778474D01*
X111353404Y-102733758D01*
X111364657Y-102696663D01*
X111382925Y-102662485D01*
X111407519Y-102632519D01*
X111437485Y-102607925D01*
X111471663Y-102589657D01*
X111508758Y-102578404D01*
X111553474Y-102574000D01*
X112446526Y-102574000D01*
X112491242Y-102578404D01*
G37*
G36*
X101491242Y-102578404D02*
G01*
X101528337Y-102589657D01*
X101562515Y-102607925D01*
X101592481Y-102632519D01*
X101617075Y-102662485D01*
X101635343Y-102696663D01*
X101646596Y-102733758D01*
X101651000Y-102778474D01*
X101651000Y-104221526D01*
X101646596Y-104266242D01*
X101635343Y-104303337D01*
X101617075Y-104337515D01*
X101592481Y-104367481D01*
X101562515Y-104392075D01*
X101528337Y-104410343D01*
X101491242Y-104421596D01*
X101446526Y-104426000D01*
X100553474Y-104426000D01*
X100508758Y-104421596D01*
X100471663Y-104410343D01*
X100437485Y-104392075D01*
X100407519Y-104367481D01*
X100382925Y-104337515D01*
X100364657Y-104303337D01*
X100353404Y-104266242D01*
X100349000Y-104221526D01*
X100349000Y-102778474D01*
X100353404Y-102733758D01*
X100364657Y-102696663D01*
X100382925Y-102662485D01*
X100407519Y-102632519D01*
X100437485Y-102607925D01*
X100471663Y-102589657D01*
X100508758Y-102578404D01*
X100553474Y-102574000D01*
X101446526Y-102574000D01*
X101491242Y-102578404D01*
G37*
G36*
X123491242Y-102578404D02*
G01*
X123528337Y-102589657D01*
X123562515Y-102607925D01*
X123592481Y-102632519D01*
X123617075Y-102662485D01*
X123635343Y-102696663D01*
X123646596Y-102733758D01*
X123651000Y-102778474D01*
X123651000Y-104221526D01*
X123646596Y-104266242D01*
X123635343Y-104303337D01*
X123617075Y-104337515D01*
X123592481Y-104367481D01*
X123562515Y-104392075D01*
X123528337Y-104410343D01*
X123491242Y-104421596D01*
X123446526Y-104426000D01*
X122553474Y-104426000D01*
X122508758Y-104421596D01*
X122471663Y-104410343D01*
X122437485Y-104392075D01*
X122407519Y-104367481D01*
X122382925Y-104337515D01*
X122364657Y-104303337D01*
X122353404Y-104266242D01*
X122349000Y-104221526D01*
X122349000Y-102778474D01*
X122353404Y-102733758D01*
X122364657Y-102696663D01*
X122382925Y-102662485D01*
X122407519Y-102632519D01*
X122437485Y-102607925D01*
X122471663Y-102589657D01*
X122508758Y-102578404D01*
X122553474Y-102574000D01*
X123446526Y-102574000D01*
X123491242Y-102578404D01*
G37*
M02*
