M48
; DRILL file {KiCad (5.1.5)-3} date 06-09-20 00:36:34
; FORMAT={-:-/ absolute / inch / decimal}
; #@! TF.CreationDate,2020-09-06T00:36:34+02:00
; #@! TF.GenerationSoftware,Kicad,Pcbnew,(5.1.5)-3
FMAT,2
INCH
T1C0.0157
T2C0.0295
T3C0.0374
T4C0.0787
T5C0.1260
%
G90
G05
T1
X3.6496Y-4.0945
X3.6496Y-4.1299
X3.6496Y-4.1654
X3.6496Y-4.4173
X3.6496Y-4.4528
X3.6496Y-4.4882
X3.6811Y-4.0945
X3.6811Y-4.1299
X3.6811Y-4.1654
X3.6811Y-4.4173
X3.6811Y-4.4528
X3.6811Y-4.4882
X3.7126Y-4.0945
X3.7126Y-4.1299
X3.7126Y-4.1654
X3.7126Y-4.4173
X3.7126Y-4.4528
X3.7126Y-4.4882
X3.7441Y-4.0945
X3.7441Y-4.1299
X3.7441Y-4.1654
X3.7441Y-4.4173
X3.7441Y-4.4528
X3.7441Y-4.4882
T2
X4.8425Y-4.0748
X4.9213Y-4.0748
X4.4094Y-4.0748
X4.4882Y-4.0748
X3.9764Y-4.0748
X4.0551Y-4.0748
T3
X4.7835Y-4.3504
X4.8819Y-4.3504
X4.9803Y-4.3504
X4.1535Y-4.6063
X4.252Y-4.6063
X4.3504Y-4.6063
X4.4488Y-4.6063
X4.5472Y-4.6063
X4.6457Y-4.6063
X4.7441Y-4.6063
X4.3504Y-4.3504
X4.4488Y-4.3504
X4.5472Y-4.3504
X3.9173Y-4.3504
X4.0157Y-4.3504
X4.1142Y-4.3504
T5
X5.0Y-4.6063
X3.8976Y-4.6063
T4
G00X3.5827Y-4.0669
M15
G01X3.5827Y-4.1929
M16
G05
G00X3.5827Y-4.3898
M15
G01X3.5827Y-4.5157
M16
G05
G00X3.7402Y-4.2323
M15
G01X3.622Y-4.2323
M16
G05
G00X3.7402Y-4.3504
M15
G01X3.622Y-4.3504
M16
G05
T0
M30
