G04 #@! TF.GenerationSoftware,KiCad,Pcbnew,(5.1.5)-3*
G04 #@! TF.CreationDate,2020-09-06T00:36:18+02:00*
G04 #@! TF.ProjectId,2S_serial_charging_board,32535f73-6572-4696-916c-5f6368617267,1*
G04 #@! TF.SameCoordinates,Original*
G04 #@! TF.FileFunction,Legend,Top*
G04 #@! TF.FilePolarity,Positive*
%FSLAX46Y46*%
G04 Gerber Fmt 4.6, Leading zero omitted, Abs format (unit mm)*
G04 Created by KiCad (PCBNEW (5.1.5)-3) date 2020-09-06 00:36:18*
%MOMM*%
%LPD*%
G04 APERTURE LIST*
%ADD10C,0.120000*%
%ADD11C,0.300000*%
%ADD12C,0.150000*%
G04 APERTURE END LIST*
D10*
X83500000Y-109000000D02*
X92000000Y-113000000D01*
X93500000Y-111500000D02*
X83500000Y-109000000D01*
X83500000Y-109000000D02*
X93500000Y-106500000D01*
X83500000Y-109000000D02*
X92000000Y-105000000D01*
D11*
X65000000Y-108064285D02*
X64904761Y-108159523D01*
X64619047Y-108254761D01*
X64428571Y-108254761D01*
X64142857Y-108159523D01*
X63952380Y-107969047D01*
X63857142Y-107778571D01*
X63761904Y-107397619D01*
X63761904Y-107111904D01*
X63857142Y-106730952D01*
X63952380Y-106540476D01*
X64142857Y-106350000D01*
X64428571Y-106254761D01*
X64619047Y-106254761D01*
X64904761Y-106350000D01*
X65000000Y-106445238D01*
X65761904Y-107683333D02*
X66714285Y-107683333D01*
X65571428Y-108254761D02*
X66238095Y-106254761D01*
X66904761Y-108254761D01*
X67476190Y-108159523D02*
X67761904Y-108254761D01*
X68238095Y-108254761D01*
X68428571Y-108159523D01*
X68523809Y-108064285D01*
X68619047Y-107873809D01*
X68619047Y-107683333D01*
X68523809Y-107492857D01*
X68428571Y-107397619D01*
X68238095Y-107302380D01*
X67857142Y-107207142D01*
X67666666Y-107111904D01*
X67571428Y-107016666D01*
X67476190Y-106826190D01*
X67476190Y-106635714D01*
X67571428Y-106445238D01*
X67666666Y-106350000D01*
X67857142Y-106254761D01*
X68333333Y-106254761D01*
X68619047Y-106350000D01*
X69190476Y-106254761D02*
X70333333Y-106254761D01*
X69761904Y-108254761D02*
X69761904Y-106254761D01*
X71000000Y-107207142D02*
X71666666Y-107207142D01*
X71952380Y-108254761D02*
X71000000Y-108254761D01*
X71000000Y-106254761D01*
X71952380Y-106254761D01*
X73761904Y-108254761D02*
X72809523Y-108254761D01*
X72809523Y-106254761D01*
X75380952Y-108254761D02*
X74428571Y-108254761D01*
X74428571Y-106254761D01*
X75952380Y-107683333D02*
X76904761Y-107683333D01*
X75761904Y-108254761D02*
X76428571Y-106254761D01*
X77095238Y-108254761D01*
X77476190Y-106254761D02*
X78619047Y-106254761D01*
X78047619Y-108254761D02*
X78047619Y-106254761D01*
X79285714Y-107207142D02*
X79952380Y-107207142D01*
X80238095Y-108254761D02*
X79285714Y-108254761D01*
X79285714Y-106254761D01*
X80238095Y-106254761D01*
X81095238Y-108254761D02*
X81095238Y-106254761D01*
X81571428Y-106254761D01*
X81857142Y-106350000D01*
X82047619Y-106540476D01*
X82142857Y-106730952D01*
X82238095Y-107111904D01*
X82238095Y-107397619D01*
X82142857Y-107778571D01*
X82047619Y-107969047D01*
X81857142Y-108159523D01*
X81571428Y-108254761D01*
X81095238Y-108254761D01*
X63285714Y-110507142D02*
X63952380Y-110507142D01*
X64238095Y-111554761D02*
X63285714Y-111554761D01*
X63285714Y-109554761D01*
X64238095Y-109554761D01*
X65095238Y-111554761D02*
X65095238Y-109554761D01*
X65571428Y-109554761D01*
X65857142Y-109650000D01*
X66047619Y-109840476D01*
X66142857Y-110030952D01*
X66238095Y-110411904D01*
X66238095Y-110697619D01*
X66142857Y-111078571D01*
X66047619Y-111269047D01*
X65857142Y-111459523D01*
X65571428Y-111554761D01*
X65095238Y-111554761D01*
X68142857Y-109650000D02*
X67952380Y-109554761D01*
X67666666Y-109554761D01*
X67380952Y-109650000D01*
X67190476Y-109840476D01*
X67095238Y-110030952D01*
X66999999Y-110411904D01*
X66999999Y-110697619D01*
X67095238Y-111078571D01*
X67190476Y-111269047D01*
X67380952Y-111459523D01*
X67666666Y-111554761D01*
X67857142Y-111554761D01*
X68142857Y-111459523D01*
X68238095Y-111364285D01*
X68238095Y-110697619D01*
X67857142Y-110697619D01*
X69095238Y-110507142D02*
X69761904Y-110507142D01*
X70047619Y-111554761D02*
X69095238Y-111554761D01*
X69095238Y-109554761D01*
X70047619Y-109554761D01*
X70809523Y-111459523D02*
X71095238Y-111554761D01*
X71571428Y-111554761D01*
X71761904Y-111459523D01*
X71857142Y-111364285D01*
X71952380Y-111173809D01*
X71952380Y-110983333D01*
X71857142Y-110792857D01*
X71761904Y-110697619D01*
X71571428Y-110602380D01*
X71190476Y-110507142D01*
X71000000Y-110411904D01*
X70904761Y-110316666D01*
X70809523Y-110126190D01*
X70809523Y-109935714D01*
X70904761Y-109745238D01*
X71000000Y-109650000D01*
X71190476Y-109554761D01*
X71666666Y-109554761D01*
X71952380Y-109650000D01*
X75190476Y-110221428D02*
X75190476Y-111554761D01*
X74714285Y-109459523D02*
X74238095Y-110888095D01*
X75476190Y-110888095D01*
X77761904Y-111554761D02*
X77761904Y-109554761D01*
X78523809Y-109554761D01*
X78714285Y-109650000D01*
X78809523Y-109745238D01*
X78904761Y-109935714D01*
X78904761Y-110221428D01*
X78809523Y-110411904D01*
X78714285Y-110507142D01*
X78523809Y-110602380D01*
X77761904Y-110602380D01*
X80904761Y-111364285D02*
X80809523Y-111459523D01*
X80523809Y-111554761D01*
X80333333Y-111554761D01*
X80047619Y-111459523D01*
X79857142Y-111269047D01*
X79761904Y-111078571D01*
X79666666Y-110697619D01*
X79666666Y-110411904D01*
X79761904Y-110030952D01*
X79857142Y-109840476D01*
X80047619Y-109650000D01*
X80333333Y-109554761D01*
X80523809Y-109554761D01*
X80809523Y-109650000D01*
X80904761Y-109745238D01*
X81666666Y-111459523D02*
X81952380Y-111554761D01*
X82428571Y-111554761D01*
X82619047Y-111459523D01*
X82714285Y-111364285D01*
X82809523Y-111173809D01*
X82809523Y-110983333D01*
X82714285Y-110792857D01*
X82619047Y-110697619D01*
X82428571Y-110602380D01*
X82047619Y-110507142D01*
X81857142Y-110411904D01*
X81761904Y-110316666D01*
X81666666Y-110126190D01*
X81666666Y-109935714D01*
X81761904Y-109745238D01*
X81857142Y-109650000D01*
X82047619Y-109554761D01*
X82523809Y-109554761D01*
X82809523Y-109650000D01*
X123738095Y-114142857D02*
X125261904Y-114142857D01*
X124500000Y-114904761D02*
X124500000Y-113380952D01*
X100738095Y-114142857D02*
X102261904Y-114142857D01*
D12*
X93119047Y-116071428D02*
X93880952Y-116071428D01*
X93500000Y-116452380D02*
X93500000Y-115690476D01*
X93119047Y-102071428D02*
X93880952Y-102071428D01*
X97095238Y-103428571D02*
X97238095Y-103476190D01*
X97285714Y-103523809D01*
X97333333Y-103619047D01*
X97333333Y-103761904D01*
X97285714Y-103857142D01*
X97238095Y-103904761D01*
X97142857Y-103952380D01*
X96761904Y-103952380D01*
X96761904Y-102952380D01*
X97095238Y-102952380D01*
X97190476Y-103000000D01*
X97238095Y-103047619D01*
X97285714Y-103142857D01*
X97285714Y-103238095D01*
X97238095Y-103333333D01*
X97190476Y-103380952D01*
X97095238Y-103428571D01*
X96761904Y-103428571D01*
X98285714Y-103952380D02*
X97714285Y-103952380D01*
X98000000Y-103952380D02*
X98000000Y-102952380D01*
X97904761Y-103095238D01*
X97809523Y-103190476D01*
X97714285Y-103238095D01*
X108095238Y-103428571D02*
X108238095Y-103476190D01*
X108285714Y-103523809D01*
X108333333Y-103619047D01*
X108333333Y-103761904D01*
X108285714Y-103857142D01*
X108238095Y-103904761D01*
X108142857Y-103952380D01*
X107761904Y-103952380D01*
X107761904Y-102952380D01*
X108095238Y-102952380D01*
X108190476Y-103000000D01*
X108238095Y-103047619D01*
X108285714Y-103142857D01*
X108285714Y-103238095D01*
X108238095Y-103333333D01*
X108190476Y-103380952D01*
X108095238Y-103428571D01*
X107761904Y-103428571D01*
X108714285Y-103047619D02*
X108761904Y-103000000D01*
X108857142Y-102952380D01*
X109095238Y-102952380D01*
X109190476Y-103000000D01*
X109238095Y-103047619D01*
X109285714Y-103142857D01*
X109285714Y-103238095D01*
X109238095Y-103380952D01*
X108666666Y-103952380D01*
X109285714Y-103952380D01*
X119095238Y-103428571D02*
X119238095Y-103476190D01*
X119285714Y-103523809D01*
X119333333Y-103619047D01*
X119333333Y-103761904D01*
X119285714Y-103857142D01*
X119238095Y-103904761D01*
X119142857Y-103952380D01*
X118761904Y-103952380D01*
X118761904Y-102952380D01*
X119095238Y-102952380D01*
X119190476Y-103000000D01*
X119238095Y-103047619D01*
X119285714Y-103142857D01*
X119285714Y-103238095D01*
X119238095Y-103333333D01*
X119190476Y-103380952D01*
X119095238Y-103428571D01*
X118761904Y-103428571D01*
X119666666Y-102952380D02*
X120285714Y-102952380D01*
X119952380Y-103333333D01*
X120095238Y-103333333D01*
X120190476Y-103380952D01*
X120238095Y-103428571D01*
X120285714Y-103523809D01*
X120285714Y-103761904D01*
X120238095Y-103857142D01*
X120190476Y-103904761D01*
X120095238Y-103952380D01*
X119809523Y-103952380D01*
X119714285Y-103904761D01*
X119666666Y-103857142D01*
D10*
X120640000Y-101390000D02*
X120640000Y-102640000D01*
X121890000Y-101390000D02*
X120640000Y-101390000D01*
X124000000Y-105800000D02*
X124000000Y-105300000D01*
X124100000Y-105300000D02*
X124100000Y-105800000D01*
X123900000Y-105300000D02*
X124100000Y-105300000D01*
X123900000Y-105800000D02*
X123900000Y-105300000D01*
X127060000Y-104300000D02*
X126450000Y-104300000D01*
X127060000Y-103000000D02*
X126450000Y-103000000D01*
X120940000Y-104300000D02*
X121550000Y-104300000D01*
X120940000Y-103000000D02*
X121550000Y-103000000D01*
X124500000Y-102300000D02*
X124500000Y-101690000D01*
X126450000Y-102300000D02*
X124500000Y-102300000D01*
X126450000Y-105800000D02*
X126450000Y-102300000D01*
X121550000Y-105800000D02*
X126450000Y-105800000D01*
X121550000Y-102300000D02*
X121550000Y-105800000D01*
X123500000Y-102300000D02*
X121550000Y-102300000D01*
X123500000Y-101690000D02*
X123500000Y-102300000D01*
X122700000Y-101590000D02*
X122400000Y-101590000D01*
X122400000Y-101490000D02*
X122400000Y-101690000D01*
X122700000Y-101490000D02*
X122400000Y-101490000D01*
X122700000Y-101690000D02*
X122700000Y-101490000D01*
X127060000Y-101690000D02*
X120940000Y-101690000D01*
X127060000Y-106410000D02*
X127060000Y-101690000D01*
X120940000Y-106410000D02*
X127060000Y-106410000D01*
X120940000Y-101690000D02*
X120940000Y-106410000D01*
X109640000Y-101390000D02*
X109640000Y-102640000D01*
X110890000Y-101390000D02*
X109640000Y-101390000D01*
X113000000Y-105800000D02*
X113000000Y-105300000D01*
X113100000Y-105300000D02*
X113100000Y-105800000D01*
X112900000Y-105300000D02*
X113100000Y-105300000D01*
X112900000Y-105800000D02*
X112900000Y-105300000D01*
X116060000Y-104300000D02*
X115450000Y-104300000D01*
X116060000Y-103000000D02*
X115450000Y-103000000D01*
X109940000Y-104300000D02*
X110550000Y-104300000D01*
X109940000Y-103000000D02*
X110550000Y-103000000D01*
X113500000Y-102300000D02*
X113500000Y-101690000D01*
X115450000Y-102300000D02*
X113500000Y-102300000D01*
X115450000Y-105800000D02*
X115450000Y-102300000D01*
X110550000Y-105800000D02*
X115450000Y-105800000D01*
X110550000Y-102300000D02*
X110550000Y-105800000D01*
X112500000Y-102300000D02*
X110550000Y-102300000D01*
X112500000Y-101690000D02*
X112500000Y-102300000D01*
X111700000Y-101590000D02*
X111400000Y-101590000D01*
X111400000Y-101490000D02*
X111400000Y-101690000D01*
X111700000Y-101490000D02*
X111400000Y-101490000D01*
X111700000Y-101690000D02*
X111700000Y-101490000D01*
X116060000Y-101690000D02*
X109940000Y-101690000D01*
X116060000Y-106410000D02*
X116060000Y-101690000D01*
X109940000Y-106410000D02*
X116060000Y-106410000D01*
X109940000Y-101690000D02*
X109940000Y-106410000D01*
X98640000Y-101390000D02*
X98640000Y-102640000D01*
X99890000Y-101390000D02*
X98640000Y-101390000D01*
X102000000Y-105800000D02*
X102000000Y-105300000D01*
X102100000Y-105300000D02*
X102100000Y-105800000D01*
X101900000Y-105300000D02*
X102100000Y-105300000D01*
X101900000Y-105800000D02*
X101900000Y-105300000D01*
X105060000Y-104300000D02*
X104450000Y-104300000D01*
X105060000Y-103000000D02*
X104450000Y-103000000D01*
X98940000Y-104300000D02*
X99550000Y-104300000D01*
X98940000Y-103000000D02*
X99550000Y-103000000D01*
X102500000Y-102300000D02*
X102500000Y-101690000D01*
X104450000Y-102300000D02*
X102500000Y-102300000D01*
X104450000Y-105800000D02*
X104450000Y-102300000D01*
X99550000Y-105800000D02*
X104450000Y-105800000D01*
X99550000Y-102300000D02*
X99550000Y-105800000D01*
X101500000Y-102300000D02*
X99550000Y-102300000D01*
X101500000Y-101690000D02*
X101500000Y-102300000D01*
X100700000Y-101590000D02*
X100400000Y-101590000D01*
X100400000Y-101490000D02*
X100400000Y-101690000D01*
X100700000Y-101490000D02*
X100400000Y-101490000D01*
X100700000Y-101690000D02*
X100700000Y-101490000D01*
X105060000Y-101690000D02*
X98940000Y-101690000D01*
X105060000Y-106410000D02*
X105060000Y-101690000D01*
X98940000Y-106410000D02*
X105060000Y-106410000D01*
X98940000Y-101690000D02*
X98940000Y-106410000D01*
X123350000Y-119750000D02*
X123350000Y-118500000D01*
X122100000Y-119750000D02*
X123350000Y-119750000D01*
X103700000Y-114250000D02*
X113000000Y-114250000D01*
X103700000Y-117200000D02*
X103700000Y-114250000D01*
X102950000Y-117200000D02*
X103700000Y-117200000D01*
X122300000Y-114250000D02*
X113000000Y-114250000D01*
X122300000Y-117200000D02*
X122300000Y-114250000D01*
X123050000Y-117200000D02*
X122300000Y-117200000D01*
X102950000Y-119450000D02*
X104750000Y-119450000D01*
X102950000Y-118700000D02*
X102950000Y-119450000D01*
X104750000Y-118700000D02*
X102950000Y-118700000D01*
X104750000Y-119450000D02*
X104750000Y-118700000D01*
X121250000Y-119450000D02*
X123050000Y-119450000D01*
X121250000Y-118700000D02*
X121250000Y-119450000D01*
X123050000Y-118700000D02*
X121250000Y-118700000D01*
X123050000Y-119450000D02*
X123050000Y-118700000D01*
X106250000Y-119450000D02*
X119750000Y-119450000D01*
X106250000Y-118700000D02*
X106250000Y-119450000D01*
X119750000Y-118700000D02*
X106250000Y-118700000D01*
X119750000Y-119450000D02*
X119750000Y-118700000D01*
X102940000Y-119460000D02*
X123060000Y-119460000D01*
X102940000Y-113490000D02*
X102940000Y-119460000D01*
X123060000Y-113490000D02*
X102940000Y-113490000D01*
X123060000Y-119460000D02*
X123060000Y-113490000D01*
X107350000Y-113250000D02*
X107350000Y-112000000D01*
X106100000Y-113250000D02*
X107350000Y-113250000D01*
X97700000Y-107750000D02*
X102000000Y-107750000D01*
X97700000Y-110700000D02*
X97700000Y-107750000D01*
X96950000Y-110700000D02*
X97700000Y-110700000D01*
X106300000Y-107750000D02*
X102000000Y-107750000D01*
X106300000Y-110700000D02*
X106300000Y-107750000D01*
X107050000Y-110700000D02*
X106300000Y-110700000D01*
X96950000Y-112950000D02*
X98750000Y-112950000D01*
X96950000Y-112200000D02*
X96950000Y-112950000D01*
X98750000Y-112200000D02*
X96950000Y-112200000D01*
X98750000Y-112950000D02*
X98750000Y-112200000D01*
X105250000Y-112950000D02*
X107050000Y-112950000D01*
X105250000Y-112200000D02*
X105250000Y-112950000D01*
X107050000Y-112200000D02*
X105250000Y-112200000D01*
X107050000Y-112950000D02*
X107050000Y-112200000D01*
X100250000Y-112950000D02*
X103750000Y-112950000D01*
X100250000Y-112200000D02*
X100250000Y-112950000D01*
X103750000Y-112200000D02*
X100250000Y-112200000D01*
X103750000Y-112950000D02*
X103750000Y-112200000D01*
X96940000Y-112960000D02*
X107060000Y-112960000D01*
X96940000Y-106990000D02*
X96940000Y-112960000D01*
X107060000Y-106990000D02*
X96940000Y-106990000D01*
X107060000Y-112960000D02*
X107060000Y-106990000D01*
X118350000Y-113250000D02*
X118350000Y-112000000D01*
X117100000Y-113250000D02*
X118350000Y-113250000D01*
X108700000Y-107750000D02*
X113000000Y-107750000D01*
X108700000Y-110700000D02*
X108700000Y-107750000D01*
X107950000Y-110700000D02*
X108700000Y-110700000D01*
X117300000Y-107750000D02*
X113000000Y-107750000D01*
X117300000Y-110700000D02*
X117300000Y-107750000D01*
X118050000Y-110700000D02*
X117300000Y-110700000D01*
X107950000Y-112950000D02*
X109750000Y-112950000D01*
X107950000Y-112200000D02*
X107950000Y-112950000D01*
X109750000Y-112200000D02*
X107950000Y-112200000D01*
X109750000Y-112950000D02*
X109750000Y-112200000D01*
X116250000Y-112950000D02*
X118050000Y-112950000D01*
X116250000Y-112200000D02*
X116250000Y-112950000D01*
X118050000Y-112200000D02*
X116250000Y-112200000D01*
X118050000Y-112950000D02*
X118050000Y-112200000D01*
X111250000Y-112950000D02*
X114750000Y-112950000D01*
X111250000Y-112200000D02*
X111250000Y-112950000D01*
X114750000Y-112200000D02*
X111250000Y-112200000D01*
X114750000Y-112950000D02*
X114750000Y-112200000D01*
X107940000Y-112960000D02*
X118060000Y-112960000D01*
X107940000Y-106990000D02*
X107940000Y-112960000D01*
X118060000Y-106990000D02*
X107940000Y-106990000D01*
X118060000Y-112960000D02*
X118060000Y-106990000D01*
X129350000Y-113250000D02*
X129350000Y-112000000D01*
X128100000Y-113250000D02*
X129350000Y-113250000D01*
X119700000Y-107750000D02*
X124000000Y-107750000D01*
X119700000Y-110700000D02*
X119700000Y-107750000D01*
X118950000Y-110700000D02*
X119700000Y-110700000D01*
X128300000Y-107750000D02*
X124000000Y-107750000D01*
X128300000Y-110700000D02*
X128300000Y-107750000D01*
X129050000Y-110700000D02*
X128300000Y-110700000D01*
X118950000Y-112950000D02*
X120750000Y-112950000D01*
X118950000Y-112200000D02*
X118950000Y-112950000D01*
X120750000Y-112200000D02*
X118950000Y-112200000D01*
X120750000Y-112950000D02*
X120750000Y-112200000D01*
X127250000Y-112950000D02*
X129050000Y-112950000D01*
X127250000Y-112200000D02*
X127250000Y-112950000D01*
X129050000Y-112200000D02*
X127250000Y-112200000D01*
X129050000Y-112950000D02*
X129050000Y-112200000D01*
X122250000Y-112950000D02*
X125750000Y-112950000D01*
X122250000Y-112200000D02*
X122250000Y-112950000D01*
X125750000Y-112200000D02*
X122250000Y-112200000D01*
X125750000Y-112950000D02*
X125750000Y-112200000D01*
X118940000Y-112960000D02*
X129060000Y-112960000D01*
X118940000Y-106990000D02*
X118940000Y-112960000D01*
X129060000Y-106990000D02*
X118940000Y-106990000D01*
X129060000Y-112960000D02*
X129060000Y-106990000D01*
M02*
