<!DOCTYPE svg PUBLIC "-//W3C//DTD SVG 1.1//EN"
"http://www.w3.org/Graphics/SVG/1.1/DTD/svg11.dtd">
<svg xmlns="http://www.w3.org/2000/svg" xmlns:xlink="http://www.w3.org/1999/xlink" width="29.7002cm" height="21.0007cm" viewBox="0 0 11693 8268" font-family="Verdana, sans-serif" style="stroke-opacity:1.000000;fill-opacity:1.000000;"><rect fill="#FFFFFF00" width="11693" height="8268" style="stroke-opacity:1.0;fill-opacity:1.0;"></rect><polyline points="3450, 4650 3700, 4650" stroke-width="10px" stroke="#000000FF"></polyline><polyline points="3600, 4550 3700, 4550" stroke-width="10px" stroke="#000000FF"></polyline><polyline points="3600, 4350 3700, 4350" stroke-width="10px" stroke="#000000FF"></polyline><polyline points="2900, 4350 3450, 4350" stroke-width="10px" stroke="#000000FF"></polyline><polyline points="3600, 4250 3700, 4250" stroke-width="10px" stroke="#000000FF"></polyline><polyline points="2900, 4250 3450, 4250" stroke-width="10px" stroke="#000000FF"></polyline><polyline points="3600, 4050 3700, 4050" stroke-width="10px" stroke="#000000FF"></polyline><polyline points="3450, 3950 3700, 3950" stroke-width="10px" stroke="#000000FF"></polyline><polyline points="3300, 3200 3700, 3200" stroke-width="10px" stroke="#000000FF"></polyline><polyline points="3450, 3100 3700, 3100" stroke-width="10px" stroke="#000000FF"></polyline><polyline points="3600, 3000 3700, 3000" stroke-width="10px" stroke="#000000FF"></polyline><polyline points="2900, 3000 3300, 3000" stroke-width="10px" stroke="#000000FF"></polyline><polyline points="2900, 2900 3450, 2900" stroke-width="10px" stroke="#000000FF"></polyline><polyline points="3600, 2800 3700, 2800" stroke-width="10px" stroke="#000000FF"></polyline><polyline points="2900, 2800 3600, 2800" stroke-width="10px" stroke="#000000FF"></polyline><polyline points="2900, 2700 3700, 2700" stroke-width="10px" stroke="#000000FF"></polyline><polyline points="3600, 2600 3700, 2600" stroke-width="10px" stroke="#000000FF"></polyline><polyline points="2900, 2600 3600, 2600" stroke-width="10px" stroke="#000000FF"></polyline><polyline points="2900, 2500 3450, 2500" stroke-width="10px" stroke="#000000FF"></polyline><polyline points="3600, 2400 3700, 2400" stroke-width="10px" stroke="#000000FF"></polyline><polyline points="2900, 2400 3300, 2400" stroke-width="10px" stroke="#000000FF"></polyline><polyline points="3450, 2300 3700, 2300" stroke-width="10px" stroke="#000000FF"></polyline><polyline points="3300, 2200 3700, 2200" stroke-width="10px" stroke="#000000FF"></polyline><polyline points="3600, 4350 3600, 4550" stroke-width="10px" stroke="#000000FF"></polyline><polyline points="3600, 4050 3600, 4250" stroke-width="10px" stroke="#000000FF"></polyline><polyline points="3600, 2800 3600, 3000" stroke-width="10px" stroke="#000000FF"></polyline><polyline points="3600, 2400 3600, 2600" stroke-width="10px" stroke="#000000FF"></polyline><polyline points="3450, 4350 3450, 4650" stroke-width="10px" stroke="#000000FF"></polyline><polyline points="3450, 3950 3450, 4250" stroke-width="10px" stroke="#000000FF"></polyline><polyline points="3450, 2900 3450, 3100" stroke-width="10px" stroke="#000000FF"></polyline><polyline points="3450, 2300 3450, 2500" stroke-width="10px" stroke="#000000FF"></polyline><polyline points="3300, 3000 3300, 3200" stroke-width="10px" stroke="#000000FF"></polyline><polyline points="3300, 2200 3300, 2400" stroke-width="10px" stroke="#000000FF"></polyline><text x="6150" y="2104" font-size="50.000000" text-anchor="start" transform="rotate(0 6150 2104)" fill="#000000">H2</text><text x="6150" y="2195" font-size="50.000000" text-anchor="start" transform="rotate(0 6150 2195)" fill="#000000">MountingHole</text><circle r="50" cx="6050" cy="2150" fill="none" stroke-width="10px" stroke="#000000"></circle><text x="6150" y="1754" font-size="50.000000" text-anchor="start" transform="rotate(0 6150 1754)" fill="#000000">H1</text><text x="6150" y="1845" font-size="50.000000" text-anchor="start" transform="rotate(0 6150 1845)" fill="#000000">MountingHole</text><circle r="50" cx="6050" cy="1800" fill="none" stroke-width="10px" stroke="#000000"></circle><text x="2250" y="4300" font-size="50.000000" text-anchor="start" transform="rotate(0 2250 4300)" fill="#000000FF">Charger</text><text x="2250" y="2700" font-size="50.000000" text-anchor="start" transform="rotate(0 2250 2700)" fill="#000000FF">Charger</text><text x="4400" y="4600" font-size="50.000000" text-anchor="start" transform="rotate(0 4400 4600)" fill="#000000FF">C</text><text x="4400" y="3100" font-size="50.000000" text-anchor="start" transform="rotate(0 4400 3100)" fill="#000000FF">C</text><text x="4400" y="2700" font-size="50.000000" text-anchor="start" transform="rotate(0 4400 2700)" fill="#000000FF">B</text><text x="4400" y="4300" font-size="50.000000" text-anchor="start" transform="rotate(0 4400 4300)" fill="#000000FF">B</text><text x="4400" y="4000" font-size="50.000000" text-anchor="start" transform="rotate(0 4400 4000)" fill="#000000FF">A</text><text x="4400" y="2300" font-size="50.000000" text-anchor="start" transform="rotate(0 4400 2300)" fill="#000000FF">A</text><text x="3200" y="3800" font-size="50.000000" text-anchor="start" transform="rotate(0 3200 3800)" fill="#000000FF">Power</text><text x="3150" y="2050" font-size="50.000000" text-anchor="start" transform="rotate(0 3150 2050)" fill="#000000FF">Balance</text><text x="3980" y="4558" font-size="50.000000" text-anchor="start" transform="rotate(0 3980 4558)" fill="#000000">J7</text><text x="3980" y="4649" font-size="50.000000" text-anchor="start" transform="rotate(0 3980 4649)" fill="#000000">JST-PH2</text><text x="3700" y="4650" font-size="50.000000" text-anchor="start" transform="rotate(0 3700 4650)" fill="#000000">2</text><polyline points="3850, 4650 3700, 4650" stroke-width="10px" stroke="#000000"></polyline><text x="3700" y="4550" font-size="50.000000" text-anchor="start" transform="rotate(0 3700 4550)" fill="#000000">1</text><polyline points="3850, 4550 3700, 4550" stroke-width="10px" stroke="#000000"></polyline><polyline points="3950, 4500 3850, 4500" stroke-width="10px" stroke="#000000"></polyline><polyline points="3950, 4700 3950, 4500" stroke-width="10px" stroke="#000000"></polyline><polyline points="3850, 4700 3950, 4700" stroke-width="10px" stroke="#000000"></polyline><polyline points="3850, 4500 3850, 4700" stroke-width="10px" stroke="#000000"></polyline><polyline points="3900, 4545 3850, 4545" stroke-width="10px" stroke="#000000"></polyline><polyline points="3900, 4555 3900, 4545" stroke-width="10px" stroke="#000000"></polyline><polyline points="3850, 4555 3900, 4555" stroke-width="10px" stroke="#000000"></polyline><polyline points="3850, 4545 3850, 4555" stroke-width="10px" stroke="#000000"></polyline><polyline points="3900, 4645 3850, 4645" stroke-width="10px" stroke="#000000"></polyline><polyline points="3900, 4655 3900, 4645" stroke-width="10px" stroke="#000000"></polyline><polyline points="3850, 4655 3900, 4655" stroke-width="10px" stroke="#000000"></polyline><polyline points="3850, 4645 3850, 4655" stroke-width="10px" stroke="#000000"></polyline><text x="3980" y="4258" font-size="50.000000" text-anchor="start" transform="rotate(0 3980 4258)" fill="#000000">J6</text><text x="3980" y="4349" font-size="50.000000" text-anchor="start" transform="rotate(0 3980 4349)" fill="#000000">JST-PH2</text><text x="3700" y="4350" font-size="50.000000" text-anchor="start" transform="rotate(0 3700 4350)" fill="#000000">2</text><polyline points="3850, 4350 3700, 4350" stroke-width="10px" stroke="#000000"></polyline><text x="3700" y="4250" font-size="50.000000" text-anchor="start" transform="rotate(0 3700 4250)" fill="#000000">1</text><polyline points="3850, 4250 3700, 4250" stroke-width="10px" stroke="#000000"></polyline><polyline points="3950, 4200 3850, 4200" stroke-width="10px" stroke="#000000"></polyline><polyline points="3950, 4400 3950, 4200" stroke-width="10px" stroke="#000000"></polyline><polyline points="3850, 4400 3950, 4400" stroke-width="10px" stroke="#000000"></polyline><polyline points="3850, 4200 3850, 4400" stroke-width="10px" stroke="#000000"></polyline><polyline points="3900, 4245 3850, 4245" stroke-width="10px" stroke="#000000"></polyline><polyline points="3900, 4255 3900, 4245" stroke-width="10px" stroke="#000000"></polyline><polyline points="3850, 4255 3900, 4255" stroke-width="10px" stroke="#000000"></polyline><polyline points="3850, 4245 3850, 4255" stroke-width="10px" stroke="#000000"></polyline><polyline points="3900, 4345 3850, 4345" stroke-width="10px" stroke="#000000"></polyline><polyline points="3900, 4355 3900, 4345" stroke-width="10px" stroke="#000000"></polyline><polyline points="3850, 4355 3900, 4355" stroke-width="10px" stroke="#000000"></polyline><polyline points="3850, 4345 3850, 4355" stroke-width="10px" stroke="#000000"></polyline><text x="3980" y="3958" font-size="50.000000" text-anchor="start" transform="rotate(0 3980 3958)" fill="#000000">J5</text><text x="3980" y="4049" font-size="50.000000" text-anchor="start" transform="rotate(0 3980 4049)" fill="#000000">JST-PH2</text><text x="3700" y="4050" font-size="50.000000" text-anchor="start" transform="rotate(0 3700 4050)" fill="#000000">2</text><polyline points="3850, 4050 3700, 4050" stroke-width="10px" stroke="#000000"></polyline><text x="3700" y="3950" font-size="50.000000" text-anchor="start" transform="rotate(0 3700 3950)" fill="#000000">1</text><polyline points="3850, 3950 3700, 3950" stroke-width="10px" stroke="#000000"></polyline><polyline points="3950, 3900 3850, 3900" stroke-width="10px" stroke="#000000"></polyline><polyline points="3950, 4100 3950, 3900" stroke-width="10px" stroke="#000000"></polyline><polyline points="3850, 4100 3950, 4100" stroke-width="10px" stroke="#000000"></polyline><polyline points="3850, 3900 3850, 4100" stroke-width="10px" stroke="#000000"></polyline><polyline points="3900, 3945 3850, 3945" stroke-width="10px" stroke="#000000"></polyline><polyline points="3900, 3955 3900, 3945" stroke-width="10px" stroke="#000000"></polyline><polyline points="3850, 3955 3900, 3955" stroke-width="10px" stroke="#000000"></polyline><polyline points="3850, 3945 3850, 3955" stroke-width="10px" stroke="#000000"></polyline><polyline points="3900, 4045 3850, 4045" stroke-width="10px" stroke="#000000"></polyline><polyline points="3900, 4055 3900, 4045" stroke-width="10px" stroke="#000000"></polyline><polyline points="3850, 4055 3900, 4055" stroke-width="10px" stroke="#000000"></polyline><polyline points="3850, 4045 3850, 4055" stroke-width="10px" stroke="#000000"></polyline><circle r="10" cx="3600" cy="2800" fill="#000000" stroke-width="10px" stroke="#000000"></circle><circle r="10" cx="3600" cy="2600" fill="#000000" stroke-width="10px" stroke="#000000"></circle><text x="3980" y="3058" font-size="50.000000" text-anchor="start" transform="rotate(0 3980 3058)" fill="#000000">J3</text><text x="3980" y="3149" font-size="50.000000" text-anchor="start" transform="rotate(0 3980 3149)" fill="#000000">JST-XH3</text><text x="3700" y="3200" font-size="50.000000" text-anchor="start" transform="rotate(0 3700 3200)" fill="#000000">3</text><polyline points="3850, 3200 3700, 3200" stroke-width="10px" stroke="#000000"></polyline><text x="3700" y="3100" font-size="50.000000" text-anchor="start" transform="rotate(0 3700 3100)" fill="#000000">2</text><polyline points="3850, 3100 3700, 3100" stroke-width="10px" stroke="#000000"></polyline><text x="3700" y="3000" font-size="50.000000" text-anchor="start" transform="rotate(0 3700 3000)" fill="#000000">1</text><polyline points="3850, 3000 3700, 3000" stroke-width="10px" stroke="#000000"></polyline><polyline points="3950, 2950 3850, 2950" stroke-width="10px" stroke="#000000"></polyline><polyline points="3950, 3250 3950, 2950" stroke-width="10px" stroke="#000000"></polyline><polyline points="3850, 3250 3950, 3250" stroke-width="10px" stroke="#000000"></polyline><polyline points="3850, 2950 3850, 3250" stroke-width="10px" stroke="#000000"></polyline><polyline points="3900, 2995 3850, 2995" stroke-width="10px" stroke="#000000"></polyline><polyline points="3900, 3005 3900, 2995" stroke-width="10px" stroke="#000000"></polyline><polyline points="3850, 3005 3900, 3005" stroke-width="10px" stroke="#000000"></polyline><polyline points="3850, 2995 3850, 3005" stroke-width="10px" stroke="#000000"></polyline><polyline points="3900, 3095 3850, 3095" stroke-width="10px" stroke="#000000"></polyline><polyline points="3900, 3105 3900, 3095" stroke-width="10px" stroke="#000000"></polyline><polyline points="3850, 3105 3900, 3105" stroke-width="10px" stroke="#000000"></polyline><polyline points="3850, 3095 3850, 3105" stroke-width="10px" stroke="#000000"></polyline><polyline points="3900, 3195 3850, 3195" stroke-width="10px" stroke="#000000"></polyline><polyline points="3900, 3205 3900, 3195" stroke-width="10px" stroke="#000000"></polyline><polyline points="3850, 3205 3900, 3205" stroke-width="10px" stroke="#000000"></polyline><polyline points="3850, 3195 3850, 3205" stroke-width="10px" stroke="#000000"></polyline><text x="3980" y="2658" font-size="50.000000" text-anchor="start" transform="rotate(0 3980 2658)" fill="#000000">J2</text><text x="3980" y="2749" font-size="50.000000" text-anchor="start" transform="rotate(0 3980 2749)" fill="#000000">JST-XH3</text><text x="3700" y="2800" font-size="50.000000" text-anchor="start" transform="rotate(0 3700 2800)" fill="#000000">3</text><polyline points="3850, 2800 3700, 2800" stroke-width="10px" stroke="#000000"></polyline><text x="3700" y="2700" font-size="50.000000" text-anchor="start" transform="rotate(0 3700 2700)" fill="#000000">2</text><polyline points="3850, 2700 3700, 2700" stroke-width="10px" stroke="#000000"></polyline><text x="3700" y="2600" font-size="50.000000" text-anchor="start" transform="rotate(0 3700 2600)" fill="#000000">1</text><polyline points="3850, 2600 3700, 2600" stroke-width="10px" stroke="#000000"></polyline><polyline points="3950, 2550 3850, 2550" stroke-width="10px" stroke="#000000"></polyline><polyline points="3950, 2850 3950, 2550" stroke-width="10px" stroke="#000000"></polyline><polyline points="3850, 2850 3950, 2850" stroke-width="10px" stroke="#000000"></polyline><polyline points="3850, 2550 3850, 2850" stroke-width="10px" stroke="#000000"></polyline><polyline points="3900, 2595 3850, 2595" stroke-width="10px" stroke="#000000"></polyline><polyline points="3900, 2605 3900, 2595" stroke-width="10px" stroke="#000000"></polyline><polyline points="3850, 2605 3900, 2605" stroke-width="10px" stroke="#000000"></polyline><polyline points="3850, 2595 3850, 2605" stroke-width="10px" stroke="#000000"></polyline><polyline points="3900, 2695 3850, 2695" stroke-width="10px" stroke="#000000"></polyline><polyline points="3900, 2705 3900, 2695" stroke-width="10px" stroke="#000000"></polyline><polyline points="3850, 2705 3900, 2705" stroke-width="10px" stroke="#000000"></polyline><polyline points="3850, 2695 3850, 2705" stroke-width="10px" stroke="#000000"></polyline><polyline points="3900, 2795 3850, 2795" stroke-width="10px" stroke="#000000"></polyline><polyline points="3900, 2805 3900, 2795" stroke-width="10px" stroke="#000000"></polyline><polyline points="3850, 2805 3900, 2805" stroke-width="10px" stroke="#000000"></polyline><polyline points="3850, 2795 3850, 2805" stroke-width="10px" stroke="#000000"></polyline><text x="2782" y="2183" font-size="50.000000" text-anchor="middle" transform="rotate(0 2782 2183)" fill="#000000">J4</text><text x="2782" y="2274" font-size="50.000000" text-anchor="middle" transform="rotate(0 2782 2274)" fill="#000000">JST-XH7</text><text x="2900" y="3000" font-size="50.000000" text-anchor="end" transform="rotate(0 2900 3000)" fill="#000000">7</text><polyline points="2750, 3000 2900, 3000" stroke-width="10px" stroke="#000000"></polyline><text x="2900" y="2900" font-size="50.000000" text-anchor="end" transform="rotate(0 2900 2900)" fill="#000000">6</text><polyline points="2750, 2900 2900, 2900" stroke-width="10px" stroke="#000000"></polyline><text x="2900" y="2800" font-size="50.000000" text-anchor="end" transform="rotate(0 2900 2800)" fill="#000000">5</text><polyline points="2750, 2800 2900, 2800" stroke-width="10px" stroke="#000000"></polyline><text x="2900" y="2700" font-size="50.000000" text-anchor="end" transform="rotate(0 2900 2700)" fill="#000000">4</text><polyline points="2750, 2700 2900, 2700" stroke-width="10px" stroke="#000000"></polyline><text x="2900" y="2600" font-size="50.000000" text-anchor="end" transform="rotate(0 2900 2600)" fill="#000000">3</text><polyline points="2750, 2600 2900, 2600" stroke-width="10px" stroke="#000000"></polyline><text x="2900" y="2500" font-size="50.000000" text-anchor="end" transform="rotate(0 2900 2500)" fill="#000000">2</text><polyline points="2750, 2500 2900, 2500" stroke-width="10px" stroke="#000000"></polyline><text x="2900" y="2400" font-size="50.000000" text-anchor="end" transform="rotate(0 2900 2400)" fill="#000000">1</text><polyline points="2750, 2400 2900, 2400" stroke-width="10px" stroke="#000000"></polyline><polyline points="2650, 2350 2750, 2350" stroke-width="10px" stroke="#000000"></polyline><polyline points="2650, 3050 2650, 2350" stroke-width="10px" stroke="#000000"></polyline><polyline points="2750, 3050 2650, 3050" stroke-width="10px" stroke="#000000"></polyline><polyline points="2750, 2350 2750, 3050" stroke-width="10px" stroke="#000000"></polyline><polyline points="2700, 2395 2750, 2395" stroke-width="10px" stroke="#000000"></polyline><polyline points="2700, 2405 2700, 2395" stroke-width="10px" stroke="#000000"></polyline><polyline points="2750, 2405 2700, 2405" stroke-width="10px" stroke="#000000"></polyline><polyline points="2750, 2395 2750, 2405" stroke-width="10px" stroke="#000000"></polyline><polyline points="2700, 2495 2750, 2495" stroke-width="10px" stroke="#000000"></polyline><polyline points="2700, 2505 2700, 2495" stroke-width="10px" stroke="#000000"></polyline><polyline points="2750, 2505 2700, 2505" stroke-width="10px" stroke="#000000"></polyline><polyline points="2750, 2495 2750, 2505" stroke-width="10px" stroke="#000000"></polyline><polyline points="2700, 2595 2750, 2595" stroke-width="10px" stroke="#000000"></polyline><polyline points="2700, 2605 2700, 2595" stroke-width="10px" stroke="#000000"></polyline><polyline points="2750, 2605 2700, 2605" stroke-width="10px" stroke="#000000"></polyline><polyline points="2750, 2595 2750, 2605" stroke-width="10px" stroke="#000000"></polyline><polyline points="2700, 2695 2750, 2695" stroke-width="10px" stroke="#000000"></polyline><polyline points="2700, 2705 2700, 2695" stroke-width="10px" stroke="#000000"></polyline><polyline points="2750, 2705 2700, 2705" stroke-width="10px" stroke="#000000"></polyline><polyline points="2750, 2695 2750, 2705" stroke-width="10px" stroke="#000000"></polyline><polyline points="2700, 2795 2750, 2795" stroke-width="10px" stroke="#000000"></polyline><polyline points="2700, 2805 2700, 2795" stroke-width="10px" stroke="#000000"></polyline><polyline points="2750, 2805 2700, 2805" stroke-width="10px" stroke="#000000"></polyline><polyline points="2750, 2795 2750, 2805" stroke-width="10px" stroke="#000000"></polyline><polyline points="2700, 2895 2750, 2895" stroke-width="10px" stroke="#000000"></polyline><polyline points="2700, 2905 2700, 2895" stroke-width="10px" stroke="#000000"></polyline><polyline points="2750, 2905 2700, 2905" stroke-width="10px" stroke="#000000"></polyline><polyline points="2750, 2895 2750, 2905" stroke-width="10px" stroke="#000000"></polyline><polyline points="2700, 2995 2750, 2995" stroke-width="10px" stroke="#000000"></polyline><polyline points="2700, 3005 2700, 2995" stroke-width="10px" stroke="#000000"></polyline><polyline points="2750, 3005 2700, 3005" stroke-width="10px" stroke="#000000"></polyline><polyline points="2750, 2995 2750, 3005" stroke-width="10px" stroke="#000000"></polyline><text x="3980" y="2258" font-size="50.000000" text-anchor="start" transform="rotate(0 3980 2258)" fill="#000000">J1</text><text x="3980" y="2349" font-size="50.000000" text-anchor="start" transform="rotate(0 3980 2349)" fill="#000000">JST-XH3</text><text x="3700" y="2400" font-size="50.000000" text-anchor="start" transform="rotate(0 3700 2400)" fill="#000000">3</text><polyline points="3850, 2400 3700, 2400" stroke-width="10px" stroke="#000000"></polyline><text x="3700" y="2300" font-size="50.000000" text-anchor="start" transform="rotate(0 3700 2300)" fill="#000000">2</text><polyline points="3850, 2300 3700, 2300" stroke-width="10px" stroke="#000000"></polyline><text x="3700" y="2200" font-size="50.000000" text-anchor="start" transform="rotate(0 3700 2200)" fill="#000000">1</text><polyline points="3850, 2200 3700, 2200" stroke-width="10px" stroke="#000000"></polyline><polyline points="3950, 2150 3850, 2150" stroke-width="10px" stroke="#000000"></polyline><polyline points="3950, 2450 3950, 2150" stroke-width="10px" stroke="#000000"></polyline><polyline points="3850, 2450 3950, 2450" stroke-width="10px" stroke="#000000"></polyline><polyline points="3850, 2150 3850, 2450" stroke-width="10px" stroke="#000000"></polyline><polyline points="3900, 2195 3850, 2195" stroke-width="10px" stroke="#000000"></polyline><polyline points="3900, 2205 3900, 2195" stroke-width="10px" stroke="#000000"></polyline><polyline points="3850, 2205 3900, 2205" stroke-width="10px" stroke="#000000"></polyline><polyline points="3850, 2195 3850, 2205" stroke-width="10px" stroke="#000000"></polyline><polyline points="3900, 2295 3850, 2295" stroke-width="10px" stroke="#000000"></polyline><polyline points="3900, 2305 3900, 2295" stroke-width="10px" stroke="#000000"></polyline><polyline points="3850, 2305 3900, 2305" stroke-width="10px" stroke="#000000"></polyline><polyline points="3850, 2295 3850, 2305" stroke-width="10px" stroke="#000000"></polyline><polyline points="3900, 2395 3850, 2395" stroke-width="10px" stroke="#000000"></polyline><polyline points="3900, 2405 3900, 2395" stroke-width="10px" stroke="#000000"></polyline><polyline points="3850, 2405 3900, 2405" stroke-width="10px" stroke="#000000"></polyline><polyline points="3850, 2395 3850, 2405" stroke-width="10px" stroke="#000000"></polyline><text x="2782" y="4033" font-size="50.000000" text-anchor="middle" transform="rotate(0 2782 4033)" fill="#000000">J8</text><text x="2782" y="4124" font-size="50.000000" text-anchor="middle" transform="rotate(0 2782 4124)" fill="#000000">Wired XT60</text><text x="2900" y="4350" font-size="50.000000" text-anchor="end" transform="rotate(0 2900 4350)" fill="#000000">2</text><polyline points="2750, 4350 2900, 4350" stroke-width="10px" stroke="#000000"></polyline><text x="2900" y="4250" font-size="50.000000" text-anchor="end" transform="rotate(0 2900 4250)" fill="#000000">1</text><polyline points="2750, 4250 2900, 4250" stroke-width="10px" stroke="#000000"></polyline><polyline points="2650, 4200 2750, 4200" stroke-width="10px" stroke="#000000"></polyline><polyline points="2650, 4400 2650, 4200" stroke-width="10px" stroke="#000000"></polyline><polyline points="2750, 4400 2650, 4400" stroke-width="10px" stroke="#000000"></polyline><polyline points="2750, 4200 2750, 4400" stroke-width="10px" stroke="#000000"></polyline><polyline points="2700, 4245 2750, 4245" stroke-width="10px" stroke="#000000"></polyline><polyline points="2700, 4255 2700, 4245" stroke-width="10px" stroke="#000000"></polyline><polyline points="2750, 4255 2700, 4255" stroke-width="10px" stroke="#000000"></polyline><polyline points="2750, 4245 2750, 4255" stroke-width="10px" stroke="#000000"></polyline><polyline points="2700, 4345 2750, 4345" stroke-width="10px" stroke="#000000"></polyline><polyline points="2700, 4355 2700, 4345" stroke-width="10px" stroke="#000000"></polyline><polyline points="2750, 4355 2700, 4355" stroke-width="10px" stroke="#000000"></polyline><polyline points="2750, 4345 2750, 4355" stroke-width="10px" stroke="#000000"></polyline><text x="7693" y="8218" font-size="50.000000" text-anchor="start" transform="rotate(0 7693 8218)" fill="#000000">Git rev b924aa9</text><text x="8693" y="7968" font-size="50.000000" text-anchor="start" transform="rotate(0 8693 7968)" fill="#000000">Electro Man</text><text x="10893" y="8118" font-size="100.000000" text-anchor="start" transform="rotate(0 10893 8118)" fill="#000000">Rev: 1.0</text><text x="8193" y="7968" font-size="50.000000" text-anchor="start" transform="rotate(0 8193 7968)" fill="#000000">Date: 2020-09-06</text><text x="7693" y="8118" font-size="100.000000" text-anchor="start" transform="rotate(0 7693 8118)" fill="#000000">Title: 2S_serial_charging_board</text><text x="7693" y="7968" font-size="50.000000" text-anchor="start" transform="rotate(0 7693 7968)" fill="#000000">Page: 1 1</text><rect x="7593" y="7618" width="4000" height="400" fill="none" stroke-width="5px" stroke="#000000"></rect><rect x="7593" y="7918" width="4000" height="100" fill="none" stroke-width="5px" stroke="#000000"></rect><rect x="7593" y="8018" width="4000" height="150" fill="none" stroke-width="5px" stroke="#000000"></rect><rect x="100" y="100" width="11493" height="8068" fill="none" stroke-width="5px" stroke="#000000"></rect></svg>